<svg width="691" height="351" viewBox="0 0 691 351" fill="none" xmlns="http://www.w3.org/2000/svg">
<rect width="691" height="351" fill="white"/>
<path d="M336.735 69.502H185.311V309.998H336.735V69.502Z" fill="white" stroke="#DDDDDD" stroke-width="2"/>
<path d="M308.229 92.2156H213.817V108.249H308.229V92.2156Z" fill="#868686"/>
<rect x="200.084" y="130.792" width="55.9871" height="29.1163" fill="#C4C4C4"/>
<rect x="265.974" y="130.792" width="55.9871" height="29.1163" fill="#C4C4C4"/>
<rect x="200.079" y="176.851" width="55.9871" height="29.1163" fill="#3EC6FF"/>
<rect x="265.974" y="176.851" width="55.9871" height="29.1163" fill="#3EC6FF"/>
<rect x="200.084" y="225.47" width="55.9871" height="29.1163" fill="#C4C4C4"/>
<rect x="265.974" y="225.47" width="55.9871" height="29.1163" fill="#C4C4C4"/>
<rect x="200.079" y="271.529" width="55.9871" height="29.1163" fill="#3EC6FF"/>
<rect x="265.974" y="271.529" width="55.9871" height="29.1163" fill="#3EC6FF"/>
<path d="M167.781 69.502H16.3571V309.998H167.781V69.502Z" fill="white" stroke="#DDDDDD" stroke-width="2"/>
<path d="M142.284 264.571H105.764C100.721 264.571 96.6338 268.659 96.6338 273.701C96.6338 278.743 100.721 282.831 105.764 282.831H142.284C147.326 282.831 151.413 278.743 151.413 273.701C151.413 268.659 147.326 264.571 142.284 264.571Z" fill="#DDDDDD"/>
<path d="M78.3738 264.571H41.8541C36.8117 264.571 32.7241 268.659 32.7241 273.701C32.7241 278.743 36.8117 282.831 41.8541 282.831H78.3738C83.4162 282.831 87.5038 278.743 87.5038 273.701C87.5038 268.659 83.4162 264.571 78.3738 264.571Z" fill="#DDDDDD"/>
<path d="M142.284 237.849H105.764C100.721 237.849 96.6338 241.937 96.6338 246.979C96.6338 252.021 100.721 256.109 105.764 256.109H142.284C147.326 256.109 151.413 252.021 151.413 246.979C151.413 241.937 147.326 237.849 142.284 237.849Z" fill="#DDDDDD"/>
<path d="M78.3738 237.849H41.8541C36.8117 237.849 32.7241 241.937 32.7241 246.979C32.7241 252.021 36.8117 256.109 41.8541 256.109H78.3738C83.4162 256.109 87.5038 252.021 87.5038 246.979C87.5038 241.937 83.4162 237.849 78.3738 237.849Z" fill="#3EC6FF"/>
<path d="M139.275 202.22H44.863V216.472H139.275V202.22Z" fill="#DDDDDD"/>
<path d="M139.275 93.1064H44.863V109.139H139.275V93.1064Z" fill="#868686"/>
<path fill-rule="evenodd" clip-rule="evenodd" d="M92.0688 183.064C109.162 183.064 123.019 169.207 123.019 152.114C123.019 135.021 109.162 121.164 92.0688 121.164C74.9756 121.164 61.1188 135.021 61.1188 152.114C61.1188 169.207 74.9756 183.064 92.0688 183.064Z" fill="#3EC6FF"/>
<path fill-rule="evenodd" clip-rule="evenodd" d="M109.006 140.751C109.006 140.108 108.485 139.587 107.842 139.587H76.3809C75.7377 139.587 75.2162 140.108 75.2162 140.751V163.364C75.2162 164.007 75.7377 164.528 76.3809 164.528H107.842C108.484 164.528 109.006 164.007 109.006 163.364V140.751Z" stroke="white" stroke-width="2"/>
<path fill-rule="evenodd" clip-rule="evenodd" d="M83.9778 151.478C85.67 151.478 87.0419 150.108 87.0419 148.418C87.0419 146.728 85.67 145.358 83.9778 145.358C82.2855 145.358 80.9136 146.728 80.9136 148.418C80.9136 150.108 82.2855 151.478 83.9778 151.478Z" stroke="white" stroke-width="2"/>
<path d="M82.5428 164.528L92.6927 150.249L96.8893 155.905L102.287 147.428L109.006 157.187" stroke="white" stroke-width="2"/>
<path d="M674.643 69.502H523.22V309.998H674.643V69.502Z" fill="white" stroke="#DDDDDD" stroke-width="2"/>
<path fill-rule="evenodd" clip-rule="evenodd" d="M544.991 281.646C545.747 281.646 546.36 281.013 546.36 280.232C546.36 279.451 545.747 278.817 544.991 278.817C544.235 278.817 543.622 279.451 543.622 280.232C543.622 281.013 544.235 281.646 544.991 281.646Z" stroke="white"/>
<path d="M657.349 186.187H584.175V190.641H657.349V186.187Z" fill="#DDDDDD"/>
<path d="M657.349 179.066H584.175V183.519H657.349V179.066Z" fill="#DDDDDD"/>
<path d="M657.349 169.263H584.175V176.389H657.349V169.263Z" fill="#868686"/>
<path fill-rule="evenodd" clip-rule="evenodd" d="M556.101 195.094C564.71 195.094 571.689 188.116 571.689 179.507C571.689 170.898 564.71 163.919 556.101 163.919C547.492 163.919 540.513 170.898 540.513 179.507C540.513 188.116 547.492 195.094 556.101 195.094Z" fill="#3EC6FF"/>
<path fill-rule="evenodd" clip-rule="evenodd" d="M563.667 174.255C563.667 173.957 563.434 173.717 563.147 173.717H549.093C548.806 173.717 548.573 173.957 548.573 174.255V184.706C548.573 185.003 548.806 185.244 549.093 185.244H563.146C563.434 185.244 563.667 185.003 563.667 184.706V174.255H563.667Z" stroke="white"/>
<path fill-rule="evenodd" clip-rule="evenodd" d="M552.486 179.213C553.242 179.213 553.855 178.579 553.855 177.798C553.855 177.017 553.242 176.384 552.486 176.384C551.731 176.384 551.118 177.017 551.118 177.798C551.118 178.579 551.731 179.213 552.486 179.213Z" stroke="white"/>
<path d="M551.846 185.244L556.38 178.645L558.254 181.259L560.665 177.341L563.667 181.851" stroke="white"/>
<path d="M657.349 236.958H584.175V241.412H657.349V236.958Z" fill="#DDDDDD"/>
<path d="M657.349 229.837H584.175V234.291H657.349V229.837Z" fill="#DDDDDD"/>
<path d="M657.349 220.035H584.175V227.16H657.349V220.035Z" fill="#868686"/>
<path fill-rule="evenodd" clip-rule="evenodd" d="M556.101 245.866C564.71 245.866 571.689 238.887 571.689 230.278C571.689 221.669 564.71 214.69 556.101 214.69C547.492 214.69 540.513 221.669 540.513 230.278C540.513 238.887 547.492 245.866 556.101 245.866Z" fill="#3EC6FF"/>
<path fill-rule="evenodd" clip-rule="evenodd" d="M563.667 225.026C563.667 224.729 563.434 224.488 563.147 224.488H549.093C548.806 224.488 548.573 224.729 548.573 225.026V235.477C548.573 235.775 548.806 236.015 549.093 236.015H563.146C563.434 236.015 563.667 235.775 563.667 235.477V225.026H563.667Z" stroke="white"/>
<path fill-rule="evenodd" clip-rule="evenodd" d="M552.486 229.984C553.242 229.984 553.855 229.351 553.855 228.57C553.855 227.788 553.242 227.155 552.486 227.155C551.731 227.155 551.118 227.788 551.118 228.57C551.118 229.351 551.731 229.984 552.486 229.984Z" stroke="white"/>
<path d="M551.846 236.015L556.38 229.417L558.254 232.03L560.665 228.113L563.667 232.622" stroke="white"/>
<path d="M657.349 289.511H584.175V293.965H657.349V289.511Z" fill="#DDDDDD"/>
<path d="M657.349 282.39H584.175V286.844H657.349V282.39Z" fill="#DDDDDD"/>
<path d="M657.349 272.588H584.175V279.713H657.349V272.588Z" fill="#868686"/>
<path fill-rule="evenodd" clip-rule="evenodd" d="M556.101 298.419C564.71 298.419 571.689 291.44 571.689 282.831C571.689 274.222 564.71 267.243 556.101 267.243C547.492 267.243 540.513 274.222 540.513 282.831C540.513 291.44 547.492 298.419 556.101 298.419Z" fill="#3EC6FF"/>
<path fill-rule="evenodd" clip-rule="evenodd" d="M563.667 277.579C563.667 277.282 563.434 277.041 563.147 277.041H549.093C548.806 277.041 548.573 277.282 548.573 277.579V288.03C548.573 288.328 548.806 288.568 549.093 288.568H563.146C563.434 288.568 563.667 288.328 563.667 288.03V277.579H563.667Z" stroke="white"/>
<path fill-rule="evenodd" clip-rule="evenodd" d="M552.486 282.537C553.242 282.537 553.855 281.904 553.855 281.122C553.855 280.341 553.242 279.708 552.486 279.708C551.731 279.708 551.118 280.341 551.118 281.122C551.118 281.904 551.731 282.537 552.486 282.537Z" stroke="white"/>
<path d="M551.846 288.568L556.38 281.97L558.254 284.583L560.665 280.666L563.667 285.175" stroke="white"/>
<path d="M646.137 93.5517H551.725V109.585H646.137V93.5517Z" fill="#868686"/>
<path d="M576.994 128.29H541.499V142.096H576.994V128.29Z" fill="#868686"/>
<path d="M616.679 128.29H581.184V142.096H616.679V128.29Z" fill="#DDDDDD"/>
<path d="M656.364 128.29H620.869V142.096H656.364V128.29Z" fill="#DDDDDD"/>
<path d="M505.689 69.502H354.265V309.998H505.689V69.502Z" fill="white" stroke="#DDDDDD" stroke-width="2"/>
<path d="M477.183 92.6085H382.771V108.641H477.183V92.6085Z" fill="#868686"/>
<path d="M489.544 142.096H418.286V146.55H489.544V142.096Z" fill="#DDDDDD"/>
<path d="M489.544 150.998H418.286V155.452H489.544V150.998Z" fill="#DDDDDD"/>
<path d="M458.24 159.858H418.286V164.312H458.24V159.858Z" fill="#DDDDDD"/>
<path d="M489.544 131.407H418.286V138.533H489.544V131.407Z" fill="#868686"/>
<rect x="370.41" y="131.407" width="35.629" height="32.9043" rx="1" fill="#3EC6FF"/>
<path fill-rule="evenodd" clip-rule="evenodd" d="M395.771 142.634C395.771 142.337 395.538 142.096 395.251 142.096H381.197C380.91 142.096 380.677 142.337 380.677 142.634V153.085C380.677 153.383 380.91 153.623 381.197 153.623H395.251C395.538 153.623 395.771 153.383 395.771 153.085V142.634H395.771Z" stroke="white"/>
<path fill-rule="evenodd" clip-rule="evenodd" d="M384.591 147.592C385.347 147.592 385.96 146.959 385.96 146.177C385.96 145.396 385.347 144.763 384.591 144.763C383.835 144.763 383.222 145.396 383.222 146.177C383.222 146.959 383.835 147.592 384.591 147.592Z" stroke="white"/>
<path d="M383.95 153.623L388.484 147.025L390.359 149.638L392.77 145.721L395.771 150.23" stroke="white"/>
<path d="M489.544 195.54H418.286V199.993H489.544V195.54Z" fill="#DDDDDD"/>
<path d="M489.544 204.442H418.286V208.895H489.544V204.442Z" fill="#DDDDDD"/>
<path d="M458.24 213.302H418.286V217.755H458.24V213.302Z" fill="#DDDDDD"/>
<path d="M489.544 184.851H418.286V191.977H489.544V184.851Z" fill="#868686"/>
<rect x="370.41" y="184.851" width="35.629" height="32.9043" rx="1" fill="#3EC6FF"/>
<path fill-rule="evenodd" clip-rule="evenodd" d="M395.771 196.078C395.771 195.781 395.538 195.54 395.251 195.54H381.197C380.91 195.54 380.677 195.781 380.677 196.078V206.529C380.677 206.826 380.91 207.067 381.197 207.067H395.251C395.538 207.067 395.771 206.826 395.771 206.529V196.078H395.771Z" stroke="white"/>
<path fill-rule="evenodd" clip-rule="evenodd" d="M384.591 201.035C385.347 201.035 385.96 200.402 385.96 199.621C385.96 198.84 385.347 198.207 384.591 198.207C383.835 198.207 383.222 198.84 383.222 199.621C383.222 200.402 383.835 201.035 384.591 201.035Z" stroke="white"/>
<path d="M383.95 207.067L388.484 200.468L390.359 203.081L392.77 199.164L395.771 203.674" stroke="white"/>
<path d="M489.544 246.311H418.286V250.765H489.544V246.311Z" fill="#DDDDDD"/>
<path d="M489.544 255.213H418.286V259.667H489.544V255.213Z" fill="#DDDDDD"/>
<path d="M458.24 264.073H418.286V268.527H458.24V264.073Z" fill="#DDDDDD"/>
<path d="M489.544 235.622H418.286V242.748H489.544V235.622Z" fill="#868686"/>
<rect x="370.41" y="235.622" width="35.629" height="32.9043" rx="1" fill="#3EC6FF"/>
<path fill-rule="evenodd" clip-rule="evenodd" d="M395.771 246.849C395.771 246.552 395.538 246.311 395.251 246.311H381.197C380.91 246.311 380.677 246.552 380.677 246.849V257.3C380.677 257.597 380.91 257.838 381.197 257.838H395.251C395.538 257.838 395.771 257.597 395.771 257.3V246.849H395.771Z" stroke="white"/>
<path fill-rule="evenodd" clip-rule="evenodd" d="M384.591 251.807C385.347 251.807 385.96 251.174 385.96 250.392C385.96 249.611 385.347 248.978 384.591 248.978C383.835 248.978 383.222 249.611 383.222 250.392C383.222 251.174 383.835 251.807 384.591 251.807Z" stroke="white"/>
<path d="M383.95 257.838L388.484 251.24L390.359 253.853L392.77 249.935L395.771 254.445" stroke="white"/>
<path d="M370.41 290.066C370.41 289.514 370.857 289.066 371.41 289.066H405.039C405.591 289.066 406.039 289.514 406.039 290.066V309.107H370.41V290.066Z" fill="#3EC6FF"/>
<path fill-rule="evenodd" clip-rule="evenodd" d="M395.771 296.069C395.771 295.783 395.538 295.55 395.251 295.55H381.197C380.91 295.55 380.677 295.783 380.677 296.069V306.138C380.677 306.425 380.91 306.656 381.197 306.656H395.251C395.538 306.656 395.771 306.425 395.771 306.138V296.069H395.771Z" stroke="white"/>
<path fill-rule="evenodd" clip-rule="evenodd" d="M384.591 300.846C385.347 300.846 385.96 300.235 385.96 299.483C385.96 298.73 385.347 298.12 384.591 298.12C383.835 298.12 383.222 298.73 383.222 299.483C383.222 300.235 383.835 300.846 384.591 300.846Z" stroke="white"/>
<path d="M383.95 306.656L388.484 300.299L390.359 302.817L392.77 299.042L395.771 303.387" stroke="white"/>
<path d="M489.544 299.755H418.286V304.208H489.544V299.755Z" fill="#DDDDDD"/>
<path d="M489.544 289.066H418.286V296.192H489.544V289.066Z" fill="#868686"/>
<path d="M77.1119 35.93C77.4405 35.93 77.7012 36.032 77.8939 36.236C78.0865 36.4287 78.1829 36.6893 78.1829 37.018V46.997C78.1829 47.3257 78.0809 47.592 77.8769 47.796C77.6842 48 77.4292 48.102 77.1119 48.102C76.7832 48.102 76.5225 48 76.3299 47.796C76.1372 47.592 76.0409 47.3257 76.0409 46.997V42.798H69.9039V46.997C69.9039 47.3257 69.8019 47.592 69.5979 47.796C69.4052 48 69.1445 48.102 68.8159 48.102C68.4985 48.102 68.2379 48 68.0339 47.796C67.8412 47.592 67.7449 47.3257 67.7449 46.997V37.018C67.7449 36.6893 67.8412 36.4287 68.0339 36.236C68.2265 36.032 68.4872 35.93 68.8159 35.93C69.1445 35.93 69.4052 36.032 69.5979 36.236C69.8019 36.4287 69.9039 36.6893 69.9039 37.018V41.03H76.0409V37.018C76.0409 36.6893 76.1372 36.4287 76.3299 36.236C76.5225 36.032 76.7832 35.93 77.1119 35.93ZM84.3645 48.136C83.5145 48.136 82.7665 47.9603 82.1205 47.609C81.4858 47.2577 80.9928 46.7533 80.6415 46.096C80.2902 45.4387 80.1145 44.6737 80.1145 43.801C80.1145 42.9283 80.2902 42.169 80.6415 41.523C80.9928 40.8657 81.4858 40.3613 82.1205 40.01C82.7665 39.6587 83.5145 39.483 84.3645 39.483C85.2145 39.483 85.9568 39.6587 86.5915 40.01C87.2375 40.3613 87.7305 40.8657 88.0705 41.523C88.4218 42.169 88.5975 42.9283 88.5975 43.801C88.5975 44.6737 88.4218 45.4387 88.0705 46.096C87.7305 46.7533 87.2375 47.2577 86.5915 47.609C85.9568 47.9603 85.2145 48.136 84.3645 48.136ZM84.3475 46.487C85.0388 46.487 85.5658 46.2603 85.9285 45.807C86.2912 45.3537 86.4725 44.685 86.4725 43.801C86.4725 42.9283 86.2912 42.2653 85.9285 41.812C85.5658 41.3473 85.0445 41.115 84.3645 41.115C83.6845 41.115 83.1575 41.3473 82.7835 41.812C82.4208 42.2653 82.2395 42.9283 82.2395 43.801C82.2395 44.685 82.4208 45.3537 82.7835 45.807C83.1462 46.2603 83.6675 46.487 84.3475 46.487ZM100.229 39.483C101.135 39.483 101.827 39.755 102.303 40.299C102.79 40.8317 103.034 41.6987 103.034 42.9V47.082C103.034 47.4107 102.932 47.6657 102.728 47.847C102.535 48.017 102.28 48.102 101.963 48.102C101.657 48.102 101.402 48.017 101.198 47.847C101.005 47.6657 100.909 47.4107 100.909 47.082V42.9C100.909 42.2767 100.795 41.8347 100.569 41.574C100.353 41.302 100.019 41.166 99.5658 41.166C99.0105 41.166 98.5685 41.3587 98.2398 41.744C97.9111 42.118 97.7468 42.6337 97.7468 43.291V47.082C97.7468 47.4107 97.6448 47.6657 97.4408 47.847C97.2481 48.017 96.9988 48.102 96.6928 48.102C96.3868 48.102 96.1318 48.017 95.9278 47.847C95.7238 47.6657 95.6218 47.4107 95.6218 47.082V42.9C95.6218 42.2767 95.5085 41.8347 95.2818 41.574C95.0665 41.302 94.7321 41.166 94.2788 41.166C93.7235 41.166 93.2815 41.3587 92.9528 41.744C92.6355 42.118 92.4768 42.6337 92.4768 43.291V47.082C92.4768 47.4107 92.3748 47.6657 92.1708 47.847C91.9668 48.017 91.7118 48.102 91.4058 48.102C91.0998 48.102 90.8448 48.017 90.6408 47.847C90.4481 47.6657 90.3518 47.4107 90.3518 47.082V40.503C90.3518 40.1857 90.4538 39.942 90.6578 39.772C90.8618 39.602 91.1168 39.517 91.4228 39.517C91.7175 39.517 91.9555 39.602 92.1368 39.772C92.3295 39.9307 92.4258 40.163 92.4258 40.469V40.877C92.6865 40.4237 93.0321 40.078 93.4628 39.84C93.9048 39.602 94.4091 39.483 94.9758 39.483C96.2225 39.483 97.0555 40.0043 97.4748 41.047C97.7241 40.571 98.0925 40.1913 98.5798 39.908C99.0671 39.6247 99.6168 39.483 100.229 39.483ZM111.773 45.722C111.965 45.722 112.118 45.7957 112.232 45.943C112.356 46.0903 112.419 46.2887 112.419 46.538C112.419 46.8893 112.209 47.184 111.79 47.422C111.404 47.6373 110.968 47.813 110.481 47.949C109.993 48.0737 109.529 48.136 109.087 48.136C107.749 48.136 106.69 47.7507 105.908 46.98C105.126 46.2093 104.735 45.1553 104.735 43.818C104.735 42.968 104.905 42.2143 105.245 41.557C105.585 40.8997 106.061 40.3897 106.673 40.027C107.296 39.6643 107.999 39.483 108.781 39.483C109.529 39.483 110.18 39.6473 110.736 39.976C111.291 40.3047 111.722 40.7693 112.028 41.37C112.334 41.9707 112.487 42.679 112.487 43.495C112.487 43.9823 112.271 44.226 111.841 44.226H106.826C106.894 45.008 107.115 45.586 107.489 45.96C107.863 46.3227 108.407 46.504 109.121 46.504C109.483 46.504 109.801 46.4587 110.073 46.368C110.356 46.2773 110.673 46.1527 111.025 45.994C111.365 45.8127 111.614 45.722 111.773 45.722ZM108.832 40.979C108.254 40.979 107.789 41.1603 107.438 41.523C107.098 41.8857 106.894 42.407 106.826 43.087H110.668C110.645 42.3957 110.475 41.8743 110.158 41.523C109.84 41.1603 109.398 40.979 108.832 40.979Z" fill="#5A5A5A"/>
<path d="M239.496 48.102C239.168 48.102 238.901 48.0057 238.697 47.813C238.505 47.609 238.408 47.337 238.408 46.997V37.052C238.408 36.7233 238.499 36.4683 238.68 36.287C238.873 36.1057 239.134 36.015 239.462 36.015H243.644C244.925 36.015 245.922 36.338 246.636 36.984C247.35 37.6187 247.707 38.514 247.707 39.67C247.707 40.826 247.35 41.727 246.636 42.373C245.922 43.019 244.925 43.342 243.644 43.342H240.601V46.997C240.601 47.337 240.499 47.609 240.295 47.813C240.103 48.0057 239.836 48.102 239.496 48.102ZM243.372 41.659C244.88 41.659 245.633 41.0017 245.633 39.687C245.633 38.3723 244.88 37.715 243.372 37.715H240.601V41.659H243.372ZM252.832 39.483C253.988 39.483 254.844 39.772 255.399 40.35C255.966 40.9167 256.249 41.7837 256.249 42.951V47.099C256.249 47.405 256.159 47.6487 255.977 47.83C255.796 48 255.547 48.085 255.229 48.085C254.935 48.085 254.691 47.9943 254.498 47.813C254.317 47.6317 254.226 47.3937 254.226 47.099V46.725C254.034 47.167 253.728 47.5127 253.308 47.762C252.9 48.0113 252.424 48.136 251.88 48.136C251.325 48.136 250.821 48.0227 250.367 47.796C249.914 47.5693 249.557 47.2577 249.296 46.861C249.036 46.4643 248.905 46.0223 248.905 45.535C248.905 44.923 249.058 44.4413 249.364 44.09C249.682 43.7387 250.192 43.4837 250.894 43.325C251.597 43.1663 252.566 43.087 253.801 43.087H254.226V42.696C254.226 42.1407 254.107 41.7383 253.869 41.489C253.631 41.2283 253.246 41.098 252.713 41.098C252.385 41.098 252.05 41.149 251.71 41.251C251.37 41.3417 250.968 41.4777 250.503 41.659C250.209 41.8063 249.993 41.88 249.857 41.88C249.653 41.88 249.483 41.8063 249.347 41.659C249.223 41.5117 249.16 41.319 249.16 41.081C249.16 40.8883 249.206 40.724 249.296 40.588C249.398 40.4407 249.563 40.3047 249.789 40.18C250.186 39.9647 250.656 39.7947 251.2 39.67C251.756 39.5453 252.3 39.483 252.832 39.483ZM252.305 46.606C252.872 46.606 253.331 46.419 253.682 46.045C254.045 45.6597 254.226 45.1667 254.226 44.566V44.209H253.92C253.161 44.209 252.572 44.243 252.152 44.311C251.733 44.379 251.433 44.498 251.251 44.668C251.07 44.838 250.979 45.0703 250.979 45.365C250.979 45.7277 251.104 46.028 251.353 46.266C251.614 46.4927 251.931 46.606 252.305 46.606ZM263.237 39.483C264.234 39.483 264.977 39.7663 265.464 40.333C265.951 40.8997 266.195 41.7553 266.195 42.9V47.082C266.195 47.3993 266.099 47.6487 265.906 47.83C265.725 48.0113 265.47 48.102 265.141 48.102C264.812 48.102 264.552 48.0113 264.359 47.83C264.166 47.6487 264.07 47.3993 264.07 47.082V43.019C264.07 42.373 263.945 41.9027 263.696 41.608C263.458 41.3133 263.078 41.166 262.557 41.166C261.945 41.166 261.452 41.3587 261.078 41.744C260.715 42.1293 260.534 42.645 260.534 43.291V47.082C260.534 47.3993 260.438 47.6487 260.245 47.83C260.052 48.0113 259.792 48.102 259.463 48.102C259.134 48.102 258.874 48.0113 258.681 47.83C258.5 47.6487 258.409 47.3993 258.409 47.082V40.503C258.409 40.2083 258.505 39.9703 258.698 39.789C258.891 39.6077 259.151 39.517 259.48 39.517C259.775 39.517 260.013 39.6077 260.194 39.789C260.387 39.959 260.483 40.1857 260.483 40.469V40.928C260.766 40.4633 261.146 40.1063 261.622 39.857C262.098 39.6077 262.636 39.483 263.237 39.483ZM272.671 46.521C273.238 46.555 273.521 46.81 273.521 47.286C273.521 47.558 273.408 47.7677 273.181 47.915C272.966 48.051 272.654 48.1077 272.246 48.085L271.787 48.051C269.883 47.915 268.931 46.895 268.931 44.991V41.285H268.081C267.775 41.285 267.537 41.217 267.367 41.081C267.209 40.945 267.129 40.7467 267.129 40.486C267.129 40.2253 267.209 40.027 267.367 39.891C267.537 39.755 267.775 39.687 268.081 39.687H268.931V38.123C268.931 37.817 269.028 37.5733 269.22 37.392C269.413 37.2107 269.674 37.12 270.002 37.12C270.32 37.12 270.575 37.2107 270.767 37.392C270.96 37.5733 271.056 37.817 271.056 38.123V39.687H272.501C272.807 39.687 273.04 39.755 273.198 39.891C273.368 40.027 273.453 40.2253 273.453 40.486C273.453 40.7467 273.368 40.945 273.198 41.081C273.04 41.217 272.807 41.285 272.501 41.285H271.056V45.144C271.056 45.9827 271.442 46.4303 272.212 46.487L272.671 46.521ZM279.27 39.517C279.564 39.4943 279.797 39.5567 279.967 39.704C280.137 39.8513 280.222 40.0723 280.222 40.367C280.222 40.673 280.148 40.8997 280.001 41.047C279.853 41.1943 279.587 41.2907 279.202 41.336L278.692 41.387C278.023 41.455 277.53 41.6817 277.213 42.067C276.907 42.4523 276.754 42.934 276.754 43.512V47.082C276.754 47.4107 276.652 47.6657 276.448 47.847C276.244 48.017 275.989 48.102 275.683 48.102C275.377 48.102 275.122 48.017 274.918 47.847C274.725 47.6657 274.629 47.4107 274.629 47.082V40.503C274.629 40.1857 274.725 39.942 274.918 39.772C275.122 39.602 275.371 39.517 275.666 39.517C275.96 39.517 276.198 39.602 276.38 39.772C276.561 39.9307 276.652 40.163 276.652 40.469V41.149C276.867 40.6503 277.184 40.265 277.604 39.993C278.034 39.721 278.51 39.568 279.032 39.534L279.27 39.517ZM287.448 40.129C287.539 39.925 287.658 39.7777 287.805 39.687C287.964 39.585 288.134 39.534 288.315 39.534C288.576 39.534 288.808 39.6247 289.012 39.806C289.228 39.976 289.335 40.1913 289.335 40.452C289.335 40.5767 289.301 40.707 289.233 40.843L284.592 50.567C284.4 50.9523 284.099 51.145 283.691 51.145C283.431 51.145 283.198 51.06 282.994 50.89C282.802 50.7313 282.705 50.5273 282.705 50.278C282.705 50.1533 282.739 50.0117 282.807 49.853L283.963 47.422L280.801 40.843C280.745 40.7297 280.716 40.5993 280.716 40.452C280.716 40.1913 280.824 39.9703 281.039 39.789C281.266 39.6077 281.521 39.517 281.804 39.517C281.997 39.517 282.173 39.568 282.331 39.67C282.49 39.7607 282.615 39.908 282.705 40.112L285.085 45.365L287.448 40.129Z" fill="#5A5A5A"/>
<path d="M412.659 46.623C412.795 46.827 412.863 47.0253 412.863 47.218C412.863 47.4787 412.755 47.694 412.54 47.864C412.336 48.034 412.092 48.119 411.809 48.119C411.628 48.119 411.452 48.0793 411.282 48C411.123 47.9093 410.987 47.779 410.874 47.609L408.613 44.175C408.386 43.8123 408.143 43.5573 407.882 43.41C407.633 43.2627 407.304 43.189 406.896 43.189H405.23V46.997C405.23 47.337 405.134 47.609 404.941 47.813C404.748 48.0057 404.488 48.102 404.159 48.102C403.83 48.102 403.564 48.0057 403.36 47.813C403.167 47.609 403.071 47.337 403.071 46.997V37.052C403.071 36.7233 403.162 36.4683 403.343 36.287C403.536 36.1057 403.796 36.015 404.125 36.015H408.375C409.735 36.015 410.766 36.321 411.469 36.933C412.183 37.5337 412.54 38.4063 412.54 39.551C412.54 40.4803 412.274 41.2453 411.741 41.846C411.22 42.4353 410.477 42.815 409.514 42.985C409.843 43.0643 410.132 43.206 410.381 43.41C410.63 43.614 410.874 43.8973 411.112 44.26L412.659 46.623ZM408.069 41.506C408.896 41.506 409.503 41.353 409.888 41.047C410.273 40.7297 410.466 40.248 410.466 39.602C410.466 38.9447 410.273 38.4687 409.888 38.174C409.503 37.868 408.896 37.715 408.069 37.715H405.213V41.506H408.069ZM421.283 45.722C421.476 45.722 421.629 45.7957 421.742 45.943C421.867 46.0903 421.929 46.2887 421.929 46.538C421.929 46.8893 421.72 47.184 421.3 47.422C420.915 47.6373 420.479 47.813 419.991 47.949C419.504 48.0737 419.039 48.136 418.597 48.136C417.26 48.136 416.2 47.7507 415.418 46.98C414.636 46.2093 414.245 45.1553 414.245 43.818C414.245 42.968 414.415 42.2143 414.755 41.557C415.095 40.8997 415.571 40.3897 416.183 40.027C416.807 39.6643 417.509 39.483 418.291 39.483C419.039 39.483 419.691 39.6473 420.246 39.976C420.802 40.3047 421.232 40.7693 421.538 41.37C421.844 41.9707 421.997 42.679 421.997 43.495C421.997 43.9823 421.782 44.226 421.351 44.226H416.336C416.404 45.008 416.625 45.586 416.999 45.96C417.373 46.3227 417.917 46.504 418.631 46.504C418.994 46.504 419.311 46.4587 419.583 46.368C419.867 46.2773 420.184 46.1527 420.535 45.994C420.875 45.8127 421.125 45.722 421.283 45.722ZM418.342 40.979C417.764 40.979 417.3 41.1603 416.948 41.523C416.608 41.8857 416.404 42.407 416.336 43.087H420.178C420.156 42.3957 419.986 41.8743 419.668 41.523C419.351 41.1603 418.909 40.979 418.342 40.979ZM427.425 48.136C426.597 48.136 425.866 47.9603 425.232 47.609C424.608 47.2577 424.127 46.759 423.787 46.113C423.447 45.467 423.277 44.7133 423.277 43.852C423.277 42.9907 423.452 42.2313 423.804 41.574C424.166 40.9053 424.671 40.3897 425.317 40.027C425.963 39.6643 426.705 39.483 427.544 39.483C427.986 39.483 428.428 39.5453 428.87 39.67C429.323 39.7947 429.72 39.9647 430.06 40.18C430.422 40.418 430.604 40.7183 430.604 41.081C430.604 41.3303 430.541 41.5343 430.417 41.693C430.303 41.8403 430.15 41.914 429.958 41.914C429.833 41.914 429.703 41.8857 429.567 41.829C429.431 41.7723 429.295 41.7043 429.159 41.625C428.909 41.4777 428.671 41.3643 428.445 41.285C428.218 41.1943 427.957 41.149 427.663 41.149C426.96 41.149 426.416 41.3813 426.031 41.846C425.657 42.2993 425.47 42.9567 425.47 43.818C425.47 44.668 425.657 45.3253 426.031 45.79C426.416 46.2433 426.96 46.47 427.663 46.47C427.946 46.47 428.195 46.4303 428.411 46.351C428.637 46.2603 428.887 46.1413 429.159 45.994C429.329 45.892 429.476 45.8183 429.601 45.773C429.725 45.7163 429.85 45.688 429.975 45.688C430.156 45.688 430.309 45.7673 430.434 45.926C430.558 46.0847 430.621 46.283 430.621 46.521C430.621 46.7137 430.575 46.8837 430.485 47.031C430.405 47.167 430.269 47.2917 430.077 47.405C429.725 47.6317 429.317 47.813 428.853 47.949C428.388 48.0737 427.912 48.136 427.425 48.136ZM433.09 48.102C432.784 48.102 432.529 48.017 432.325 47.847C432.133 47.6657 432.036 47.4107 432.036 47.082V40.52C432.036 40.1913 432.133 39.942 432.325 39.772C432.529 39.602 432.784 39.517 433.09 39.517C433.396 39.517 433.651 39.602 433.855 39.772C434.059 39.942 434.161 40.1913 434.161 40.52V47.082C434.161 47.4107 434.059 47.6657 433.855 47.847C433.651 48.017 433.396 48.102 433.09 48.102ZM433.09 38.004C432.705 38.004 432.399 37.902 432.172 37.698C431.946 37.4827 431.832 37.205 431.832 36.865C431.832 36.525 431.946 36.253 432.172 36.049C432.399 35.845 432.705 35.743 433.09 35.743C433.464 35.743 433.765 35.845 433.991 36.049C434.229 36.253 434.348 36.525 434.348 36.865C434.348 37.205 434.235 37.4827 434.008 37.698C433.782 37.902 433.476 38.004 433.09 38.004ZM441.13 39.483C441.844 39.483 442.479 39.6643 443.034 40.027C443.601 40.3897 444.037 40.9053 444.343 41.574C444.66 42.2313 444.819 42.9907 444.819 43.852C444.819 44.7133 444.66 45.467 444.343 46.113C444.037 46.759 443.606 47.2577 443.051 47.609C442.496 47.9603 441.855 48.136 441.13 48.136C440.541 48.136 440.014 48.0113 439.549 47.762C439.084 47.5127 438.727 47.167 438.478 46.725V50.193C438.478 50.4877 438.382 50.72 438.189 50.89C437.996 51.06 437.741 51.145 437.424 51.145C437.107 51.145 436.846 51.0543 436.642 50.873C436.449 50.6917 436.353 50.4537 436.353 50.159V40.52C436.353 40.214 436.444 39.9703 436.625 39.789C436.818 39.6077 437.073 39.517 437.39 39.517C437.707 39.517 437.962 39.6077 438.155 39.789C438.348 39.9703 438.444 40.214 438.444 40.52V40.945C438.693 40.4803 439.05 40.1233 439.515 39.874C439.991 39.6133 440.529 39.483 441.13 39.483ZM440.569 46.487C441.238 46.487 441.759 46.2603 442.133 45.807C442.507 45.3423 442.694 44.6907 442.694 43.852C442.694 42.9907 442.507 42.322 442.133 41.846C441.759 41.37 441.238 41.132 440.569 41.132C439.889 41.132 439.362 41.3643 438.988 41.829C438.625 42.2937 438.444 42.9567 438.444 43.818C438.444 44.668 438.625 45.3253 438.988 45.79C439.362 46.2547 439.889 46.487 440.569 46.487ZM453.142 45.722C453.335 45.722 453.488 45.7957 453.601 45.943C453.726 46.0903 453.788 46.2887 453.788 46.538C453.788 46.8893 453.578 47.184 453.159 47.422C452.774 47.6373 452.337 47.813 451.85 47.949C451.363 48.0737 450.898 48.136 450.456 48.136C449.119 48.136 448.059 47.7507 447.277 46.98C446.495 46.2093 446.104 45.1553 446.104 43.818C446.104 42.968 446.274 42.2143 446.614 41.557C446.954 40.8997 447.43 40.3897 448.042 40.027C448.665 39.6643 449.368 39.483 450.15 39.483C450.898 39.483 451.55 39.6473 452.105 39.976C452.66 40.3047 453.091 40.7693 453.397 41.37C453.703 41.9707 453.856 42.679 453.856 43.495C453.856 43.9823 453.641 44.226 453.21 44.226H448.195C448.263 45.008 448.484 45.586 448.858 45.96C449.232 46.3227 449.776 46.504 450.49 46.504C450.853 46.504 451.17 46.4587 451.442 46.368C451.725 46.2773 452.043 46.1527 452.394 45.994C452.734 45.8127 452.983 45.722 453.142 45.722ZM450.201 40.979C449.623 40.979 449.158 41.1603 448.807 41.523C448.467 41.8857 448.263 42.407 448.195 43.087H452.037C452.014 42.3957 451.844 41.8743 451.527 41.523C451.21 41.1603 450.768 40.979 450.201 40.979ZM458.603 48.136C457.368 48.136 456.37 47.8923 455.611 47.405C455.248 47.1897 455.067 46.8837 455.067 46.487C455.067 46.2603 455.129 46.079 455.254 45.943C455.379 45.7957 455.532 45.722 455.713 45.722C455.906 45.722 456.172 45.8127 456.512 45.994C456.875 46.164 457.203 46.2943 457.498 46.385C457.804 46.4757 458.189 46.521 458.654 46.521C459.13 46.521 459.498 46.4417 459.759 46.283C460.031 46.1243 460.167 45.9033 460.167 45.62C460.167 45.4273 460.11 45.2743 459.997 45.161C459.895 45.0477 459.702 44.9457 459.419 44.855C459.147 44.753 458.728 44.6397 458.161 44.515C457.152 44.311 456.427 44.022 455.985 43.648C455.554 43.274 455.339 42.7583 455.339 42.101C455.339 41.6023 455.486 41.1547 455.781 40.758C456.076 40.35 456.478 40.0383 456.988 39.823C457.509 39.5963 458.099 39.483 458.756 39.483C459.232 39.483 459.691 39.5453 460.133 39.67C460.575 39.7833 460.972 39.9533 461.323 40.18C461.686 40.4067 461.867 40.707 461.867 41.081C461.867 41.3077 461.805 41.5003 461.68 41.659C461.555 41.8063 461.402 41.88 461.221 41.88C461.096 41.88 460.972 41.8573 460.847 41.812C460.734 41.7553 460.586 41.676 460.405 41.574C460.076 41.404 459.793 41.2793 459.555 41.2C459.317 41.1093 459.022 41.064 458.671 41.064C458.252 41.064 457.917 41.149 457.668 41.319C457.43 41.489 457.311 41.7213 457.311 42.016C457.311 42.2993 457.436 42.5147 457.685 42.662C457.934 42.8093 458.416 42.9567 459.13 43.104C459.889 43.2627 460.484 43.444 460.915 43.648C461.346 43.852 461.652 44.107 461.833 44.413C462.026 44.719 462.122 45.11 462.122 45.586C462.122 46.3567 461.799 46.9743 461.153 47.439C460.518 47.9037 459.668 48.136 458.603 48.136Z" fill="#5A5A5A"/>
<path d="M570.612 48.153C569.739 48.153 568.912 48.0397 568.13 47.813C567.359 47.575 566.73 47.2577 566.243 46.861C565.982 46.6683 565.852 46.3963 565.852 46.045C565.852 45.807 565.92 45.603 566.056 45.433C566.203 45.2517 566.373 45.161 566.566 45.161C566.77 45.161 567.002 45.2403 567.263 45.399C567.75 45.7503 568.26 46.0053 568.793 46.164C569.325 46.3227 569.915 46.402 570.561 46.402C571.388 46.402 572.023 46.2603 572.465 45.977C572.907 45.6823 573.128 45.2573 573.128 44.702C573.128 44.2713 572.918 43.9427 572.499 43.716C572.091 43.478 571.405 43.2513 570.442 43.036C569.444 42.8207 568.634 42.5713 568.011 42.288C567.387 42.0047 566.917 41.642 566.6 41.2C566.282 40.758 566.124 40.197 566.124 39.517C566.124 38.8143 566.322 38.1853 566.719 37.63C567.115 37.0747 567.665 36.644 568.368 36.338C569.082 36.0207 569.881 35.862 570.765 35.862C572.385 35.862 573.706 36.2927 574.726 37.154C574.873 37.2787 574.975 37.4033 575.032 37.528C575.1 37.6413 575.134 37.7887 575.134 37.97C575.134 38.208 575.06 38.4177 574.913 38.599C574.777 38.769 574.612 38.854 574.42 38.854C574.306 38.854 574.199 38.837 574.097 38.803C574.006 38.769 573.881 38.7067 573.723 38.616C573.258 38.276 572.805 38.0267 572.363 37.868C571.932 37.698 571.399 37.613 570.765 37.613C569.994 37.613 569.382 37.7717 568.929 38.089C568.487 38.395 568.266 38.8257 568.266 39.381C568.266 39.8457 568.464 40.2027 568.861 40.452C569.257 40.7013 569.932 40.9337 570.884 41.149C571.892 41.3757 572.708 41.6307 573.332 41.914C573.966 42.186 574.448 42.5373 574.777 42.968C575.117 43.3987 575.287 43.937 575.287 44.583C575.287 45.2857 575.088 45.909 574.692 46.453C574.306 46.9857 573.757 47.405 573.043 47.711C572.34 48.0057 571.53 48.153 570.612 48.153ZM581.319 46.521C581.886 46.555 582.169 46.81 582.169 47.286C582.169 47.558 582.056 47.7677 581.829 47.915C581.614 48.051 581.302 48.1077 580.894 48.085L580.435 48.051C578.531 47.915 577.579 46.895 577.579 44.991V41.285H576.729C576.423 41.285 576.185 41.217 576.015 41.081C575.857 40.945 575.777 40.7467 575.777 40.486C575.777 40.2253 575.857 40.027 576.015 39.891C576.185 39.755 576.423 39.687 576.729 39.687H577.579V38.123C577.579 37.817 577.676 37.5733 577.868 37.392C578.061 37.2107 578.322 37.12 578.65 37.12C578.968 37.12 579.223 37.2107 579.415 37.392C579.608 37.5733 579.704 37.817 579.704 38.123V39.687H581.149C581.455 39.687 581.688 39.755 581.846 39.891C582.016 40.027 582.101 40.2253 582.101 40.486C582.101 40.7467 582.016 40.945 581.846 41.081C581.688 41.217 581.455 41.285 581.149 41.285H579.704V45.144C579.704 45.9827 580.09 46.4303 580.86 46.487L581.319 46.521ZM586.881 39.483C588.037 39.483 588.892 39.772 589.448 40.35C590.014 40.9167 590.298 41.7837 590.298 42.951V47.099C590.298 47.405 590.207 47.6487 590.026 47.83C589.844 48 589.595 48.085 589.278 48.085C588.983 48.085 588.739 47.9943 588.547 47.813C588.365 47.6317 588.275 47.3937 588.275 47.099V46.725C588.082 47.167 587.776 47.5127 587.357 47.762C586.949 48.0113 586.473 48.136 585.929 48.136C585.373 48.136 584.869 48.0227 584.416 47.796C583.962 47.5693 583.605 47.2577 583.345 46.861C583.084 46.4643 582.954 46.0223 582.954 45.535C582.954 44.923 583.107 44.4413 583.413 44.09C583.73 43.7387 584.24 43.4837 584.943 43.325C585.645 43.1663 586.614 43.087 587.85 43.087H588.275V42.696C588.275 42.1407 588.156 41.7383 587.918 41.489C587.68 41.2283 587.294 41.098 586.762 41.098C586.433 41.098 586.099 41.149 585.759 41.251C585.419 41.3417 585.016 41.4777 584.552 41.659C584.257 41.8063 584.042 41.88 583.906 41.88C583.702 41.88 583.532 41.8063 583.396 41.659C583.271 41.5117 583.209 41.319 583.209 41.081C583.209 40.8883 583.254 40.724 583.345 40.588C583.447 40.4407 583.611 40.3047 583.838 40.18C584.234 39.9647 584.705 39.7947 585.249 39.67C585.804 39.5453 586.348 39.483 586.881 39.483ZM586.354 46.606C586.92 46.606 587.379 46.419 587.731 46.045C588.093 45.6597 588.275 45.1667 588.275 44.566V44.209H587.969C587.209 44.209 586.62 44.243 586.201 44.311C585.781 44.379 585.481 44.498 585.3 44.668C585.118 44.838 585.028 45.0703 585.028 45.365C585.028 45.7277 585.152 46.028 585.402 46.266C585.662 46.4927 585.98 46.606 586.354 46.606ZM596.775 46.521C597.342 46.555 597.625 46.81 597.625 47.286C597.625 47.558 597.512 47.7677 597.285 47.915C597.07 48.051 596.758 48.1077 596.35 48.085L595.891 48.051C593.987 47.915 593.035 46.895 593.035 44.991V41.285H592.185C591.879 41.285 591.641 41.217 591.471 41.081C591.313 40.945 591.233 40.7467 591.233 40.486C591.233 40.2253 591.313 40.027 591.471 39.891C591.641 39.755 591.879 39.687 592.185 39.687H593.035V38.123C593.035 37.817 593.132 37.5733 593.324 37.392C593.517 37.2107 593.778 37.12 594.106 37.12C594.424 37.12 594.679 37.2107 594.871 37.392C595.064 37.5733 595.16 37.817 595.16 38.123V39.687H596.605C596.911 39.687 597.144 39.755 597.302 39.891C597.472 40.027 597.557 40.2253 597.557 40.486C597.557 40.7467 597.472 40.945 597.302 41.081C597.144 41.217 596.911 41.285 596.605 41.285H595.16V45.144C595.16 45.9827 595.546 46.4303 596.316 46.487L596.775 46.521ZM599.787 48.102C599.481 48.102 599.226 48.017 599.022 47.847C598.829 47.6657 598.733 47.4107 598.733 47.082V40.52C598.733 40.1913 598.829 39.942 599.022 39.772C599.226 39.602 599.481 39.517 599.787 39.517C600.093 39.517 600.348 39.602 600.552 39.772C600.756 39.942 600.858 40.1913 600.858 40.52V47.082C600.858 47.4107 600.756 47.6657 600.552 47.847C600.348 48.017 600.093 48.102 599.787 48.102ZM599.787 38.004C599.401 38.004 599.095 37.902 598.869 37.698C598.642 37.4827 598.529 37.205 598.529 36.865C598.529 36.525 598.642 36.253 598.869 36.049C599.095 35.845 599.401 35.743 599.787 35.743C600.161 35.743 600.461 35.845 600.688 36.049C600.926 36.253 601.045 36.525 601.045 36.865C601.045 37.205 600.931 37.4827 600.705 37.698C600.478 37.902 600.172 38.004 599.787 38.004ZM606.058 48.136C604.823 48.136 603.826 47.8923 603.066 47.405C602.704 47.1897 602.522 46.8837 602.522 46.487C602.522 46.2603 602.585 46.079 602.709 45.943C602.834 45.7957 602.987 45.722 603.168 45.722C603.361 45.722 603.627 45.8127 603.967 45.994C604.33 46.164 604.659 46.2943 604.953 46.385C605.259 46.4757 605.645 46.521 606.109 46.521C606.585 46.521 606.954 46.4417 607.214 46.283C607.486 46.1243 607.622 45.9033 607.622 45.62C607.622 45.4273 607.566 45.2743 607.452 45.161C607.35 45.0477 607.158 44.9457 606.874 44.855C606.602 44.753 606.183 44.6397 605.616 44.515C604.608 44.311 603.882 44.022 603.44 43.648C603.01 43.274 602.794 42.7583 602.794 42.101C602.794 41.6023 602.942 41.1547 603.236 40.758C603.531 40.35 603.933 40.0383 604.443 39.823C604.965 39.5963 605.554 39.483 606.211 39.483C606.687 39.483 607.146 39.5453 607.588 39.67C608.03 39.7833 608.427 39.9533 608.778 40.18C609.141 40.4067 609.322 40.707 609.322 41.081C609.322 41.3077 609.26 41.5003 609.135 41.659C609.011 41.8063 608.858 41.88 608.676 41.88C608.552 41.88 608.427 41.8573 608.302 41.812C608.189 41.7553 608.042 41.676 607.86 41.574C607.532 41.404 607.248 41.2793 607.01 41.2C606.772 41.1093 606.478 41.064 606.126 41.064C605.707 41.064 605.373 41.149 605.123 41.319C604.885 41.489 604.766 41.7213 604.766 42.016C604.766 42.2993 604.891 42.5147 605.14 42.662C605.39 42.8093 605.871 42.9567 606.585 43.104C607.345 43.2627 607.94 43.444 608.37 43.648C608.801 43.852 609.107 44.107 609.288 44.413C609.481 44.719 609.577 45.11 609.577 45.586C609.577 46.3567 609.254 46.9743 608.608 47.439C607.974 47.9037 607.124 48.136 606.058 48.136ZM615.535 46.521C616.102 46.555 616.385 46.81 616.385 47.286C616.385 47.558 616.272 47.7677 616.045 47.915C615.83 48.051 615.518 48.1077 615.11 48.085L614.651 48.051C612.747 47.915 611.795 46.895 611.795 44.991V41.285H610.945C610.639 41.285 610.401 41.217 610.231 41.081C610.072 40.945 609.993 40.7467 609.993 40.486C609.993 40.2253 610.072 40.027 610.231 39.891C610.401 39.755 610.639 39.687 610.945 39.687H611.795V38.123C611.795 37.817 611.891 37.5733 612.084 37.392C612.277 37.2107 612.537 37.12 612.866 37.12C613.183 37.12 613.438 37.2107 613.631 37.392C613.824 37.5733 613.92 37.817 613.92 38.123V39.687H615.365C615.671 39.687 615.903 39.755 616.062 39.891C616.232 40.027 616.317 40.2253 616.317 40.486C616.317 40.7467 616.232 40.945 616.062 41.081C615.903 41.217 615.671 41.285 615.365 41.285H613.92V45.144C613.92 45.9827 614.305 46.4303 615.076 46.487L615.535 46.521ZM618.547 48.102C618.241 48.102 617.986 48.017 617.782 47.847C617.589 47.6657 617.493 47.4107 617.493 47.082V40.52C617.493 40.1913 617.589 39.942 617.782 39.772C617.986 39.602 618.241 39.517 618.547 39.517C618.853 39.517 619.108 39.602 619.312 39.772C619.516 39.942 619.618 40.1913 619.618 40.52V47.082C619.618 47.4107 619.516 47.6657 619.312 47.847C619.108 48.017 618.853 48.102 618.547 48.102ZM618.547 38.004C618.161 38.004 617.855 37.902 617.629 37.698C617.402 37.4827 617.289 37.205 617.289 36.865C617.289 36.525 617.402 36.253 617.629 36.049C617.855 35.845 618.161 35.743 618.547 35.743C618.921 35.743 619.221 35.845 619.448 36.049C619.686 36.253 619.805 36.525 619.805 36.865C619.805 37.205 619.691 37.4827 619.465 37.698C619.238 37.902 618.932 38.004 618.547 38.004ZM625.498 48.136C624.671 48.136 623.94 47.9603 623.305 47.609C622.682 47.2577 622.2 46.759 621.86 46.113C621.52 45.467 621.35 44.7133 621.35 43.852C621.35 42.9907 621.526 42.2313 621.877 41.574C622.24 40.9053 622.744 40.3897 623.39 40.027C624.036 39.6643 624.778 39.483 625.617 39.483C626.059 39.483 626.501 39.5453 626.943 39.67C627.396 39.7947 627.793 39.9647 628.133 40.18C628.496 40.418 628.677 40.7183 628.677 41.081C628.677 41.3303 628.615 41.5343 628.49 41.693C628.377 41.8403 628.224 41.914 628.031 41.914C627.906 41.914 627.776 41.8857 627.64 41.829C627.504 41.7723 627.368 41.7043 627.232 41.625C626.983 41.4777 626.745 41.3643 626.518 41.285C626.291 41.1943 626.031 41.149 625.736 41.149C625.033 41.149 624.489 41.3813 624.104 41.846C623.73 42.2993 623.543 42.9567 623.543 43.818C623.543 44.668 623.73 45.3253 624.104 45.79C624.489 46.2433 625.033 46.47 625.736 46.47C626.019 46.47 626.269 46.4303 626.484 46.351C626.711 46.2603 626.96 46.1413 627.232 45.994C627.402 45.892 627.549 45.8183 627.674 45.773C627.799 45.7163 627.923 45.688 628.048 45.688C628.229 45.688 628.382 45.7673 628.507 45.926C628.632 46.0847 628.694 46.283 628.694 46.521C628.694 46.7137 628.649 46.8837 628.558 47.031C628.479 47.167 628.343 47.2917 628.15 47.405C627.799 47.6317 627.391 47.813 626.926 47.949C626.461 48.0737 625.985 48.136 625.498 48.136ZM633.119 48.136C631.883 48.136 630.886 47.8923 630.127 47.405C629.764 47.1897 629.583 46.8837 629.583 46.487C629.583 46.2603 629.645 46.079 629.77 45.943C629.894 45.7957 630.047 45.722 630.229 45.722C630.421 45.722 630.688 45.8127 631.028 45.994C631.39 46.164 631.719 46.2943 632.014 46.385C632.32 46.4757 632.705 46.521 633.17 46.521C633.646 46.521 634.014 46.4417 634.275 46.283C634.547 46.1243 634.683 45.9033 634.683 45.62C634.683 45.4273 634.626 45.2743 634.513 45.161C634.411 45.0477 634.218 44.9457 633.935 44.855C633.663 44.753 633.243 44.6397 632.677 44.515C631.668 44.311 630.943 44.022 630.501 43.648C630.07 43.274 629.855 42.7583 629.855 42.101C629.855 41.6023 630.002 41.1547 630.297 40.758C630.591 40.35 630.994 40.0383 631.504 39.823C632.025 39.5963 632.614 39.483 633.272 39.483C633.748 39.483 634.207 39.5453 634.649 39.67C635.091 39.7833 635.487 39.9533 635.839 40.18C636.201 40.4067 636.383 40.707 636.383 41.081C636.383 41.3077 636.32 41.5003 636.196 41.659C636.071 41.8063 635.918 41.88 635.737 41.88C635.612 41.88 635.487 41.8573 635.363 41.812C635.249 41.7553 635.102 41.676 634.921 41.574C634.592 41.404 634.309 41.2793 634.071 41.2C633.833 41.1093 633.538 41.064 633.187 41.064C632.767 41.064 632.433 41.149 632.184 41.319C631.946 41.489 631.827 41.7213 631.827 42.016C631.827 42.2993 631.951 42.5147 632.201 42.662C632.45 42.8093 632.932 42.9567 633.646 43.104C634.405 43.2627 635 43.444 635.431 43.648C635.861 43.852 636.167 44.107 636.349 44.413C636.541 44.719 636.638 45.11 636.638 45.586C636.638 46.3567 636.315 46.9743 635.669 47.439C635.034 47.9037 634.184 48.136 633.119 48.136Z" fill="#5A5A5A"/>
</svg>
