<svg width="512" height="512" viewBox="0 0 512 512" fill="none" xmlns="http://www.w3.org/2000/svg">
<g clip-path="url(#clip0_195_578)">
<path d="M210.401 330V353.3H301.501V330C328.601 367.8 386.301 374.9 432.301 385.2C434.601 385.7 436.801 386.4 438.901 387.1C459.701 353.9 471.701 314.8 471.701 272.8C471.701 153.6 375.101 57 256.001 57C136.901 57 40.3008 153.6 40.3008 272.8C40.3008 314.8 52.3008 354 73.1008 387.1C75.2008 386.3 77.4008 385.7 79.7008 385.2C125.701 374.9 183.401 367.8 210.401 330Z" fill="#1F0061"/>
<g clip-path="url(#clip1_195_578)">
<path d="M210.731 329.917V353.21H302.169V329.917C329.369 367.706 387.283 374.804 433.454 385.101C435.762 385.6 437.971 386.3 440.078 387C460.955 353.81 473 314.722 473 272.735C473 153.571 376.042 57 256.5 57C136.958 57 40 153.571 40 272.735C40 314.722 52.0445 353.91 72.9216 387C75.0294 386.2 77.2376 385.6 79.5461 385.101C125.717 374.804 183.631 367.706 210.731 329.917V329.917Z" fill="url(#paint0_linear_195_578)"/>
<circle cx="61.7554" cy="276.755" r="0.755365" fill="white" fill-opacity="0.4"/>
<circle cx="61.7554" cy="276.755" r="0.755365" fill="white" fill-opacity="0.4"/>
<circle cx="93.7554" cy="208.755" r="0.755365" fill="white" fill-opacity="0.4"/>
<circle cx="92.7554" cy="160.755" r="0.755365" fill="white" fill-opacity="0.4"/>
<circle cx="154.769" cy="149.781" r="0.755365" fill="#6BD5E1"/>
<circle cx="266.562" cy="214.743" r="0.755365" fill="#6BD5E1"/>
<circle cx="394.246" cy="133.178" r="0.755365" fill="#6BD5E1"/>
<circle cx="447.068" cy="317.068" r="0.755365" transform="rotate(45 447.068 317.068)" fill="#6BD5E1"/>
<circle cx="310.375" cy="96.1504" r="0.755365" fill="white" fill-opacity="0.4"/>
<circle cx="265.748" cy="281.342" r="0.755365" fill="white" fill-opacity="0.4"/>
<circle cx="433.244" cy="240.009" r="0.755365" fill="white" fill-opacity="0.4"/>
<circle cx="408.068" cy="373.184" r="0.755365" transform="rotate(45 408.068 373.184)" fill="white" fill-opacity="0.4"/>
<circle cx="314.152" cy="323.138" r="0.755365" fill="#6BD5E1"/>
<circle cx="96.9839" cy="325.026" r="0.755365" fill="#6BD5E1"/>
</g>
<path fill-rule="evenodd" clip-rule="evenodd" d="M203.537 36.0204C220.637 20.1204 312.337 7.92044 349.037 67.8204C385.737 127.72 366.137 113.02 386.937 151.02C407.737 188.92 407.737 193.82 388.137 220.72C368.537 247.62 347.837 268.42 364.937 286.72C382.037 305.02 389.437 314.82 372.237 340.52C355.137 366.22 413.837 395.52 390.537 427.32C367.337 459.12 159.437 468.92 145.937 432.22C132.437 395.52 154.537 369.82 141.037 351.52C127.537 333.12 106.837 314.82 141.037 289.12C160.837 274.22 132.137 260.22 118.337 234.42C102.637 205.12 112.537 168.42 120.237 157.12C138.737 130.22 135.037 28.7204 203.537 36.0204" fill="black"/>
<path d="M301.6 353.3C301.5 353.4 301.4 353.5 301.6 353.3H210.5C210.6 353.5 210.6 353.4 210.5 353.3L231.7 487.1C239.7 488 247.8 488.5 256 488.5C264.2 488.5 272.3 488 280.3 487.1L301.6 353.3Z" fill="url(#paint1_linear_195_578)"/>
<path d="M257.258 339.2C245.234 339.2 228.175 331.7 210.5 318.4V330V353.3C210.808 353.6 211.117 353.9 211.322 354.3C224.065 369.5 240.713 377.5 257.258 377.6V339.2V339.2Z" fill="#BD8D53"/>
<path d="M255.686 377.6C271.997 377.7 288.208 370.1 300.694 354.3C300.996 354 301.298 353.6 301.6 353.3V330V318.4C284.281 331.7 267.567 339.2 255.686 339.2V377.6V377.6Z" fill="#BD8D53"/>
<path d="M256.604 342.345V196.5C233.502 196.5 210.4 211.933 210.4 242.696V321.086C227.929 334.679 244.749 342.345 256.604 342.345Z" fill="url(#paint2_linear_195_578)"/>
<path d="M254.945 196.5V341.187C266.916 341.187 283.901 333.588 301.601 320.112V242.399C301.601 211.8 278.273 196.5 254.945 196.5V196.5Z" fill="url(#paint3_linear_195_578)"/>
<path fill-rule="evenodd" clip-rule="evenodd" d="M323.6 173.7C343.5 196.3 353.4 215.9 345.8 240C338.1 264.2 341.2 282.8 368 298.2C394.7 313.6 385.1 316.6 378.9 344.5C375.1 361.9 389.6 377.7 409.1 377.7C412.8 377.7 389 369 392.1 351.3C397.1 322.8 423.1 307 398.2 280C373.3 253 382 249.2 389.3 232.3C396.6 215.3 376 183.3 350.3 156.5C193.3 -7.40025 303.7 151.1 323.6 173.7Z" fill="black"/>
<path d="M255 342.345V196.5C278.101 196.5 301.203 211.933 301.203 242.696V321.086C283.674 334.679 266.855 342.345 255 342.345Z" fill="url(#paint4_linear_195_578)"/>
<path fill-rule="evenodd" clip-rule="evenodd" d="M190.702 178.9C169.802 200.7 159.102 219.8 165.802 244.3C172.502 268.8 168.602 287.3 141.202 301.5C113.902 315.7 123.402 319.1 128.402 347.3C131.502 364.8 116.302 380 96.8017 379.2C93.1017 379 117.302 371.3 114.902 353.5C111.102 324.8 85.8017 307.9 111.802 282C137.802 256.1 129.302 251.9 122.702 234.7C116.102 217.5 138.002 186.4 164.802 160.6C328.502 3.40002 211.602 157.2 190.702 178.9Z" fill="black"/>
<path d="M256.439 49.1001C176.216 49.1001 138.435 119.4 142.183 180.7C137.523 177.8 132.661 177 128.61 178.7C119.291 182.7 117.265 198.8 124.254 214.8C131.243 230.8 144.411 240.5 153.831 236.5C155.148 235.9 156.262 235.1 157.275 234.1C182.598 284.5 231.42 317.8 256.439 317.8C256.844 317.8 257.35 317.7 257.755 317.7V49.1001C257.35 49.1001 256.945 49.1001 256.439 49.1001V49.1001Z" fill="#BD8D53"/>
<path d="M383.42 178.7C378.574 176.6 372.718 178.3 367.164 182.6C371.809 121.2 334.552 49.9001 254.686 49.1001V317.8C280.231 316.7 328.695 282.9 353.231 232.2C354.543 234.1 356.26 235.6 358.279 236.5C367.568 240.5 380.795 230.7 387.762 214.8C394.628 198.8 392.709 182.6 383.42 178.7V178.7Z" fill="#BD8D53"/>
<path fill-rule="evenodd" clip-rule="evenodd" d="M207.736 77.7205C214.736 111.921 251.036 130.021 285.236 135.121C319.436 140.121 349.636 140.121 330.536 163.321C311.436 186.421 322.436 207.621 340.636 220.721C358.736 233.821 352.736 269.021 336.636 291.121C320.536 313.221 316.536 332.421 335.636 353.521C354.736 374.621 344.736 375.421 328.636 401.621C318.636 417.921 326.236 436.821 344.436 441.121C347.836 441.921 328.936 428.021 338.436 411.221C353.736 384.221 374.936 374.621 361.936 342.421C348.836 310.221 356.936 309.221 369.936 294.121C383.036 279.021 388.036 240.821 371.936 209.621C355.836 178.421 383.036 188.521 379.936 150.221C376.836 111.921 283.236 -28.9795 207.736 77.7205" fill="black"/>
<path fill-rule="evenodd" clip-rule="evenodd" d="M303.401 71.5001C325.901 91.6001 338.001 111.4 333.301 136.3C328.501 161.2 333.901 179.4 362.201 191.4C390.501 203.5 381.301 207.6 378.501 236.1C376.701 253.8 393.101 267.8 412.401 265.4C416.101 265 391.401 259.2 392.401 241.2C394.001 212.3 417.901 193.5 390.001 169.7C362.101 145.8 359.501 138 364.701 120.3C370.001 102.6 356.001 76.7001 327.701 52.8001C293.601 23.7001 281.001 51.4001 303.401 71.5001" fill="black"/>
<path fill-rule="evenodd" clip-rule="evenodd" d="M204.2 71.5001C181.7 91.6001 169.6 111.4 174.3 136.3C179.1 161.2 173.7 179.4 145.4 191.4C117 203.5 126.3 207.6 129.1 236.1C130.8 253.8 114.5 267.8 95.2003 265.4C91.5003 265 116.2 259.2 115.2 241.2C113.6 212.3 89.7003 193.5 117.6 169.7C145.5 145.8 148.1 138 142.9 120.3C137.7 102.6 151.6 76.7001 179.9 52.8001C214 23.7001 226.7 51.4001 204.2 71.5001" fill="black"/>
<path fill-rule="evenodd" clip-rule="evenodd" d="M268.137 48.8205C244.537 62.5205 163.137 141.621 154.037 169.321C144.837 197.021 154.437 219.621 159.937 239.921C140.037 234.921 90.7372 12.8205 268.137 48.8205" fill="black"/>
<path d="M268.501 261.2C268.501 261.2 269.001 269.1 255.501 269.1C251.601 269.1 242.701 267.4 242.701 261.4C250.601 263.4 260.001 263.8 268.501 261.2Z" fill="#D43329"/>
<path d="M260.6 258C263.6 258.4 268.8 261.1 268.5 261.2C260.1 263.8 250.6 263.3 242.7 261.4C242.6 261.4 242.5 261.4 242.5 261.3C245.2 260.2 248.7 257.9 251.3 258.1C252.7 258.2 254.4 259.3 255.7 259.3C257.5 259.4 258.7 257.7 260.6 258" fill="#CA3029"/>
<path d="M238.201 260.2C248.301 264.4 262.501 264.8 272.401 260C272.601 259.9 272.501 259.5 272.201 259.6C260.301 263.4 250.301 262.7 238.201 260.2C238.201 260.1 238.201 260.2 238.201 260.2" fill="#A82623"/>
<path d="M208.501 178.8C214.901 178.8 220.201 184.7 220.201 192.1C220.201 199.4 215.001 205.4 208.501 205.4C202.001 205.4 196.801 199.5 196.801 192.1C196.801 184.8 202.101 178.8 208.501 178.8Z" fill="#342214"/>
<path d="M303.501 178.8C309.901 178.8 315.201 184.7 315.201 192.1C315.201 199.4 310.001 205.4 303.501 205.4C297.001 205.4 291.801 199.5 291.801 192.1C291.801 184.8 297.001 178.8 303.501 178.8Z" fill="#342214"/>
<path d="M210.4 353.3C210.3 353.1 210.4 353.2 210.4 353.3V353.3Z" fill="#C93938"/>
<path d="M210.4 353.3C210.5 353.4 210.6 353.5 210.4 353.3V353.3Z" fill="#C93938"/>
<path d="M301.602 353.3C301.602 353.2 301.702 353.1 301.602 353.3V353.3Z" fill="#C93938"/>
<path d="M301.6 353.3C301.4 353.5 301.5 353.4 301.6 353.3V353.3Z" fill="#C93938"/>
<path d="M301.6 353.3C301.4 353.5 301.5 353.4 301.6 353.3C301.6 353.2 301.7 353.1 301.6 353.3Z" fill="#BE1E2D"/>
<path d="M210.4 353.3C210.5 353.4 210.6 353.5 210.4 353.3C210.3 353.1 210.4 353.2 210.4 353.3Z" fill="#BE1E2D"/>
<path d="M231.702 487.1L210.502 353.3C210.402 353.2 210.402 353.1 210.502 353.3V330C183.402 367.8 125.702 374.9 79.7016 385.2C77.4016 385.7 75.2016 386.4 73.1016 387.1C107.102 441.5 164.802 479.6 231.702 487.1V487.1Z" fill="url(#paint5_linear_195_578)"/>
<path d="M301.253 330V353.433C301.354 353.232 301.354 353.333 301.253 353.433L280 488C347.069 480.457 404.914 442.139 439 387.427C436.895 386.623 434.689 386.019 432.383 385.516C386.167 375.157 328.322 368.017 301.253 330V330Z" fill="url(#paint6_linear_195_578)"/>
<g filter="url(#filter0_b_195_578)">
<circle cx="256.5" cy="272.5" r="214.5" stroke="white" stroke-opacity="0.4" stroke-width="4"/>
</g>
<path d="M139 96.5L141 89L180.5 56L282.5 40L356.5 79.5L363 91L363.5 103L139 96.5Z" fill="black"/>
</g>
<defs>
<filter id="filter0_b_195_578" x="-60" y="-44" width="633" height="633" filterUnits="userSpaceOnUse" color-interpolation-filters="sRGB">
<feFlood flood-opacity="0" result="BackgroundImageFix"/>
<feGaussianBlur in="BackgroundImage" stdDeviation="50"/>
<feComposite in2="SourceAlpha" operator="in" result="effect1_backgroundBlur_195_578"/>
<feBlend mode="normal" in="SourceGraphic" in2="effect1_backgroundBlur_195_578" result="shape"/>
</filter>
<linearGradient id="paint0_linear_195_578" x1="256.5" y1="57" x2="256.5" y2="387" gradientUnits="userSpaceOnUse">
<stop stop-color="#13003A"/>
<stop offset="0.828329" stop-color="#1F0061"/>
</linearGradient>
<linearGradient id="paint1_linear_195_578" x1="256.05" y1="353.3" x2="256.05" y2="488.5" gradientUnits="userSpaceOnUse">
<stop offset="0.490515" stop-color="white"/>
<stop offset="1" stop-color="#CCCCCC"/>
</linearGradient>
<linearGradient id="paint2_linear_195_578" x1="233.502" y1="196.5" x2="210" y2="324.5" gradientUnits="userSpaceOnUse">
<stop offset="0.613435" stop-color="#935F20"/>
<stop offset="0.963542" stop-color="#BD8D53"/>
</linearGradient>
<linearGradient id="paint3_linear_195_578" x1="278.273" y1="196.5" x2="255.341" y2="323.628" gradientUnits="userSpaceOnUse">
<stop offset="0.613435" stop-color="#935F20"/>
<stop offset="0.963542" stop-color="#B58245"/>
</linearGradient>
<linearGradient id="paint4_linear_195_578" x1="278.101" y1="196.5" x2="301.604" y2="324.5" gradientUnits="userSpaceOnUse">
<stop offset="0.613435" stop-color="#935F20"/>
<stop offset="0.963542" stop-color="#BD8D53"/>
</linearGradient>
<linearGradient id="paint5_linear_195_578" x1="152.402" y1="330" x2="152.402" y2="487.1" gradientUnits="userSpaceOnUse">
<stop offset="0.300876" stop-color="#FFD200"/>
<stop offset="1" stop-color="#FF9900"/>
</linearGradient>
<linearGradient id="paint6_linear_195_578" x1="359.5" y1="330" x2="359.5" y2="488" gradientUnits="userSpaceOnUse">
<stop offset="0.300876" stop-color="#FFD200"/>
<stop offset="1" stop-color="#FF9900"/>
</linearGradient>
<clipPath id="clip0_195_578">
<rect width="512" height="512" fill="white"/>
</clipPath>
<clipPath id="clip1_195_578">
<rect width="433" height="330" fill="white" transform="translate(40 57)"/>
</clipPath>
</defs>
</svg>
