<svg width="512" height="512" viewBox="0 0 512 512" fill="none" xmlns="http://www.w3.org/2000/svg">
<path d="M210.401 330V353.3H301.501V330C328.601 367.8 386.301 374.9 432.301 385.2C434.601 385.7 436.801 386.4 438.901 387.1C459.701 353.9 471.701 314.8 471.701 272.8C471.701 153.6 375.101 57 256.001 57C136.901 57 40.3008 153.6 40.3008 272.8C40.3008 314.8 52.3008 354 73.1008 387.1C75.2008 386.3 77.4008 385.7 79.7008 385.2C125.701 374.9 183.401 367.8 210.401 330Z" fill="#1F0061"/>
<g clip-path="url(#clip0_853_2464)">
<path d="M210.731 329.917V353.21H302.169V329.917C329.369 367.706 387.283 374.804 433.454 385.101C435.762 385.6 437.971 386.3 440.078 387C460.955 353.81 473 314.722 473 272.735C473 153.571 376.042 57 256.5 57C136.958 57 40 153.571 40 272.735C40 314.722 52.0445 353.91 72.9216 387C75.0294 386.2 77.2376 385.6 79.5461 385.101C125.717 374.804 183.631 367.706 210.731 329.917V329.917Z" fill="url(#paint0_linear_853_2464)"/>
<circle cx="61.7554" cy="276.755" r="0.755365" fill="white" fill-opacity="0.4"/>
<circle cx="61.7554" cy="276.755" r="0.755365" fill="white" fill-opacity="0.4"/>
<circle cx="93.7554" cy="208.755" r="0.755365" fill="white" fill-opacity="0.4"/>
<circle cx="92.7554" cy="160.755" r="0.755365" fill="white" fill-opacity="0.4"/>
<circle cx="154.767" cy="149.781" r="0.755365" fill="#6BD5E1"/>
<circle cx="266.564" cy="214.743" r="0.755365" fill="#6BD5E1"/>
<circle cx="394.244" cy="133.178" r="0.755365" fill="#6BD5E1"/>
<circle cx="447.07" cy="317.068" r="0.755365" transform="rotate(45 447.07 317.068)" fill="#6BD5E1"/>
<circle cx="310.373" cy="96.1503" r="0.755365" fill="white" fill-opacity="0.4"/>
<circle cx="265.748" cy="281.342" r="0.755365" fill="white" fill-opacity="0.4"/>
<circle cx="433.244" cy="240.009" r="0.755365" fill="white" fill-opacity="0.4"/>
<circle cx="408.07" cy="373.185" r="0.755365" transform="rotate(45 408.07 373.185)" fill="white" fill-opacity="0.4"/>
<circle cx="314.15" cy="323.138" r="0.755365" fill="#6BD5E1"/>
<circle cx="96.9858" cy="325.026" r="0.755365" fill="#6BD5E1"/>
</g>
<path fill-rule="evenodd" clip-rule="evenodd" d="M203.537 36.0204C220.637 20.1204 312.337 7.92044 349.037 67.8204C385.737 127.72 366.137 113.02 386.937 151.02C407.737 188.92 407.737 193.82 388.137 220.72C368.537 247.62 347.837 268.42 364.937 286.72C382.037 305.02 389.437 314.82 372.237 340.52C355.137 366.22 413.837 395.52 390.537 427.32C367.337 459.12 159.437 468.92 145.937 432.22C132.437 395.52 154.537 369.82 141.037 351.52C127.537 333.12 106.837 314.82 141.037 289.12C160.837 274.22 132.137 260.22 118.337 234.42C102.637 205.12 112.537 168.42 120.237 157.12C138.737 130.22 135.037 28.7204 203.537 36.0204" fill="black"/>
<path d="M301.6 353.3C301.5 353.4 301.4 353.5 301.6 353.3H210.5C210.6 353.5 210.6 353.4 210.5 353.3L231.7 487.1C239.7 488 247.8 488.5 256 488.5C264.2 488.5 272.3 488 280.3 487.1L301.6 353.3Z" fill="url(#paint1_linear_853_2464)"/>
<path d="M257.258 339.2C245.234 339.2 228.175 331.7 210.5 318.4V330V353.3C210.808 353.6 211.117 353.9 211.322 354.3C224.065 369.5 240.713 377.5 257.258 377.6V339.2V339.2Z" fill="#BD8D53"/>
<path d="M255.688 377.6C271.999 377.7 288.21 370.1 300.696 354.3C300.998 354 301.3 353.6 301.602 353.3V330V318.4C284.283 331.7 267.569 339.2 255.688 339.2V377.6V377.6Z" fill="#BD8D53"/>
<path d="M256.602 342.345V196.5C233.5 196.5 210.398 211.933 210.398 242.696V321.086C227.927 334.679 244.747 342.345 256.602 342.345Z" fill="url(#paint2_linear_853_2464)"/>
<path d="M254.945 196.5V341.187C266.916 341.187 283.901 333.588 301.601 320.112V242.399C301.601 211.8 278.273 196.5 254.945 196.5V196.5Z" fill="url(#paint3_linear_853_2464)"/>
<path fill-rule="evenodd" clip-rule="evenodd" d="M323.602 173.7C343.502 196.3 353.402 215.9 345.802 240C338.102 264.2 341.202 282.8 368.002 298.2C394.702 313.6 385.102 316.6 378.902 344.5C375.102 361.9 389.602 377.7 409.102 377.7C412.802 377.7 389.002 369 392.102 351.3C397.102 322.8 423.102 307 398.202 280C373.302 253 382.002 249.2 389.302 232.3C396.602 215.3 376.002 183.3 350.302 156.5C193.302 -7.4 303.702 151.1 323.602 173.7Z" fill="black"/>
<path d="M255 342.345V196.5C278.101 196.5 301.203 211.933 301.203 242.696V321.086C283.674 334.679 266.855 342.345 255 342.345Z" fill="url(#paint4_linear_853_2464)"/>
<path fill-rule="evenodd" clip-rule="evenodd" d="M190.7 178.9C169.8 200.7 159.1 219.8 165.8 244.3C172.5 268.8 168.6 287.3 141.2 301.5C113.9 315.7 123.4 319.1 128.4 347.3C131.5 364.8 116.3 380 96.7997 379.2C93.0997 379 117.3 371.3 114.9 353.5C111.1 324.8 85.7997 307.9 111.8 282C137.8 256.1 129.3 251.9 122.7 234.7C116.1 217.5 138 186.4 164.8 160.6C328.5 3.40002 211.6 157.2 190.7 178.9Z" fill="black"/>
<path d="M256.437 49.0999C176.214 49.0999 138.433 119.4 142.181 180.7C137.521 177.8 132.659 177 128.608 178.7C119.289 182.7 117.263 198.8 124.252 214.8C131.241 230.8 144.409 240.5 153.829 236.5C155.146 235.9 156.26 235.1 157.273 234.1C182.596 284.5 231.418 317.8 256.437 317.8C256.842 317.8 257.348 317.7 257.753 317.7V49.0999C257.348 49.0999 256.943 49.0999 256.437 49.0999V49.0999Z" fill="#BD8D53"/>
<path d="M256.437 49.0999C176.214 49.0999 138.433 119.4 142.181 180.7C137.521 177.8 132.659 177 128.608 178.7C119.289 182.7 117.263 198.8 124.252 214.8C131.241 230.8 144.409 240.5 153.829 236.5C155.146 235.9 156.26 235.1 157.273 234.1C182.596 284.5 231.418 317.8 256.437 317.8C256.842 317.8 257.348 317.7 257.753 317.7V49.0999C257.348 49.0999 256.943 49.0999 256.437 49.0999V49.0999Z" fill="url(#paint5_linear_853_2464)" fill-opacity="0.2"/>
<path d="M383.418 178.7C378.572 176.6 372.716 178.3 367.162 182.6C371.807 121.2 334.55 49.8999 254.684 49.0999V317.8C280.229 316.7 328.693 282.9 353.229 232.2C354.541 234.1 356.258 235.6 358.277 236.5C367.566 240.5 380.793 230.7 387.76 214.8C394.626 198.8 392.707 182.6 383.418 178.7V178.7Z" fill="#BD8D53"/>
<path d="M383.418 178.7C378.572 176.6 372.716 178.3 367.162 182.6C371.807 121.2 334.55 49.8999 254.684 49.0999V317.8C280.229 316.7 328.693 282.9 353.229 232.2C354.541 234.1 356.258 235.6 358.277 236.5C367.566 240.5 380.793 230.7 387.76 214.8C394.626 198.8 392.707 182.6 383.418 178.7V178.7Z" fill="url(#paint6_linear_853_2464)" fill-opacity="0.2"/>
<path fill-rule="evenodd" clip-rule="evenodd" d="M207.734 77.7205C214.734 111.921 251.034 130.021 285.234 135.121C319.434 140.121 349.634 140.121 330.534 163.321C311.434 186.421 322.434 207.621 340.634 220.721C358.734 233.821 352.734 269.021 336.634 291.121C320.534 313.221 316.534 332.421 335.634 353.521C354.734 374.621 344.734 375.421 328.634 401.621C318.634 417.921 326.234 436.821 344.434 441.121C347.834 441.921 328.934 428.021 338.434 411.221C353.734 384.221 374.934 374.621 361.934 342.421C348.834 310.221 356.934 309.221 369.934 294.121C383.034 279.021 388.034 240.821 371.934 209.621C355.834 178.421 383.034 188.521 379.934 150.221C376.834 111.921 283.234 -28.9795 207.734 77.7205" fill="black"/>
<path fill-rule="evenodd" clip-rule="evenodd" d="M303.401 71.4999C325.901 91.5999 338.001 111.4 333.301 136.3C328.501 161.2 333.901 179.4 362.201 191.4C390.501 203.5 381.301 207.6 378.501 236.1C376.701 253.8 393.101 267.8 412.401 265.4C416.101 265 391.401 259.2 392.401 241.2C394.001 212.3 417.901 193.5 390.001 169.7C362.101 145.8 359.501 138 364.701 120.3C370.001 102.6 356.001 76.6999 327.701 52.7999C293.601 23.6999 281.001 51.3999 303.401 71.4999" fill="black"/>
<path fill-rule="evenodd" clip-rule="evenodd" d="M204.202 71.4999C181.702 91.5999 169.602 111.4 174.302 136.3C179.102 161.2 173.702 179.4 145.402 191.4C117.002 203.5 126.302 207.6 129.102 236.1C130.802 253.8 114.502 267.8 95.2023 265.4C91.5023 265 116.202 259.2 115.202 241.2C113.602 212.3 89.7023 193.5 117.602 169.7C145.502 145.8 148.102 138 142.902 120.3C137.702 102.6 151.602 76.6999 179.902 52.7999C214.002 23.6999 226.702 51.3999 204.202 71.4999" fill="black"/>
<path fill-rule="evenodd" clip-rule="evenodd" d="M268.135 48.8205C244.535 62.5205 163.135 141.621 154.035 169.321C144.835 197.021 154.435 219.621 159.935 239.921C140.035 234.921 90.7352 12.8205 268.135 48.8205" fill="black"/>
<path d="M270.997 260C270.997 260 271.656 271 253.867 271C248.728 271 237 268.633 237 260.278C247.41 263.063 259.796 263.62 270.997 260Z" fill="#D43329"/>
<path d="M260.658 256.05C264.579 256.607 271.376 260.368 270.984 260.507C260.004 264.129 247.587 263.433 237.261 260.786C237.131 260.786 237 260.786 237 260.647C240.529 259.114 245.104 255.91 248.502 256.189C250.332 256.328 252.554 257.86 254.253 257.86C256.606 258 258.174 255.632 260.658 256.05" fill="#CA3029"/>
<path d="M231 258.791C244.249 264.188 262.877 264.702 275.863 258.534C276.126 258.406 275.995 257.892 275.601 258.02C259.991 262.903 246.873 262.004 231 258.791Z" fill="#A82623"/>
<path d="M212.7 179C219.1 179 224.4 184.9 224.4 192.3C224.4 199.6 219.2 205.6 212.7 205.6C206.2 205.6 201 199.7 201 192.3C201 185 206.3 179 212.7 179Z" fill="#1D0D00"/>
<path d="M212.7 179C219.1 179 224.4 184.9 224.4 192.3C224.4 199.6 219.2 205.6 212.7 205.6C206.2 205.6 201 199.7 201 192.3C201 185 206.3 179 212.7 179Z" fill="url(#paint7_linear_853_2464)" fill-opacity="0.2"/>
<path d="M300.501 178.8C306.901 178.8 312.201 184.7 312.201 192.1C312.201 199.4 307.001 205.4 300.501 205.4C294.001 205.4 288.801 199.5 288.801 192.1C288.801 184.8 294.001 178.8 300.501 178.8Z" fill="#1D0D00"/>
<path d="M300.501 178.8C306.901 178.8 312.201 184.7 312.201 192.1C312.201 199.4 307.001 205.4 300.501 205.4C294.001 205.4 288.801 199.5 288.801 192.1C288.801 184.8 294.001 178.8 300.501 178.8Z" fill="url(#paint8_linear_853_2464)" fill-opacity="0.2"/>
<path d="M210.4 353.3C210.3 353.1 210.4 353.2 210.4 353.3V353.3Z" fill="#C93938"/>
<path d="M210.402 353.3C210.502 353.4 210.602 353.5 210.402 353.3V353.3Z" fill="#C93938"/>
<path d="M301.602 353.3C301.602 353.2 301.702 353.1 301.602 353.3V353.3Z" fill="#C93938"/>
<path d="M301.6 353.3C301.4 353.5 301.5 353.4 301.6 353.3V353.3Z" fill="#C93938"/>
<path d="M301.6 353.3C301.4 353.5 301.5 353.4 301.6 353.3C301.6 353.2 301.7 353.1 301.6 353.3Z" fill="#BE1E2D"/>
<path d="M210.4 353.3C210.5 353.4 210.6 353.5 210.4 353.3C210.3 353.1 210.4 353.2 210.4 353.3Z" fill="#BE1E2D"/>
<path d="M231.702 487.1L210.502 353.3C210.402 353.2 210.402 353.1 210.502 353.3V330C183.402 367.8 125.702 374.9 79.7016 385.2C77.4016 385.7 75.2016 386.4 73.1016 387.1C107.102 441.5 164.802 479.6 231.702 487.1V487.1Z" fill="url(#paint9_linear_853_2464)"/>
<path d="M301.253 330V353.433C301.354 353.232 301.354 353.333 301.253 353.433L280 488C347.069 480.457 404.914 442.139 439 387.427C436.895 386.623 434.689 386.019 432.383 385.516C386.167 375.157 328.322 368.017 301.253 330V330Z" fill="url(#paint10_linear_853_2464)"/>
<g filter="url(#filter0_b_853_2464)">
<circle cx="256.5" cy="272.5" r="214.5" stroke="white" stroke-opacity="0.4" stroke-width="4"/>
</g>
<path d="M139 96.5L141 89L180.5 56L282.5 40L356.5 79.5L363 91L363.5 103L139 96.5Z" fill="black"/>
<defs>
<filter id="filter0_b_853_2464" x="-60" y="-44" width="633" height="633" filterUnits="userSpaceOnUse" color-interpolation-filters="sRGB">
<feFlood flood-opacity="0" result="BackgroundImageFix"/>
<feGaussianBlur in="BackgroundImage" stdDeviation="50"/>
<feComposite in2="SourceAlpha" operator="in" result="effect1_backgroundBlur_853_2464"/>
<feBlend mode="normal" in="SourceGraphic" in2="effect1_backgroundBlur_853_2464" result="shape"/>
</filter>
<linearGradient id="paint0_linear_853_2464" x1="256.5" y1="57" x2="256.5" y2="387" gradientUnits="userSpaceOnUse">
<stop stop-color="#13003A"/>
<stop offset="0.828329" stop-color="#1F0061"/>
</linearGradient>
<linearGradient id="paint1_linear_853_2464" x1="256.05" y1="353.3" x2="256.05" y2="488.5" gradientUnits="userSpaceOnUse">
<stop offset="0.490515" stop-color="white"/>
<stop offset="1" stop-color="#CCCCCC"/>
</linearGradient>
<linearGradient id="paint2_linear_853_2464" x1="233.5" y1="196.5" x2="209.998" y2="324.5" gradientUnits="userSpaceOnUse">
<stop offset="0.613435" stop-color="#935F20"/>
<stop offset="0.963542" stop-color="#BD8D53"/>
</linearGradient>
<linearGradient id="paint3_linear_853_2464" x1="278.273" y1="196.5" x2="255.341" y2="323.628" gradientUnits="userSpaceOnUse">
<stop offset="0.613435" stop-color="#935F20"/>
<stop offset="0.963542" stop-color="#B58245"/>
</linearGradient>
<linearGradient id="paint4_linear_853_2464" x1="278.101" y1="196.5" x2="301.604" y2="324.5" gradientUnits="userSpaceOnUse">
<stop offset="0.613435" stop-color="#935F20"/>
<stop offset="0.963542" stop-color="#BD8D53"/>
</linearGradient>
<linearGradient id="paint5_linear_853_2464" x1="188.918" y1="49.0999" x2="188.918" y2="317.8" gradientUnits="userSpaceOnUse">
<stop offset="0.182292"/>
<stop offset="0.5625" stop-opacity="0"/>
</linearGradient>
<linearGradient id="paint6_linear_853_2464" x1="323.278" y1="49.0999" x2="323.278" y2="317.8" gradientUnits="userSpaceOnUse">
<stop offset="0.182292"/>
<stop offset="0.5625" stop-opacity="0"/>
</linearGradient>
<linearGradient id="paint7_linear_853_2464" x1="212.7" y1="179" x2="212.7" y2="205.6" gradientUnits="userSpaceOnUse">
<stop stop-color="#9E00FF"/>
<stop offset="1" stop-opacity="0"/>
</linearGradient>
<linearGradient id="paint8_linear_853_2464" x1="300.501" y1="178.8" x2="300.501" y2="205.4" gradientUnits="userSpaceOnUse">
<stop stop-color="#9E00FF"/>
<stop offset="1" stop-opacity="0"/>
</linearGradient>
<linearGradient id="paint9_linear_853_2464" x1="152.402" y1="330" x2="152.402" y2="487.1" gradientUnits="userSpaceOnUse">
<stop offset="0.300876" stop-color="#FFD200"/>
<stop offset="1" stop-color="#FF9900"/>
</linearGradient>
<linearGradient id="paint10_linear_853_2464" x1="359.5" y1="330" x2="359.5" y2="488" gradientUnits="userSpaceOnUse">
<stop offset="0.300876" stop-color="#FFD200"/>
<stop offset="1" stop-color="#FF9900"/>
</linearGradient>
<clipPath id="clip0_853_2464">
<rect width="433" height="330" fill="white" transform="translate(40 57)"/>
</clipPath>
</defs>
</svg>
