<svg width="142" height="45" viewBox="0 0 142 45" fill="none" xmlns="http://www.w3.org/2000/svg">
<path d="M7.93563 34.9269C6.2778 34.9269 4.85158 34.5124 3.65697 33.6835C2.46236 32.8302 1.54812 31.6965 0.914243 30.2825C0.304748 28.8441 0 27.2716 0 25.565C0 23.7121 0.365697 22.0665 1.09709 20.6281C1.82849 19.1653 2.86463 18.0316 4.20552 17.2271C5.57079 16.3982 7.16767 15.9837 8.99615 15.9837C9.55689 15.9837 10.2639 16.0203 11.1172 16.0935C11.9705 16.1422 12.7263 16.2153 13.3845 16.3129V7.14904C13.3845 6.25361 14.3996 5.73558 15.1247 6.261V6.261C15.4098 6.46761 15.5784 6.79855 15.5779 7.15065L15.5421 31.4162C15.5421 31.9038 15.6518 32.2817 15.8713 32.5498C16.1151 32.7936 16.4076 32.9155 16.7489 32.9155C16.822 32.9155 16.8926 32.9098 16.9609 32.8983C17.529 32.8029 18.2002 32.6028 18.6521 32.9601V32.9601C19.0608 33.2833 19.1579 33.8906 18.7551 34.2212C18.5602 34.3812 18.3547 34.5067 18.1386 34.5977C17.6997 34.8172 17.1878 34.9269 16.6027 34.9269C15.7494 34.9269 14.9936 34.6343 14.3353 34.0492C13.7015 33.4641 13.3845 32.7571 13.3845 31.9281C12.7994 32.9033 12.0314 33.6469 11.0806 34.1589C10.1542 34.6709 9.10586 34.9269 7.93563 34.9269ZM8.04534 32.9521C9.11805 32.9521 10.0689 32.6961 10.8978 32.1841C11.7511 31.6722 12.4093 30.953 12.8725 30.0265C13.2139 29.3439 13.3845 28.5637 13.3845 27.6861V19.0268C13.3845 18.5817 13.0572 18.2043 12.6166 18.1414V18.1414C11.4707 17.9707 10.5199 17.8854 9.76412 17.8854C7.08234 17.8854 5.14414 18.5558 3.94953 19.8967C2.7793 21.2132 2.19418 23.0173 2.19418 25.309C2.19418 27.5032 2.70616 29.3317 3.73011 30.7945C4.77844 32.2329 6.21685 32.9521 8.04534 32.9521Z" fill="white"/>
<path d="M24.0606 31.4893C24.0606 31.8306 24.1703 32.1232 24.3897 32.367C24.6335 32.5864 24.9139 32.6961 25.2308 32.6961C25.2697 32.6961 25.3077 32.6948 25.3448 32.6922C25.9659 32.6482 26.7419 32.4124 27.2401 32.786V32.786C27.6246 33.0744 27.7628 33.6117 27.413 33.9413C27.2599 34.0855 27.0811 34.219 26.8765 34.3417C26.3889 34.6099 25.8403 34.744 25.2308 34.744C24.2556 34.744 23.4511 34.4393 22.8172 33.8298C22.1833 33.2203 21.8664 32.4279 21.8664 31.4527V17.3734C21.8664 16.7675 22.3576 16.2763 22.9635 16.2763V16.2763C23.5694 16.2763 24.0606 16.7675 24.0606 17.3734V31.4893ZM22.8538 13.8993C22.4393 13.8993 22.0736 13.753 21.7567 13.4604C21.4641 13.1435 21.3179 12.7778 21.3179 12.3633C21.3179 11.9245 21.4641 11.5588 21.7567 11.2662C22.0736 10.9493 22.4393 10.7908 22.8538 10.7908C23.2926 10.7908 23.6583 10.9493 23.9509 11.2662C24.2678 11.5588 24.4263 11.9245 24.4263 12.3633C24.4263 12.7778 24.2678 13.1435 23.9509 13.4604C23.6583 13.753 23.2926 13.8993 22.8538 13.8993Z" fill="white"/>
<path d="M29.6252 19.3847C29.4545 18.9703 29.1985 18.5802 28.8572 18.2145C28.8101 18.1564 28.7624 18.1006 28.7141 18.0468C28.3132 17.6004 28.1509 16.9036 28.5058 16.4198V16.4198C28.808 16.0076 29.3824 15.8889 29.7675 16.2251C30.6655 17.0087 31.386 18.1473 31.9291 19.6407L36.5369 31.7453L41.9937 16.9838C42.1428 16.5806 42.5272 16.3129 42.957 16.3129V16.3129C43.6733 16.3129 44.1696 17.0275 43.9194 17.6986L38.0309 33.4961C37.7922 34.1365 37.1808 34.5612 36.4973 34.5612V34.5612C35.8168 34.5612 35.2073 34.1401 34.9666 33.5036L29.6252 19.3847Z" fill="white"/>
<path d="M53.9535 34.9269C52.2713 34.9269 50.8329 34.5002 49.6383 33.6469C48.4436 32.7936 47.5416 31.66 46.9321 30.2459C46.3226 28.8319 46.0179 27.2716 46.0179 25.565C46.0179 23.6878 46.3836 22.0299 47.1149 20.5915C47.8463 19.1287 48.8947 17.9951 50.2599 17.1905C51.6252 16.386 53.2221 15.9837 55.0506 15.9837C55.6113 15.9837 56.3183 16.0203 57.1716 16.0935C57.9613 16.1386 58.6674 16.2046 59.29 16.2914C59.3893 16.3053 59.4893 16.3129 59.5895 16.3129V16.3129C60.7182 16.3129 61.6331 17.2278 61.6331 18.3565V31.4162C61.6331 31.9038 61.7428 32.2817 61.9623 32.5498C62.2061 32.7936 62.4986 32.9155 62.8399 32.9155C62.913 32.9155 62.9836 32.9098 63.0519 32.8983C63.62 32.8029 64.2912 32.6028 64.7431 32.9601V32.9601C65.1518 33.2833 65.2489 33.8906 64.8461 34.2212C64.6512 34.3812 64.4457 34.5067 64.2296 34.5977C63.7907 34.8172 63.2788 34.9269 62.6937 34.9269C61.8404 34.9269 61.0846 34.6343 60.4263 34.0492C59.7924 33.4641 59.4755 32.7571 59.4755 31.9281C58.8904 32.9033 58.1224 33.6469 57.1716 34.1589C56.2208 34.6709 55.1481 34.9269 53.9535 34.9269ZM53.9901 32.9521C55.0872 32.9521 56.0745 32.6839 56.9522 32.1476C57.8299 31.6112 58.4881 30.9042 58.927 30.0265C59.2683 29.3195 59.4389 28.5393 59.4389 27.6861V18.1048L57.0253 18.0316L54.9043 17.9585C52.6857 17.9585 51.0157 18.6533 49.8942 20.043C48.7728 21.4326 48.212 23.2489 48.212 25.4919C48.212 27.5642 48.6996 29.3317 49.6748 30.7945C50.6744 32.2329 52.1128 32.9521 53.9901 32.9521Z" fill="white"/>
<path d="M73.1852 35C70.9965 35 68.9426 34.2488 67.0235 32.7463C66.6138 32.4255 66.5715 31.8306 66.9027 31.4292V31.4292C67.2424 31.0174 67.8489 30.9607 68.2823 31.2724C68.9478 31.751 69.6069 32.1402 70.2596 32.4401C71.186 32.8302 72.1734 33.0252 73.2217 33.0252C74.5382 33.0252 75.5622 32.7205 76.2936 32.111C77.0494 31.4771 77.4272 30.6238 77.4272 29.5511C77.4272 28.8685 77.2566 28.3199 76.9153 27.9055C76.5983 27.4666 76.1595 27.1131 75.5988 26.845C75.0624 26.5768 74.0872 26.1501 72.6732 25.565C71.381 25.0287 70.3815 24.5654 69.6745 24.1754C68.9675 23.7853 68.4067 23.3099 67.9923 22.7491C67.5778 22.164 67.3706 21.4326 67.3706 20.555C67.3706 19.1165 67.8825 17.9707 68.9065 17.1174C69.9305 16.2397 71.2957 15.8009 73.0023 15.8009C73.88 15.8009 74.7455 15.9228 75.5988 16.1666C76.1611 16.3228 76.6683 16.524 77.1206 16.7703C77.544 17.0009 77.6475 17.5401 77.4052 17.957V17.957C77.1362 18.4196 76.5416 18.564 76.0498 18.353C75.153 17.9681 74.1738 17.7757 73.112 17.7757C71.9906 17.7757 71.1251 17.9951 70.5156 18.4339C69.9061 18.8728 69.6013 19.4944 69.6013 20.299C69.6013 20.9085 69.7598 21.4083 70.0767 21.7983C70.418 22.1884 70.8447 22.5175 71.3567 22.7857C71.893 23.0295 72.7707 23.3952 73.9897 23.8828C75.3794 24.4435 76.4521 24.9555 77.2078 25.4187C77.988 25.8576 78.5853 26.4061 78.9997 27.0644C79.4386 27.6982 79.658 28.4906 79.658 29.4414C79.658 31.1236 79.0607 32.4767 77.8661 33.5006C76.6959 34.5002 75.1356 35 73.1852 35Z" fill="white"/>
<path d="M97.1678 31.4893C97.1678 31.8306 97.2775 32.1232 97.4969 32.367C97.7407 32.5864 98.0211 32.6961 98.338 32.6961C98.3768 32.6961 98.4148 32.6948 98.452 32.6922C99.0731 32.6482 99.8491 32.4124 100.347 32.786V32.786C100.732 33.0744 100.87 33.6117 100.52 33.9413C100.367 34.0855 100.188 34.219 99.9836 34.3417C99.496 34.6099 98.9475 34.744 98.338 34.744C97.3628 34.744 96.5583 34.4393 95.9244 33.8298C95.2905 33.2203 94.9736 32.4279 94.9736 31.4527V21.8715C94.9736 20.5306 94.6201 19.5188 93.913 18.8362C93.2304 18.1292 92.2187 17.7757 90.8778 17.7757C89.7075 17.7757 88.6836 18.0926 87.8059 18.7265C87.4959 18.9479 87.181 19.2112 86.8614 19.5163C85.6232 20.698 85.1363 22.4303 85.1363 24.1419V33.3544C85.1363 33.9603 84.6451 34.4515 84.0392 34.4515V34.4515C83.4333 34.4515 82.9421 33.9603 82.9421 33.3544V8.99892C82.9421 8.39301 83.4333 7.90183 84.0392 7.90183V7.90183C84.6451 7.90183 85.1363 8.39301 85.1363 8.99892V18.9459C86.6722 16.8492 88.6714 15.8009 91.1338 15.8009C93.1329 15.8009 94.6323 16.3129 95.6318 17.3368C96.6558 18.3608 97.1678 19.8358 97.1678 21.7618V31.4893Z" fill="white"/>
<path d="M120.905 32.786C121.289 33.0744 121.428 33.6117 121.078 33.9413C120.925 34.0855 120.746 34.219 120.541 34.3417C120.054 34.6099 119.505 34.744 118.896 34.744C117.92 34.744 117.116 34.4393 116.482 33.8298C115.848 33.2203 115.531 32.4279 115.531 31.4527V22.2737C115.531 19.3482 114.215 17.8854 111.582 17.8854C110.338 17.8854 109.278 18.2023 108.4 18.8362C108.079 19.0593 107.754 19.3249 107.426 19.6329C106.179 20.805 105.694 22.54 105.694 24.2516V33.4641C105.694 34.07 105.203 34.5612 104.597 34.5612V34.5612C103.991 34.5612 103.5 34.07 103.5 33.4641V21.7252C103.5 20.3555 103.241 19.2447 102.723 18.3929C102.388 17.8422 102.349 17.0977 102.805 16.642V16.642C103.17 16.2773 103.747 16.2038 104.107 16.5733C104.3 16.7715 104.488 17.0016 104.67 17.2637C105.084 17.8244 105.377 18.4339 105.548 19.0922C106.377 17.9707 107.291 17.1662 108.29 16.6786C109.314 16.1666 110.472 15.9106 111.765 15.9106C113.544 15.9106 114.958 16.3738 116.007 17.3003C117.055 18.2023 117.628 19.5432 117.725 21.3229V31.4893C117.725 31.8306 117.835 32.1232 118.054 32.367C118.298 32.5864 118.579 32.6961 118.896 32.6961C118.934 32.6961 118.972 32.6948 119.01 32.6922C119.631 32.6482 120.407 32.4124 120.905 32.786V32.786Z" fill="white"/>
<path d="M130.096 34.9269C128.413 34.9269 126.975 34.5002 125.78 33.6469C124.586 32.7936 123.684 31.66 123.074 30.2459C122.465 28.8319 122.16 27.2716 122.16 25.565C122.16 23.6878 122.526 22.0299 123.257 20.5915C123.989 19.1287 125.037 17.9951 126.402 17.1905C127.767 16.386 129.364 15.9837 131.193 15.9837C131.753 15.9837 132.46 16.0203 133.314 16.0935C134.103 16.1386 134.81 16.2046 135.432 16.2914C135.531 16.3053 135.631 16.3129 135.732 16.3129V16.3129C136.86 16.3129 137.775 17.2278 137.775 18.3565V31.4162C137.775 31.9038 137.885 32.2817 138.104 32.5498C138.348 32.7936 138.641 32.9155 138.982 32.9155C139.055 32.9155 139.126 32.9098 139.194 32.8983C139.762 32.8028 140.433 32.6028 140.885 32.9601V32.9601C141.294 33.2833 141.391 33.8906 140.988 34.2212C140.793 34.3812 140.588 34.5067 140.372 34.5977C139.933 34.8172 139.421 34.9269 138.836 34.9269C137.983 34.9269 137.227 34.6343 136.568 34.0492C135.935 33.4641 135.618 32.7571 135.618 31.9281C135.033 32.9033 134.265 33.6469 133.314 34.1589C132.363 34.6709 131.29 34.9269 130.096 34.9269ZM130.132 32.9521C131.229 32.9521 132.217 32.6839 133.094 32.1476C133.972 31.6112 134.63 30.9042 135.069 30.0265C135.41 29.3195 135.581 28.5393 135.581 27.6861V20.5195C135.581 19.1742 134.512 18.0724 133.167 18.0316V18.0316L131.046 17.9585C128.828 17.9585 127.158 18.6533 126.036 20.043C124.915 21.4326 124.354 23.2489 124.354 25.4919C124.354 27.5642 124.842 29.3317 125.817 30.7945C126.817 32.2329 128.255 32.9521 130.132 32.9521Z" fill="white"/>
<path d="M7.93563 34.9269C6.2778 34.9269 4.85158 34.5124 3.65697 33.6835C2.46236 32.8302 1.54812 31.6965 0.914243 30.2825C0.304748 28.8441 0 27.2716 0 25.565C0 23.7121 0.365697 22.0665 1.09709 20.6281C1.82849 19.1653 2.86463 18.0316 4.20552 17.2271C5.57079 16.3982 7.16767 15.9837 8.99615 15.9837C9.55689 15.9837 10.2639 16.0203 11.1172 16.0935C11.9705 16.1422 12.7263 16.2153 13.3845 16.3129V7.14904C13.3845 6.25361 14.3996 5.73558 15.1247 6.261V6.261C15.4098 6.46761 15.5784 6.79855 15.5779 7.15065L15.5421 31.4162C15.5421 31.9038 15.6518 32.2817 15.8713 32.5498C16.1151 32.7936 16.4076 32.9155 16.7489 32.9155C16.822 32.9155 16.8926 32.9098 16.9609 32.8983C17.529 32.8029 18.2002 32.6028 18.6521 32.9601V32.9601C19.0608 33.2833 19.1579 33.8906 18.7551 34.2212C18.5602 34.3812 18.3547 34.5067 18.1386 34.5977C17.6997 34.8172 17.1878 34.9269 16.6027 34.9269C15.7494 34.9269 14.9936 34.6343 14.3353 34.0492C13.7015 33.4641 13.3845 32.7571 13.3845 31.9281C12.7994 32.9033 12.0314 33.6469 11.0806 34.1589C10.1542 34.6709 9.10586 34.9269 7.93563 34.9269ZM8.04534 32.9521C9.11805 32.9521 10.0689 32.6961 10.8978 32.1841C11.7511 31.6722 12.4093 30.953 12.8725 30.0265C13.2139 29.3439 13.3845 28.5637 13.3845 27.6861V19.0268C13.3845 18.5817 13.0572 18.2043 12.6166 18.1414V18.1414C11.4707 17.9707 10.5199 17.8854 9.76412 17.8854C7.08234 17.8854 5.14414 18.5558 3.94953 19.8967C2.7793 21.2132 2.19418 23.0173 2.19418 25.309C2.19418 27.5032 2.70616 29.3317 3.73011 30.7945C4.77844 32.2329 6.21685 32.9521 8.04534 32.9521Z" stroke="white"/>
<path d="M24.0606 31.4893C24.0606 31.8306 24.1703 32.1232 24.3897 32.367C24.6335 32.5864 24.9139 32.6961 25.2308 32.6961C25.2697 32.6961 25.3077 32.6948 25.3448 32.6922C25.9659 32.6482 26.7419 32.4124 27.2401 32.786V32.786C27.6246 33.0744 27.7628 33.6117 27.413 33.9413C27.2599 34.0855 27.0811 34.219 26.8765 34.3417C26.3889 34.6099 25.8403 34.744 25.2308 34.744C24.2556 34.744 23.4511 34.4393 22.8172 33.8298C22.1833 33.2203 21.8664 32.4279 21.8664 31.4527V17.3734C21.8664 16.7675 22.3576 16.2763 22.9635 16.2763V16.2763C23.5694 16.2763 24.0606 16.7675 24.0606 17.3734V31.4893ZM22.8538 13.8993C22.4393 13.8993 22.0736 13.753 21.7567 13.4604C21.4641 13.1435 21.3179 12.7778 21.3179 12.3633C21.3179 11.9245 21.4641 11.5588 21.7567 11.2662C22.0736 10.9493 22.4393 10.7908 22.8538 10.7908C23.2926 10.7908 23.6583 10.9493 23.9509 11.2662C24.2678 11.5588 24.4263 11.9245 24.4263 12.3633C24.4263 12.7778 24.2678 13.1435 23.9509 13.4604C23.6583 13.753 23.2926 13.8993 22.8538 13.8993Z" stroke="white"/>
<path d="M29.6252 19.3847C29.4545 18.9703 29.1985 18.5802 28.8572 18.2145C28.8101 18.1564 28.7624 18.1006 28.7141 18.0468C28.3132 17.6004 28.1509 16.9036 28.5058 16.4198V16.4198C28.808 16.0076 29.3824 15.8889 29.7675 16.2251C30.6655 17.0087 31.386 18.1473 31.9291 19.6407L36.5369 31.7453L41.9937 16.9838C42.1428 16.5806 42.5272 16.3129 42.957 16.3129V16.3129C43.6733 16.3129 44.1696 17.0275 43.9194 17.6986L38.0309 33.4961C37.7922 34.1365 37.1808 34.5612 36.4973 34.5612V34.5612C35.8168 34.5612 35.2073 34.1401 34.9666 33.5036L29.6252 19.3847Z" stroke="white"/>
<path d="M53.9535 34.9269C52.2713 34.9269 50.8329 34.5002 49.6383 33.6469C48.4436 32.7936 47.5416 31.66 46.9321 30.2459C46.3226 28.8319 46.0179 27.2716 46.0179 25.565C46.0179 23.6878 46.3836 22.0299 47.1149 20.5915C47.8463 19.1287 48.8947 17.9951 50.2599 17.1905C51.6252 16.386 53.2221 15.9837 55.0506 15.9837C55.6113 15.9837 56.3183 16.0203 57.1716 16.0935C57.9613 16.1386 58.6674 16.2046 59.29 16.2914C59.3893 16.3053 59.4893 16.3129 59.5895 16.3129V16.3129C60.7182 16.3129 61.6331 17.2278 61.6331 18.3565V31.4162C61.6331 31.9038 61.7428 32.2817 61.9623 32.5498C62.2061 32.7936 62.4986 32.9155 62.8399 32.9155C62.913 32.9155 62.9836 32.9098 63.0519 32.8983C63.62 32.8029 64.2912 32.6028 64.7431 32.9601V32.9601C65.1518 33.2833 65.2489 33.8906 64.8461 34.2212C64.6512 34.3812 64.4457 34.5067 64.2296 34.5977C63.7907 34.8172 63.2788 34.9269 62.6937 34.9269C61.8404 34.9269 61.0846 34.6343 60.4263 34.0492C59.7924 33.4641 59.4755 32.7571 59.4755 31.9281C58.8904 32.9033 58.1224 33.6469 57.1716 34.1589C56.2208 34.6709 55.1481 34.9269 53.9535 34.9269ZM53.9901 32.9521C55.0872 32.9521 56.0745 32.6839 56.9522 32.1476C57.8299 31.6112 58.4881 30.9042 58.927 30.0265C59.2683 29.3195 59.4389 28.5393 59.4389 27.6861V18.1048L57.0253 18.0316L54.9043 17.9585C52.6857 17.9585 51.0157 18.6533 49.8942 20.043C48.7728 21.4326 48.212 23.2489 48.212 25.4919C48.212 27.5642 48.6996 29.3317 49.6748 30.7945C50.6744 32.2329 52.1128 32.9521 53.9901 32.9521Z" stroke="white"/>
<path d="M73.1852 35C70.9965 35 68.9426 34.2488 67.0235 32.7463C66.6138 32.4255 66.5715 31.8306 66.9027 31.4292V31.4292C67.2424 31.0174 67.8489 30.9607 68.2823 31.2724C68.9478 31.751 69.6069 32.1402 70.2596 32.4401C71.186 32.8302 72.1734 33.0252 73.2217 33.0252C74.5382 33.0252 75.5622 32.7205 76.2936 32.111C77.0494 31.4771 77.4272 30.6238 77.4272 29.5511C77.4272 28.8685 77.2566 28.3199 76.9153 27.9055C76.5983 27.4666 76.1595 27.1131 75.5988 26.845C75.0624 26.5768 74.0872 26.1501 72.6732 25.565C71.381 25.0287 70.3815 24.5654 69.6745 24.1754C68.9675 23.7853 68.4067 23.3099 67.9923 22.7491C67.5778 22.164 67.3706 21.4326 67.3706 20.555C67.3706 19.1165 67.8825 17.9707 68.9065 17.1174C69.9305 16.2397 71.2957 15.8009 73.0023 15.8009C73.88 15.8009 74.7455 15.9228 75.5988 16.1666C76.1611 16.3228 76.6683 16.524 77.1206 16.7703C77.544 17.0009 77.6475 17.5401 77.4052 17.957V17.957C77.1362 18.4196 76.5416 18.564 76.0498 18.353C75.153 17.9681 74.1738 17.7757 73.112 17.7757C71.9906 17.7757 71.1251 17.9951 70.5156 18.4339C69.9061 18.8728 69.6013 19.4944 69.6013 20.299C69.6013 20.9085 69.7598 21.4083 70.0767 21.7983C70.418 22.1884 70.8447 22.5175 71.3567 22.7857C71.893 23.0295 72.7707 23.3952 73.9897 23.8828C75.3794 24.4435 76.4521 24.9555 77.2078 25.4187C77.988 25.8576 78.5853 26.4061 78.9997 27.0644C79.4386 27.6982 79.658 28.4906 79.658 29.4414C79.658 31.1236 79.0607 32.4767 77.8661 33.5006C76.6959 34.5002 75.1356 35 73.1852 35Z" stroke="white"/>
<path d="M97.1678 31.4893C97.1678 31.8306 97.2775 32.1232 97.4969 32.367C97.7407 32.5864 98.0211 32.6961 98.338 32.6961C98.3768 32.6961 98.4148 32.6948 98.452 32.6922C99.0731 32.6482 99.8491 32.4124 100.347 32.786V32.786C100.732 33.0744 100.87 33.6117 100.52 33.9413C100.367 34.0855 100.188 34.219 99.9836 34.3417C99.496 34.6099 98.9475 34.744 98.338 34.744C97.3628 34.744 96.5583 34.4393 95.9244 33.8298C95.2905 33.2203 94.9736 32.4279 94.9736 31.4527V21.8715C94.9736 20.5306 94.6201 19.5188 93.913 18.8362C93.2304 18.1292 92.2187 17.7757 90.8778 17.7757C89.7075 17.7757 88.6836 18.0926 87.8059 18.7265C87.4959 18.9479 87.181 19.2112 86.8614 19.5163C85.6232 20.698 85.1363 22.4303 85.1363 24.1419V33.3544C85.1363 33.9603 84.6451 34.4515 84.0392 34.4515V34.4515C83.4333 34.4515 82.9421 33.9603 82.9421 33.3544V8.99892C82.9421 8.39301 83.4333 7.90183 84.0392 7.90183V7.90183C84.6451 7.90183 85.1363 8.39301 85.1363 8.99892V18.9459C86.6722 16.8492 88.6714 15.8009 91.1338 15.8009C93.1329 15.8009 94.6323 16.3129 95.6318 17.3368C96.6558 18.3608 97.1678 19.8358 97.1678 21.7618V31.4893Z" stroke="white"/>
<path d="M120.905 32.786C121.289 33.0744 121.428 33.6117 121.078 33.9413C120.925 34.0855 120.746 34.219 120.541 34.3417C120.054 34.6099 119.505 34.744 118.896 34.744C117.92 34.744 117.116 34.4393 116.482 33.8298C115.848 33.2203 115.531 32.4279 115.531 31.4527V22.2737C115.531 19.3482 114.215 17.8854 111.582 17.8854C110.338 17.8854 109.278 18.2023 108.4 18.8362C108.079 19.0593 107.754 19.3249 107.426 19.6329C106.179 20.805 105.694 22.54 105.694 24.2516V33.4641C105.694 34.07 105.203 34.5612 104.597 34.5612V34.5612C103.991 34.5612 103.5 34.07 103.5 33.4641V21.7252C103.5 20.3555 103.241 19.2447 102.723 18.3929C102.388 17.8422 102.349 17.0977 102.805 16.642V16.642C103.17 16.2773 103.747 16.2038 104.107 16.5733C104.3 16.7715 104.488 17.0016 104.67 17.2637C105.084 17.8244 105.377 18.4339 105.548 19.0922C106.377 17.9707 107.291 17.1662 108.29 16.6786C109.314 16.1666 110.472 15.9106 111.765 15.9106C113.544 15.9106 114.958 16.3738 116.007 17.3003C117.055 18.2023 117.628 19.5432 117.725 21.3229V31.4893C117.725 31.8306 117.835 32.1232 118.054 32.367C118.298 32.5864 118.579 32.6961 118.896 32.6961C118.934 32.6961 118.972 32.6948 119.01 32.6922C119.631 32.6482 120.407 32.4124 120.905 32.786V32.786Z" stroke="white"/>
<path d="M130.096 34.9269C128.413 34.9269 126.975 34.5002 125.78 33.6469C124.586 32.7936 123.684 31.66 123.074 30.2459C122.465 28.8319 122.16 27.2716 122.16 25.565C122.16 23.6878 122.526 22.0299 123.257 20.5915C123.989 19.1287 125.037 17.9951 126.402 17.1905C127.767 16.386 129.364 15.9837 131.193 15.9837C131.753 15.9837 132.46 16.0203 133.314 16.0935C134.103 16.1386 134.81 16.2046 135.432 16.2914C135.531 16.3053 135.631 16.3129 135.732 16.3129V16.3129C136.86 16.3129 137.775 17.2278 137.775 18.3565V31.4162C137.775 31.9038 137.885 32.2817 138.104 32.5498C138.348 32.7936 138.641 32.9155 138.982 32.9155C139.055 32.9155 139.126 32.9098 139.194 32.8983C139.762 32.8028 140.433 32.6028 140.885 32.9601V32.9601C141.294 33.2833 141.391 33.8906 140.988 34.2212C140.793 34.3812 140.588 34.5067 140.372 34.5977C139.933 34.8172 139.421 34.9269 138.836 34.9269C137.983 34.9269 137.227 34.6343 136.568 34.0492C135.935 33.4641 135.618 32.7571 135.618 31.9281C135.033 32.9033 134.265 33.6469 133.314 34.1589C132.363 34.6709 131.29 34.9269 130.096 34.9269ZM130.132 32.9521C131.229 32.9521 132.217 32.6839 133.094 32.1476C133.972 31.6112 134.63 30.9042 135.069 30.0265C135.41 29.3195 135.581 28.5393 135.581 27.6861V20.5195C135.581 19.1742 134.512 18.0724 133.167 18.0316V18.0316L131.046 17.9585C128.828 17.9585 127.158 18.6533 126.036 20.043C124.915 21.4326 124.354 23.2489 124.354 25.4919C124.354 27.5642 124.842 29.3317 125.817 30.7945C126.817 32.2329 128.255 32.9521 130.132 32.9521Z" stroke="white"/>
</svg>
