<svg width="3840" height="2160" viewBox="0 0 3840 2160" fill="none" xmlns="http://www.w3.org/2000/svg">
<rect width="3840" height="2160" fill="#1C1C1C"/>
<rect width="3840" height="2160" fill="url(#paint0_linear_659_130)"/>
<circle cx="1172.22" cy="168.065" r="9.06455" fill="url(#paint1_linear_659_130)" fill-opacity="0.4"/>
<circle cx="268.033" cy="1292.07" r="9.06455" fill="url(#paint2_linear_659_130)" fill-opacity="0.4"/>
<circle cx="1929.11" cy="1165.17" r="9.06455" fill="url(#paint3_linear_659_130)" fill-opacity="0.4"/>
<circle cx="184.183" cy="192.992" r="4.53228" fill="#6BD5E1"/>
<circle cx="922.948" cy="501.187" r="4.53228" fill="white" fill-opacity="0.4"/>
<circle cx="1933.65" cy="637.155" r="4.53228" fill="#6BD5E1"/>
<circle cx="2604.42" cy="1026.93" r="4.53228" fill="#6BD5E1"/>
<circle cx="3370.53" cy="537.532" r="4.53228" fill="#6BD5E1"/>
<circle cx="2867.29" cy="315.364" r="4.53228" fill="white" fill-opacity="0.4"/>
<circle cx="2599.53" cy="1426.53" r="4.53228" fill="white" fill-opacity="0.4"/>
<circle cx="3604.53" cy="1178.53" r="4.53228" fill="white" fill-opacity="0.4"/>
<circle cx="1240.2" cy="1103.98" r="4.53228" fill="white" fill-opacity="0.4"/>
<circle cx="2889.95" cy="1677.31" r="4.53228" fill="#6BD5E1"/>
<circle cx="1586.93" cy="1688.64" r="4.53228" fill="#6BD5E1"/>
<circle cx="127.532" cy="2155.47" r="4.53228" fill="#6BD5E1"/>
<circle cx="850.429" cy="1990.04" r="4.53228" fill="white" fill-opacity="0.4"/>
<circle cx="3613.53" cy="1975.53" r="4.53228" fill="#6BD5E1"/>
<circle cx="2450.32" cy="1976.44" r="9.06455" fill="url(#paint4_linear_659_130)" fill-opacity="0.4"/>
<path opacity="0.8" d="M390.246 517.607L465.263 446.532L540.28 375.457L582.628 335.333C584.971 333.113 581.356 329.65 579.013 331.87L503.995 402.945L428.979 474.021L386.63 514.144C384.287 516.364 387.903 519.827 390.246 517.607Z" fill="url(#paint5_linear_659_130)" fill-opacity="0.4"/>
<path opacity="0.8" d="M3523.56 866.557L3598.58 795.482L3673.59 724.406L3715.94 684.283C3718.28 682.063 3714.67 678.6 3712.32 680.82L3637.31 751.895L3562.29 822.97L3519.94 863.094C3517.6 865.314 3521.22 868.777 3523.56 866.557Z" fill="url(#paint6_linear_659_130)" fill-opacity="0.4"/>
<path opacity="0.8" d="M3031.05 1975.55L3106.07 1904.47L3181.08 1833.4L3223.43 1793.27C3225.78 1791.05 3222.16 1787.59 3219.82 1789.81L3144.8 1860.89L3069.78 1931.96L3027.43 1972.09C3025.09 1974.31 3028.71 1977.77 3031.05 1975.55Z" fill="url(#paint7_linear_659_130)" fill-opacity="0.4"/>
<path opacity="0.8" d="M1184.91 1241.8L1259.92 1170.72L1334.94 1099.65L1377.29 1059.52C1379.63 1057.3 1376.02 1053.84 1373.67 1056.06L1298.66 1127.14L1223.64 1198.21L1181.29 1238.33C1178.95 1240.55 1182.56 1244.02 1184.91 1241.8Z" fill="url(#paint8_linear_659_130)" fill-opacity="0.4"/>
<path opacity="0.8" d="M263.375 1882.45L338.392 1811.38L413.409 1740.3L455.757 1700.18C458.1 1697.96 454.484 1694.49 452.141 1696.71L377.124 1767.79L302.107 1838.86L259.759 1878.99C257.416 1881.21 261.032 1884.67 263.375 1882.45Z" fill="url(#paint9_linear_659_130)" fill-opacity="0.4"/>
<path fill-rule="evenodd" clip-rule="evenodd" d="M580.615 902.479L580.163 908.507C580.132 908.93 580.508 909.222 580.845 909.033C583.23 907.697 590.699 902.791 594.485 892.008C594.659 891.514 594.193 891.067 593.794 891.346C591.558 892.913 586.67 896.15 583.65 896.766C583.65 896.766 585.584 895.423 586.742 893.36C586.855 893.158 586.846 892.899 586.719 892.717L582.497 886.631C582.247 886.271 581.734 886.42 581.643 886.88L580.329 893.568L574.16 898.953C573.85 899.222 573.913 899.768 574.271 899.912L580.615 902.479Z" fill="url(#paint10_linear_659_130)" fill-opacity="0.4"/>
<path fill-rule="evenodd" clip-rule="evenodd" d="M591.525 900.103C591.134 900.648 590.292 901.77 589.515 902.455C589.36 902.592 589.381 902.822 589.559 902.934L593.665 905.511C593.912 905.666 594.246 905.482 594.204 905.213C594.013 903.981 593.463 901.413 592.072 900.065C591.916 899.914 591.649 899.93 591.525 900.103Z" fill="url(#paint11_linear_659_130)" fill-opacity="0.4"/>
<path fill-rule="evenodd" clip-rule="evenodd" d="M1366.96 576.155L1366.51 582.183C1366.48 582.606 1366.86 582.898 1367.19 582.709C1369.58 581.374 1377.05 576.467 1380.83 565.684C1381.01 565.19 1380.54 564.744 1380.14 565.023C1377.91 566.589 1373.02 569.826 1370 570.442C1370 570.442 1371.93 569.099 1373.09 567.037C1373.21 566.834 1373.2 566.576 1373.07 566.393L1368.85 560.308C1368.6 559.947 1368.08 560.096 1367.99 560.556L1366.68 567.244L1360.51 572.629C1360.2 572.899 1360.26 573.444 1360.62 573.588L1366.96 576.155Z" fill="url(#paint12_linear_659_130)" fill-opacity="0.4"/>
<path fill-rule="evenodd" clip-rule="evenodd" d="M1377.87 573.779C1377.48 574.324 1376.64 575.446 1375.86 576.131C1375.71 576.268 1375.73 576.498 1375.91 576.61L1380.01 579.187C1380.26 579.342 1380.6 579.158 1380.55 578.889C1380.36 577.657 1379.81 575.089 1378.42 573.741C1378.27 573.591 1378 573.606 1377.87 573.779Z" fill="url(#paint13_linear_659_130)" fill-opacity="0.4"/>
<path fill-rule="evenodd" clip-rule="evenodd" d="M2153.32 249.831L2152.87 255.859C2152.83 256.283 2153.21 256.574 2153.55 256.385C2155.93 255.05 2163.4 250.144 2167.19 239.361C2167.36 238.866 2166.9 238.42 2166.5 238.699C2164.26 240.265 2159.37 243.502 2156.35 244.119C2156.35 244.119 2158.29 242.775 2159.45 240.713C2159.56 240.511 2159.55 240.252 2159.42 240.069L2155.2 233.984C2154.95 233.623 2154.44 233.773 2154.35 234.232L2153.03 240.921L2146.86 246.305C2146.55 246.575 2146.62 247.12 2146.97 247.265L2153.32 249.831Z" fill="url(#paint14_linear_659_130)" fill-opacity="0.4"/>
<path fill-rule="evenodd" clip-rule="evenodd" d="M2164.23 247.455C2163.84 248.001 2163 249.122 2162.22 249.807C2162.06 249.944 2162.08 250.174 2162.26 250.286L2166.37 252.863C2166.62 253.019 2166.95 252.834 2166.91 252.565C2166.72 251.333 2166.17 248.765 2164.77 247.417C2164.62 247.267 2164.35 247.283 2164.23 247.455Z" fill="url(#paint15_linear_659_130)" fill-opacity="0.4"/>
<path fill-rule="evenodd" clip-rule="evenodd" d="M2429.78 598.816L2429.33 604.844C2429.3 605.268 2429.68 605.559 2430.01 605.371C2432.4 604.035 2439.87 599.129 2443.65 588.346C2443.83 587.851 2443.36 587.405 2442.96 587.684C2440.73 589.25 2435.84 592.487 2432.82 593.104C2432.82 593.104 2434.75 591.76 2435.91 589.698C2436.02 589.496 2436.01 589.237 2435.89 589.054L2431.67 582.969C2431.42 582.608 2430.9 582.758 2430.81 583.218L2429.5 589.906L2423.33 595.29C2423.02 595.56 2423.08 596.105 2423.44 596.25L2429.78 598.816Z" fill="url(#paint16_linear_659_130)" fill-opacity="0.4"/>
<path fill-rule="evenodd" clip-rule="evenodd" d="M2440.69 596.441C2440.3 596.986 2439.46 598.107 2438.68 598.792C2438.53 598.929 2438.55 599.159 2438.73 599.271L2442.83 601.849C2443.08 602.004 2443.41 601.819 2443.37 601.55C2443.18 600.319 2442.63 597.75 2441.24 596.402C2441.08 596.252 2440.82 596.268 2440.69 596.441Z" fill="url(#paint17_linear_659_130)" fill-opacity="0.4"/>
<path fill-rule="evenodd" clip-rule="evenodd" d="M2857.65 696.048L2857.2 702.076C2857.17 702.5 2857.55 702.792 2857.88 702.603C2860.27 701.267 2867.74 696.361 2871.52 685.578C2871.7 685.083 2871.23 684.637 2870.83 684.916C2868.6 686.482 2863.71 689.719 2860.69 690.336C2860.69 690.336 2862.62 688.992 2863.78 686.93C2863.89 686.728 2863.89 686.469 2863.76 686.287L2859.54 680.201C2859.29 679.84 2858.77 679.99 2858.68 680.45L2857.37 687.138L2851.2 692.522C2850.89 692.792 2850.95 693.337 2851.31 693.482L2857.65 696.048Z" fill="url(#paint18_linear_659_130)" fill-opacity="0.4"/>
<path fill-rule="evenodd" clip-rule="evenodd" d="M2868.56 693.673C2868.17 694.218 2867.33 695.339 2866.55 696.025C2866.4 696.162 2866.42 696.391 2866.6 696.503L2870.7 699.081C2870.95 699.236 2871.28 699.052 2871.24 698.783C2871.05 697.551 2870.5 694.983 2869.11 693.634C2868.96 693.484 2868.69 693.5 2868.56 693.673Z" fill="url(#paint19_linear_659_130)" fill-opacity="0.4"/>
<path fill-rule="evenodd" clip-rule="evenodd" d="M3415.65 1561.05L3415.2 1567.08C3415.17 1567.5 3415.55 1567.79 3415.88 1567.6C3418.27 1566.27 3425.74 1561.36 3429.52 1550.58C3429.7 1550.08 3429.23 1549.64 3428.83 1549.92C3426.6 1551.48 3421.71 1554.72 3418.69 1555.34C3418.69 1555.34 3420.62 1553.99 3421.78 1551.93C3421.89 1551.73 3421.89 1551.47 3421.76 1551.29L3417.54 1545.2C3417.29 1544.84 3416.77 1544.99 3416.68 1545.45L3415.37 1552.14L3409.2 1557.52C3408.89 1557.79 3408.95 1558.34 3409.31 1558.48L3415.65 1561.05Z" fill="url(#paint20_linear_659_130)" fill-opacity="0.4"/>
<path fill-rule="evenodd" clip-rule="evenodd" d="M3426.56 1558.67C3426.17 1559.22 3425.33 1560.34 3424.55 1561.02C3424.4 1561.16 3424.42 1561.39 3424.6 1561.5L3428.7 1564.08C3428.95 1564.24 3429.28 1564.05 3429.24 1563.78C3429.05 1562.55 3428.5 1559.98 3427.11 1558.63C3426.96 1558.48 3426.69 1558.5 3426.56 1558.67Z" fill="url(#paint21_linear_659_130)" fill-opacity="0.4"/>
<path fill-rule="evenodd" clip-rule="evenodd" d="M3079.65 1229.05L3079.2 1235.08C3079.17 1235.5 3079.55 1235.79 3079.88 1235.6C3082.27 1234.27 3089.74 1229.36 3093.52 1218.58C3093.7 1218.08 3093.23 1217.64 3092.83 1217.92C3090.6 1219.48 3085.71 1222.72 3082.69 1223.34C3082.69 1223.34 3084.62 1221.99 3085.78 1219.93C3085.89 1219.73 3085.89 1219.47 3085.76 1219.29L3081.54 1213.2C3081.29 1212.84 3080.77 1212.99 3080.68 1213.45L3079.37 1220.14L3073.2 1225.52C3072.89 1225.79 3072.95 1226.34 3073.31 1226.48L3079.65 1229.05Z" fill="url(#paint22_linear_659_130)" fill-opacity="0.4"/>
<path fill-rule="evenodd" clip-rule="evenodd" d="M3090.56 1226.67C3090.17 1227.22 3089.33 1228.34 3088.55 1229.02C3088.4 1229.16 3088.42 1229.39 3088.6 1229.5L3092.7 1232.08C3092.95 1232.24 3093.28 1232.05 3093.24 1231.78C3093.05 1230.55 3092.5 1227.98 3091.11 1226.63C3090.96 1226.48 3090.69 1226.5 3090.56 1226.67Z" fill="url(#paint23_linear_659_130)" fill-opacity="0.4"/>
<path fill-rule="evenodd" clip-rule="evenodd" d="M2132.92 1604.98L2132.47 1611.01C2132.44 1611.43 2132.81 1611.72 2133.15 1611.54C2135.53 1610.2 2143 1605.29 2146.79 1594.51C2146.96 1594.02 2146.5 1593.57 2146.1 1593.85C2143.86 1595.42 2138.98 1598.65 2135.95 1599.27C2135.95 1599.27 2137.89 1597.93 2139.05 1595.86C2139.16 1595.66 2139.15 1595.4 2139.02 1595.22L2134.8 1589.13C2134.55 1588.77 2134.04 1588.92 2133.95 1589.38L2132.63 1596.07L2126.46 1601.46C2126.16 1601.73 2126.22 1602.27 2126.58 1602.42L2132.92 1604.98Z" fill="url(#paint24_linear_659_130)" fill-opacity="0.4"/>
<path fill-rule="evenodd" clip-rule="evenodd" d="M2143.83 1602.61C2143.44 1603.15 2142.6 1604.27 2141.82 1604.96C2141.66 1605.09 2141.69 1605.32 2141.86 1605.44L2145.97 1608.01C2146.22 1608.17 2146.55 1607.98 2146.51 1607.72C2146.32 1606.48 2145.77 1603.92 2144.38 1602.57C2144.22 1602.42 2143.95 1602.43 2143.83 1602.61Z" fill="url(#paint25_linear_659_130)" fill-opacity="0.4"/>
<path fill-rule="evenodd" clip-rule="evenodd" d="M768.703 1539.26L768.251 1545.29C768.219 1545.72 768.596 1546.01 768.933 1545.82C771.317 1544.48 778.787 1539.58 782.573 1528.79C782.747 1528.3 782.28 1527.85 781.882 1528.13C779.646 1529.7 774.758 1532.93 771.738 1533.55C771.738 1533.55 773.672 1532.21 774.83 1530.15C774.943 1529.94 774.934 1529.68 774.807 1529.5L770.585 1523.42C770.335 1523.06 769.822 1523.21 769.731 1523.66L768.417 1530.35L762.248 1535.74C761.938 1536.01 762.001 1536.55 762.358 1536.7L768.703 1539.26Z" fill="url(#paint26_linear_659_130)" fill-opacity="0.4"/>
<path fill-rule="evenodd" clip-rule="evenodd" d="M779.613 1536.89C779.222 1537.43 778.38 1538.55 777.603 1539.24C777.448 1539.38 777.469 1539.61 777.647 1539.72L781.753 1542.3C782 1542.45 782.334 1542.27 782.292 1542C782.101 1540.77 781.551 1538.2 780.16 1536.85C780.004 1536.7 779.736 1536.72 779.613 1536.89Z" fill="url(#paint27_linear_659_130)" fill-opacity="0.4"/>
<path fill-rule="evenodd" clip-rule="evenodd" d="M1591.32 1992.49L1590.87 1998.52C1590.83 1998.94 1591.21 1999.23 1591.55 1999.05C1593.93 1997.71 1601.4 1992.8 1605.19 1982.02C1605.36 1981.53 1604.9 1981.08 1604.5 1981.36C1602.26 1982.92 1597.37 1986.16 1594.35 1986.78C1594.35 1986.78 1596.29 1985.44 1597.45 1983.37C1597.56 1983.17 1597.55 1982.91 1597.42 1982.73L1593.2 1976.64C1592.95 1976.28 1592.44 1976.43 1592.35 1976.89L1591.03 1983.58L1584.86 1988.96C1584.55 1989.23 1584.62 1989.78 1584.97 1989.92L1591.32 1992.49Z" fill="url(#paint28_linear_659_130)" fill-opacity="0.4"/>
<path fill-rule="evenodd" clip-rule="evenodd" d="M1602.23 1990.12C1601.84 1990.66 1601 1991.78 1600.22 1992.47C1600.06 1992.6 1600.08 1992.83 1600.26 1992.95L1604.37 1995.52C1604.62 1995.68 1604.95 1995.49 1604.91 1995.23C1604.72 1993.99 1604.17 1991.43 1602.77 1990.08C1602.62 1989.93 1602.35 1989.94 1602.23 1990.12Z" fill="url(#paint29_linear_659_130)" fill-opacity="0.4"/>
<rect y="1693" width="3840" height="467" fill="url(#paint30_linear_659_130)"/>
<defs>
<linearGradient id="paint0_linear_659_130" x1="1920" y1="0" x2="1920" y2="2160" gradientUnits="userSpaceOnUse">
<stop/>
<stop offset="0.512358" stop-opacity="0"/>
</linearGradient>
<linearGradient id="paint1_linear_659_130" x1="1163.16" y1="168.065" x2="1181.29" y2="168.065" gradientUnits="userSpaceOnUse">
<stop stop-color="white"/>
<stop offset="1" stop-color="white" stop-opacity="0.3"/>
</linearGradient>
<linearGradient id="paint2_linear_659_130" x1="258.969" y1="1292.07" x2="277.098" y2="1292.07" gradientUnits="userSpaceOnUse">
<stop stop-color="white"/>
<stop offset="1" stop-color="white" stop-opacity="0.3"/>
</linearGradient>
<linearGradient id="paint3_linear_659_130" x1="1920.05" y1="1165.17" x2="1938.18" y2="1165.17" gradientUnits="userSpaceOnUse">
<stop stop-color="white"/>
<stop offset="1" stop-color="white" stop-opacity="0.3"/>
</linearGradient>
<linearGradient id="paint4_linear_659_130" x1="2441.26" y1="1976.44" x2="2459.39" y2="1976.44" gradientUnits="userSpaceOnUse">
<stop stop-color="white"/>
<stop offset="1" stop-color="white" stop-opacity="0.3"/>
</linearGradient>
<linearGradient id="paint5_linear_659_130" x1="385.871" y1="424.739" x2="583.387" y2="424.739" gradientUnits="userSpaceOnUse">
<stop stop-color="white"/>
<stop offset="1" stop-color="white" stop-opacity="0.3"/>
</linearGradient>
<linearGradient id="paint6_linear_659_130" x1="3519.18" y1="773.688" x2="3716.7" y2="773.688" gradientUnits="userSpaceOnUse">
<stop stop-color="white"/>
<stop offset="1" stop-color="white" stop-opacity="0.3"/>
</linearGradient>
<linearGradient id="paint7_linear_659_130" x1="3026.68" y1="1882.68" x2="3224.19" y2="1882.68" gradientUnits="userSpaceOnUse">
<stop stop-color="white"/>
<stop offset="1" stop-color="white" stop-opacity="0.3"/>
</linearGradient>
<linearGradient id="paint8_linear_659_130" x1="1180.53" y1="1148.93" x2="1378.05" y2="1148.93" gradientUnits="userSpaceOnUse">
<stop stop-color="white"/>
<stop offset="1" stop-color="white" stop-opacity="0.3"/>
</linearGradient>
<linearGradient id="paint9_linear_659_130" x1="259" y1="1789.58" x2="456.516" y2="1789.58" gradientUnits="userSpaceOnUse">
<stop stop-color="white"/>
<stop offset="1" stop-color="white" stop-opacity="0.3"/>
</linearGradient>
<linearGradient id="paint10_linear_659_130" x1="573.961" y1="897.761" x2="594.523" y2="897.761" gradientUnits="userSpaceOnUse">
<stop stop-color="white"/>
<stop offset="1" stop-color="white" stop-opacity="0.3"/>
</linearGradient>
<linearGradient id="paint11_linear_659_130" x1="573.961" y1="897.761" x2="594.523" y2="897.761" gradientUnits="userSpaceOnUse">
<stop stop-color="white"/>
<stop offset="1" stop-color="white" stop-opacity="0.3"/>
</linearGradient>
<linearGradient id="paint12_linear_659_130" x1="1360.31" y1="571.437" x2="1380.87" y2="571.437" gradientUnits="userSpaceOnUse">
<stop stop-color="white"/>
<stop offset="1" stop-color="white" stop-opacity="0.3"/>
</linearGradient>
<linearGradient id="paint13_linear_659_130" x1="1360.31" y1="571.437" x2="1380.87" y2="571.437" gradientUnits="userSpaceOnUse">
<stop stop-color="white"/>
<stop offset="1" stop-color="white" stop-opacity="0.3"/>
</linearGradient>
<linearGradient id="paint14_linear_659_130" x1="2146.66" y1="245.113" x2="2167.23" y2="245.113" gradientUnits="userSpaceOnUse">
<stop stop-color="white"/>
<stop offset="1" stop-color="white" stop-opacity="0.3"/>
</linearGradient>
<linearGradient id="paint15_linear_659_130" x1="2146.66" y1="245.113" x2="2167.23" y2="245.113" gradientUnits="userSpaceOnUse">
<stop stop-color="white"/>
<stop offset="1" stop-color="white" stop-opacity="0.3"/>
</linearGradient>
<linearGradient id="paint16_linear_659_130" x1="2423.13" y1="594.099" x2="2443.69" y2="594.099" gradientUnits="userSpaceOnUse">
<stop stop-color="white"/>
<stop offset="1" stop-color="white" stop-opacity="0.3"/>
</linearGradient>
<linearGradient id="paint17_linear_659_130" x1="2423.13" y1="594.099" x2="2443.69" y2="594.099" gradientUnits="userSpaceOnUse">
<stop stop-color="white"/>
<stop offset="1" stop-color="white" stop-opacity="0.3"/>
</linearGradient>
<linearGradient id="paint18_linear_659_130" x1="2851" y1="691.331" x2="2871.56" y2="691.331" gradientUnits="userSpaceOnUse">
<stop stop-color="white"/>
<stop offset="1" stop-color="white" stop-opacity="0.3"/>
</linearGradient>
<linearGradient id="paint19_linear_659_130" x1="2851" y1="691.331" x2="2871.56" y2="691.331" gradientUnits="userSpaceOnUse">
<stop stop-color="white"/>
<stop offset="1" stop-color="white" stop-opacity="0.3"/>
</linearGradient>
<linearGradient id="paint20_linear_659_130" x1="3409" y1="1556.33" x2="3429.56" y2="1556.33" gradientUnits="userSpaceOnUse">
<stop stop-color="white"/>
<stop offset="1" stop-color="white" stop-opacity="0.3"/>
</linearGradient>
<linearGradient id="paint21_linear_659_130" x1="3409" y1="1556.33" x2="3429.56" y2="1556.33" gradientUnits="userSpaceOnUse">
<stop stop-color="white"/>
<stop offset="1" stop-color="white" stop-opacity="0.3"/>
</linearGradient>
<linearGradient id="paint22_linear_659_130" x1="3073" y1="1224.33" x2="3093.56" y2="1224.33" gradientUnits="userSpaceOnUse">
<stop stop-color="white"/>
<stop offset="1" stop-color="white" stop-opacity="0.3"/>
</linearGradient>
<linearGradient id="paint23_linear_659_130" x1="3073" y1="1224.33" x2="3093.56" y2="1224.33" gradientUnits="userSpaceOnUse">
<stop stop-color="white"/>
<stop offset="1" stop-color="white" stop-opacity="0.3"/>
</linearGradient>
<linearGradient id="paint24_linear_659_130" x1="2126.27" y1="1600.26" x2="2146.83" y2="1600.26" gradientUnits="userSpaceOnUse">
<stop stop-color="white"/>
<stop offset="1" stop-color="white" stop-opacity="0.3"/>
</linearGradient>
<linearGradient id="paint25_linear_659_130" x1="2126.27" y1="1600.26" x2="2146.83" y2="1600.26" gradientUnits="userSpaceOnUse">
<stop stop-color="white"/>
<stop offset="1" stop-color="white" stop-opacity="0.3"/>
</linearGradient>
<linearGradient id="paint26_linear_659_130" x1="762.049" y1="1534.55" x2="782.611" y2="1534.55" gradientUnits="userSpaceOnUse">
<stop stop-color="white"/>
<stop offset="1" stop-color="white" stop-opacity="0.3"/>
</linearGradient>
<linearGradient id="paint27_linear_659_130" x1="762.049" y1="1534.55" x2="782.611" y2="1534.55" gradientUnits="userSpaceOnUse">
<stop stop-color="white"/>
<stop offset="1" stop-color="white" stop-opacity="0.3"/>
</linearGradient>
<linearGradient id="paint28_linear_659_130" x1="1584.66" y1="1987.77" x2="1605.23" y2="1987.77" gradientUnits="userSpaceOnUse">
<stop stop-color="white"/>
<stop offset="1" stop-color="white" stop-opacity="0.3"/>
</linearGradient>
<linearGradient id="paint29_linear_659_130" x1="1584.66" y1="1987.77" x2="1605.23" y2="1987.77" gradientUnits="userSpaceOnUse">
<stop stop-color="white"/>
<stop offset="1" stop-color="white" stop-opacity="0.3"/>
</linearGradient>
<linearGradient id="paint30_linear_659_130" x1="1920" y1="1693" x2="1920" y2="2160" gradientUnits="userSpaceOnUse">
<stop stop-color="#1C1C1C" stop-opacity="0"/>
<stop offset="0.817708" stop-color="#1C1C1C"/>
</linearGradient>
</defs>
</svg>
