<svg width="101" height="101" viewBox="0 0 101 101" fill="none" xmlns="http://www.w3.org/2000/svg">
<path d="M74.0823 21.0803H21.2578V85.2448H74.0823V21.0803Z" fill="#6BD5E1"/>
<path d="M74.0823 85.6354H21.2578C21.1542 85.6354 21.0549 85.5942 20.9816 85.521C20.9083 85.4477 20.8672 85.3483 20.8672 85.2447V21.0803C20.8672 20.9767 20.9083 20.8774 20.9816 20.8041C21.0549 20.7309 21.1542 20.6897 21.2578 20.6897H74.0823C74.1859 20.6897 74.2853 20.7309 74.3586 20.8041C74.4318 20.8774 74.473 20.9767 74.473 21.0803V85.2447C74.473 85.3483 74.4318 85.4477 74.3586 85.521C74.2853 85.5942 74.1859 85.6354 74.0823 85.6354ZM21.6484 84.8541H73.6917V21.471H21.6484V84.8541Z" fill="#093F68"/>
<path d="M80.4769 16.1819H27.6523V80.3463H80.4769V16.1819Z" fill="white"/>
<path d="M80.4769 80.7369H27.6523C27.5487 80.7369 27.4494 80.6958 27.3761 80.6225C27.3029 80.5493 27.2617 80.4499 27.2617 80.3463V16.1819C27.2617 16.0783 27.3029 15.9789 27.3761 15.9057C27.4494 15.8324 27.5487 15.7913 27.6523 15.7913H80.4769C80.5805 15.7913 80.6798 15.8324 80.7531 15.9057C80.8263 15.9789 80.8675 16.0783 80.8675 16.1819V80.3463C80.8675 80.4499 80.8263 80.5493 80.7531 80.6225C80.6798 80.6958 80.5805 80.7369 80.4769 80.7369ZM28.043 79.9557H80.0862V16.5725H28.043V79.9557Z" fill="#093F68"/>
<path d="M55.8517 22.4164H32.8398V46.104H55.8517V22.4164Z" fill="#6BD5E1"/>
<path d="M55.8478 46.4946H32.8398C32.7362 46.4946 32.6369 46.4535 32.5636 46.3802C32.4904 46.307 32.4492 46.2076 32.4492 46.104V22.4164C32.4492 22.3128 32.4904 22.2134 32.5636 22.1402C32.6369 22.0669 32.7362 22.0258 32.8398 22.0258H55.8478C55.9514 22.0258 56.0507 22.0669 56.124 22.1402C56.1973 22.2134 56.2384 22.3128 56.2384 22.4164V46.104C56.2384 46.2076 56.1973 46.307 56.124 46.3802C56.0507 46.4535 55.9514 46.4946 55.8478 46.4946ZM33.2305 45.7134H55.4572V22.807H33.2305V45.7134Z" fill="#093F68"/>
<path d="M50.2227 43.8189V46.104H38.5039V43.8189C38.5039 42.767 38.9215 41.7581 39.665 41.0139C40.4084 40.2697 41.4169 39.8511 42.4688 39.8501H46.2579C46.7789 39.8501 47.2948 39.9528 47.776 40.1523C48.2573 40.3518 48.6946 40.6442 49.0628 41.0128C49.431 41.3813 49.723 41.8189 49.922 42.3004C50.1211 42.7819 50.2232 43.2979 50.2227 43.8189V43.8189Z" fill="white"/>
<path d="M50.2227 46.4947H38.5039C38.4003 46.4947 38.3009 46.4535 38.2277 46.3803C38.1544 46.307 38.1133 46.2076 38.1133 46.104V43.8189C38.1143 42.6637 38.5734 41.556 39.3899 40.7388C40.2064 39.9216 41.3136 39.4615 42.4688 39.4595H46.2579C47.4124 39.4626 48.5186 39.9231 49.3342 40.7402C50.1499 41.5573 50.6084 42.6644 50.6094 43.8189V46.104C50.6094 46.207 50.5688 46.3057 50.4964 46.3789C50.424 46.452 50.3256 46.4936 50.2227 46.4947ZM38.8945 45.7134H49.8321V43.8189C49.8321 42.8712 49.4562 41.9623 48.7868 41.2915C48.1175 40.6207 47.2094 40.2428 46.2618 40.2407H42.4727C41.5244 40.2418 40.6153 40.6192 39.9451 41.2901C39.2749 41.961 38.8984 42.8706 38.8984 43.8189L38.8945 45.7134Z" fill="#093F68"/>
<path d="M43.4219 40.2407L44.5 45.397L45.4141 40.2407H43.4219Z" fill="#093F68"/>
<path d="M44.5009 45.7876C44.4095 45.7894 44.3204 45.7592 44.249 45.7021C44.1777 45.645 44.1286 45.5647 44.1103 45.4751L43.0556 40.3227C43.0432 40.265 43.044 40.2053 43.058 40.148C43.072 40.0906 43.0988 40.0372 43.1364 39.9918C43.174 39.9463 43.2214 39.9099 43.2751 39.8854C43.3287 39.8608 43.3872 39.8488 43.4462 39.8501H45.3994C45.4568 39.85 45.5135 39.8625 45.5654 39.8868C45.6174 39.9111 45.6634 39.9466 45.7002 39.9907C45.7371 40.0345 45.764 40.0859 45.7788 40.1413C45.7937 40.1966 45.7961 40.2546 45.7861 40.311L44.8681 45.4634C44.8523 45.5551 44.8043 45.6382 44.7327 45.6976C44.661 45.757 44.5706 45.789 44.4775 45.7876H44.5009ZM43.9033 40.6313L44.4697 43.3384L44.9502 40.6313H43.9033Z" fill="#093F68"/>
<path d="M43.8672 23.7054C44.1127 23.6664 44.3609 23.6468 44.6094 23.6469C45.754 23.6469 46.9219 23.6156 47.9688 24.1273C49.0262 24.65 49.9173 25.4567 50.5424 26.457C51.1674 27.4573 51.5017 28.6119 51.5079 29.7914L51.2657 34.4789H37.5352C37.5097 34.186 37.5295 33.8909 37.5938 33.6039C37.5852 33.2974 37.5393 32.9931 37.457 32.6977C37.2908 31.927 37.1992 31.1422 37.1836 30.3539C37.1869 29.1225 37.4422 27.9049 37.9336 26.7758C38.1656 26.0798 38.5861 25.4618 39.1484 24.9906C39.75 24.5687 40.711 24.5531 41.125 25.1508C41.8527 24.3771 42.8177 23.8685 43.8672 23.7054V23.7054Z" fill="#725858"/>
<path d="M51.2579 34.8734H37.5352C37.448 34.8769 37.3622 34.8511 37.2914 34.8001C37.2206 34.7491 37.1689 34.6759 37.1445 34.5922C37.0894 34.3452 37.0894 34.0891 37.1445 33.8422C37.1612 33.7596 37.1729 33.6761 37.1797 33.5921C37.178 33.3861 37.1491 33.1812 37.0938 32.9828C37.0938 32.9164 37.0625 32.8461 37.0508 32.7757C36.895 31.9935 36.8126 31.1983 36.8047 30.4007C36.8064 29.1155 37.0723 27.8444 37.5859 26.6663C37.8368 25.8941 38.3014 25.2088 38.9258 24.6898C39.2432 24.4576 39.6234 24.3266 40.0165 24.3141C40.4096 24.3016 40.7973 24.408 41.1289 24.6194C41.8815 23.9384 42.8173 23.493 43.8204 23.3382C44.078 23.2914 44.3398 23.2705 44.6016 23.2757H44.8047C45.918 23.2757 47.0704 23.2757 48.1329 23.7952C49.2563 24.3498 50.203 25.2064 50.8668 26.269C51.5305 27.3315 51.8851 28.558 51.8907 29.8109C51.8907 29.8109 51.8907 29.8109 51.6485 34.5218C51.6388 34.6185 51.5934 34.7081 51.5212 34.7731C51.4489 34.8381 51.3551 34.8739 51.2579 34.8734ZM37.9102 34.0922H50.8868C50.9415 32.9906 51.1055 29.7953 51.1095 29.7718C51.1017 28.6683 50.7871 27.5888 50.2007 26.654C49.6143 25.7192 48.7793 24.966 47.7891 24.4788C46.8868 24.0374 45.8751 24.0374 44.8047 24.0374H44.6172C44.3899 24.0409 44.1629 24.0578 43.9375 24.0882V24.0882C42.9711 24.2349 42.0822 24.7027 41.4141 25.4163C41.3746 25.4591 41.3261 25.4926 41.272 25.5142C41.2179 25.5358 41.1597 25.5451 41.1016 25.5413C41.0436 25.5375 40.9873 25.5208 40.9366 25.4924C40.8859 25.464 40.8422 25.4247 40.8086 25.3773C40.5156 24.9866 39.8086 24.9866 39.375 25.3109C38.8735 25.7451 38.5028 26.3105 38.3047 26.9437C37.8326 28.0242 37.588 29.1903 37.5859 30.3695C37.6031 31.1275 37.692 31.8822 37.8516 32.6234C37.8516 32.6859 37.8789 32.7484 37.8906 32.8148C37.9633 33.0781 37.9988 33.3503 37.9961 33.6234C37.9961 33.7367 37.9688 33.8539 37.9492 33.975C37.9297 34.014 37.9258 34.0531 37.918 34.0922H37.9102Z" fill="#093F68"/>
<path d="M43.4219 39.0962H45.3984V40.2446C45.3984 40.4694 45.3091 40.6851 45.1502 40.844C44.9912 41.003 44.7756 41.0923 44.5508 41.0923H44.25C44.0252 41.0923 43.8096 41.003 43.6506 40.844C43.4916 40.6851 43.4023 40.4694 43.4023 40.2446V39.0962H43.4219Z" fill="#FFC9B0"/>
<path d="M44.5703 41.479H44.2695C43.9411 41.479 43.6262 41.3486 43.3939 41.1163C43.1617 40.8841 43.0313 40.5691 43.0312 40.2407V39.0962C43.0312 38.9926 43.0724 38.8932 43.1457 38.82C43.2189 38.7467 43.3183 38.7056 43.4219 38.7056H45.3985C45.5021 38.7056 45.6014 38.7467 45.6747 38.82C45.7479 38.8932 45.7891 38.9926 45.7891 39.0962V40.2407C45.7891 40.5658 45.6613 40.8778 45.4333 41.1095C45.2053 41.3412 44.8953 41.4739 44.5703 41.479ZM43.8125 39.4868V40.2407C43.8125 40.3619 43.8607 40.4782 43.9464 40.5639C44.0321 40.6496 44.1483 40.6978 44.2695 40.6978H44.5703C44.6302 40.6978 44.6894 40.6859 44.7446 40.6629C44.7999 40.6399 44.85 40.6062 44.8921 40.5637C44.9342 40.5212 44.9675 40.4708 44.9901 40.4153C45.0126 40.3599 45.024 40.3006 45.0234 40.2407V39.4868H43.8125Z" fill="#093F68"/>
<path d="M39.0508 35.5845C40.0583 35.5845 40.875 34.8377 40.875 33.9165C40.875 32.9953 40.0583 32.2485 39.0508 32.2485C38.0433 32.2485 37.2266 32.9953 37.2266 33.9165C37.2266 34.8377 38.0433 35.5845 39.0508 35.5845Z" fill="#FFC9B0"/>
<path d="M39.0508 35.9751C38.6505 35.9455 38.2676 35.7997 37.949 35.5556C37.6303 35.3116 37.3898 34.9798 37.257 34.6011C37.1241 34.2224 37.1046 33.8131 37.2008 33.4235C37.2971 33.0338 37.505 32.6807 37.799 32.4075C38.093 32.1343 38.4603 31.9527 38.8559 31.8851C39.2516 31.8176 39.6583 31.8669 40.0263 32.0271C40.3943 32.1873 40.7076 32.4514 40.9277 32.787C41.1479 33.1226 41.2653 33.5151 41.2656 33.9165C41.2433 34.4826 40.9978 35.0169 40.5828 35.4026C40.1678 35.7883 39.617 35.9941 39.0508 35.9751V35.9751ZM39.0508 32.6391C38.8046 32.6678 38.572 32.767 38.3809 32.9247C38.1898 33.0825 38.0484 33.2922 37.9738 33.5285C37.8991 33.7648 37.8944 34.0177 37.9601 34.2566C38.0258 34.4955 38.1593 34.7104 38.3443 34.8752C38.5293 35.0401 38.7581 35.148 39.003 35.1858C39.2479 35.2236 39.4985 35.1899 39.7247 35.0886C39.9508 34.9872 40.1429 34.8227 40.2776 34.6148C40.4124 34.4068 40.4842 34.1643 40.4844 33.9165C40.4612 33.5579 40.2978 33.2229 40.0296 32.9838C39.7613 32.7448 39.4097 32.6209 39.0508 32.6391V32.6391Z" fill="#093F68"/>
<path d="M49.6836 35.5845C50.6911 35.5845 51.5078 34.8377 51.5078 33.9165C51.5078 32.9953 50.6911 32.2485 49.6836 32.2485C48.6761 32.2485 47.8594 32.9953 47.8594 33.9165C47.8594 34.8377 48.6761 35.5845 49.6836 35.5845Z" fill="#FFC9B0"/>
<path d="M49.6953 35.9751C49.2951 35.9455 48.9121 35.7997 48.5935 35.5556C48.2749 35.3116 48.0344 34.9798 47.9015 34.6011C47.7686 34.2224 47.7491 33.8131 47.8454 33.4235C47.9417 33.0338 48.1495 32.6807 48.4435 32.4075C48.7375 32.1343 49.1048 31.9527 49.5005 31.8851C49.8961 31.8176 50.3028 31.8669 50.6709 32.0271C51.0389 32.1873 51.3521 32.4514 51.5723 32.787C51.7924 33.1226 51.9098 33.5151 51.9102 33.9165C51.8888 34.483 51.6436 35.0178 51.2284 35.4038C50.8132 35.7897 50.2618 35.9952 49.6953 35.9751V35.9751ZM49.6953 32.6391C49.4492 32.6678 49.2165 32.767 49.0254 32.9247C48.8344 33.0825 48.693 33.2922 48.6183 33.5285C48.5436 33.7648 48.5389 34.0177 48.6046 34.2566C48.6704 34.4955 48.8038 34.7104 48.9888 34.8752C49.1738 35.0401 49.4026 35.148 49.6475 35.1858C49.8924 35.2236 50.143 35.1899 50.3692 35.0886C50.5953 34.9872 50.7874 34.8227 50.9222 34.6148C51.057 34.4068 51.1288 34.1643 51.1289 33.9165C51.1068 33.5575 50.9437 33.2219 50.6752 32.9826C50.4066 32.7434 50.0545 32.6199 49.6953 32.6391Z" fill="#093F68"/>
<path d="M44.418 39.3579C43.6485 39.3579 42.8866 39.2063 42.1757 38.9118C41.4648 38.6174 40.8189 38.1858 40.2748 37.6417C39.7307 37.0976 39.2991 36.4516 39.0046 35.7407C38.7101 35.0298 38.5586 34.2679 38.5586 33.4984V30.3734C38.5586 30.3734 40.0273 29.5336 40.4649 28.2133C40.4649 28.2133 42.711 30.768 44.875 30.5922C46.6749 30.4401 48.4653 30.191 50.2383 29.8461V33.5258C50.2312 35.0683 49.616 36.5458 48.5264 37.6376C47.4368 38.7295 45.9605 39.3476 44.418 39.3579Z" fill="#FFC9B0"/>
<path d="M44.418 39.7484C42.7604 39.7484 41.1707 39.09 39.9986 37.9179C38.8264 36.7457 38.168 35.156 38.168 33.4984V30.3734C38.1684 30.3052 38.1866 30.2383 38.2209 30.1794C38.2552 30.1205 38.3042 30.0715 38.3633 30.0375C38.3633 30.0375 39.7109 29.2562 40.0938 28.0843C40.1152 28.0189 40.1535 27.9604 40.2049 27.9146C40.2562 27.8688 40.3188 27.8373 40.3862 27.8235C40.4536 27.8096 40.5234 27.8138 40.5887 27.8356C40.6539 27.8574 40.7123 27.896 40.7578 27.9476C40.7813 27.971 42.8985 30.3539 44.8438 30.1976C46.6279 30.0448 48.4025 29.7971 50.1602 29.4554C50.2176 29.4437 50.2769 29.445 50.3338 29.4593C50.3906 29.4736 50.4435 29.5005 50.4885 29.538C50.5335 29.5756 50.5695 29.6227 50.5938 29.676C50.6182 29.7294 50.6302 29.7875 50.629 29.846V33.5258C50.6218 35.1719 49.9655 36.7487 48.8026 37.9138C47.6397 39.0789 46.0641 39.7382 44.418 39.7484ZM38.9492 30.5882V33.5258C38.8853 34.2801 38.9787 35.0396 39.2235 35.756C39.4683 36.4724 39.8593 37.1302 40.3715 37.6877C40.8837 38.2452 41.5062 38.6902 42.1994 38.9947C42.8925 39.2991 43.6414 39.4563 44.3985 39.4563C45.1556 39.4563 45.9044 39.2991 46.5976 38.9947C47.2908 38.6902 47.9132 38.2452 48.4254 37.6877C48.9377 37.1302 49.3286 36.4724 49.5734 35.756C49.8182 35.0396 49.9116 34.2801 49.8477 33.5258V30.3148C48.9766 30.475 46.9961 30.8109 44.9063 30.9789C43.1289 31.1156 41.3672 29.6507 40.5859 28.8968C40.1781 29.5729 39.6258 30.1504 38.9687 30.5882H38.9492Z" fill="#093F68"/>
<path d="M44.3868 34.8735C44.1983 34.8734 44.0102 34.8578 43.8243 34.8267C43.773 34.8177 43.724 34.7987 43.68 34.7708C43.6361 34.7428 43.598 34.7065 43.5681 34.6639C43.5382 34.6213 43.5169 34.5732 43.5056 34.5224C43.4943 34.4715 43.4931 34.419 43.502 34.3677C43.511 34.3164 43.53 34.2674 43.5579 34.2234C43.5858 34.1794 43.6222 34.1414 43.6648 34.1115C43.7074 34.0816 43.7555 34.0603 43.8063 34.049C43.8572 34.0376 43.9097 34.0364 43.961 34.0454C44.1314 34.0732 44.304 34.085 44.4766 34.0806C44.3808 33.7398 44.2498 33.41 44.086 33.0962C44.0384 33.004 44.0293 32.8966 44.0608 32.7977C44.0923 32.6988 44.1618 32.6165 44.254 32.5688C44.3462 32.5212 44.4536 32.5121 44.5525 32.5436C44.6513 32.5751 44.7337 32.6446 44.7813 32.7368C45.2306 33.6001 45.3868 34.2017 45.2423 34.5181C45.212 34.5904 45.1651 34.6547 45.1054 34.7056C45.0456 34.7565 44.9748 34.7926 44.8985 34.811C44.7311 34.8526 44.5593 34.8736 44.3868 34.8735V34.8735Z" fill="#093F68"/>
<path d="M41.0625 46.4946C40.9589 46.4946 40.8595 46.4535 40.7863 46.3802C40.713 46.307 40.6719 46.2076 40.6719 46.104V44.1509C40.6719 44.0473 40.713 43.9479 40.7863 43.8747C40.8595 43.8014 40.9589 43.7603 41.0625 43.7603C41.1661 43.7603 41.2655 43.8014 41.3387 43.8747C41.412 43.9479 41.4531 44.0473 41.4531 44.1509V46.104C41.4531 46.2076 41.412 46.307 41.3387 46.3802C41.2655 46.4535 41.1661 46.4946 41.0625 46.4946Z" fill="#093F68"/>
<path d="M47.6719 46.4946C47.5683 46.4946 47.4689 46.4535 47.3957 46.3802C47.3224 46.307 47.2812 46.2076 47.2812 46.104V44.1509C47.2812 44.0473 47.3224 43.9479 47.3957 43.8747C47.4689 43.8014 47.5683 43.7603 47.6719 43.7603C47.7755 43.7603 47.8748 43.8014 47.9481 43.8747C48.0213 43.9479 48.0625 44.0473 48.0625 44.1509V46.104C48.0625 46.2076 48.0213 46.307 47.9481 46.3802C47.8748 46.4535 47.7755 46.4946 47.6719 46.4946Z" fill="#093F68"/>
<path d="M73.5235 27.0023H60.9063C60.8027 27.0023 60.7033 26.9612 60.63 26.8879C60.5568 26.8147 60.5156 26.7153 60.5156 26.6117C60.5156 26.5081 60.5568 26.4087 60.63 26.3355C60.7033 26.2622 60.8027 26.2211 60.9063 26.2211H73.5235C73.6271 26.2211 73.7265 26.2622 73.7997 26.3355C73.873 26.4087 73.9141 26.5081 73.9141 26.6117C73.9141 26.7153 73.873 26.8147 73.7997 26.8879C73.7265 26.9612 73.6271 27.0023 73.5235 27.0023Z" fill="#DFEAEF"/>
<path d="M73.5235 32.639H60.9063C60.8027 32.639 60.7033 32.5979 60.63 32.5246C60.5568 32.4514 60.5156 32.352 60.5156 32.2484C60.5156 32.1448 60.5568 32.0455 60.63 31.9722C60.7033 31.8989 60.8027 31.8578 60.9063 31.8578H73.5235C73.6271 31.8578 73.7265 31.8989 73.7997 31.9722C73.873 32.0455 73.9141 32.1448 73.9141 32.2484C73.9141 32.352 73.873 32.4514 73.7997 32.5246C73.7265 32.5979 73.6271 32.639 73.5235 32.639Z" fill="#DFEAEF"/>
<path d="M73.5235 38.2759H60.9063C60.8027 38.2759 60.7033 38.2347 60.63 38.1615C60.5568 38.0882 60.5156 37.9889 60.5156 37.8853C60.5156 37.7817 60.5568 37.6823 60.63 37.609C60.7033 37.5358 60.8027 37.4946 60.9063 37.4946H73.5235C73.6271 37.4946 73.7265 37.5358 73.7997 37.609C73.873 37.6823 73.9141 37.7817 73.9141 37.8853C73.9141 37.9889 73.873 38.0882 73.7997 38.1615C73.7265 38.2347 73.6271 38.2759 73.5235 38.2759Z" fill="#DFEAEF"/>
<path d="M69.1407 43.9126H60.9063C60.8027 43.9126 60.7033 43.8714 60.63 43.7982C60.5568 43.7249 60.5156 43.6256 60.5156 43.522C60.5156 43.4184 60.5568 43.319 60.63 43.2458C60.7033 43.1725 60.8027 43.1313 60.9063 43.1313H69.1407C69.2443 43.1313 69.3436 43.1725 69.4169 43.2458C69.4901 43.319 69.5313 43.4184 69.5313 43.522C69.5313 43.6256 69.4901 43.7249 69.4169 43.7982C69.3436 43.8714 69.2443 43.9126 69.1407 43.9126V43.9126Z" fill="#DFEAEF"/>
<path d="M35.707 51.7368C34.9656 51.7378 34.2548 52.0329 33.7305 52.5571C33.2062 53.0814 32.9112 53.7922 32.9102 54.5337C32.9102 56.0767 35.707 59.6119 35.707 59.6119C35.707 59.6119 38.5078 56.0767 38.5078 54.5337C38.5068 53.7916 38.2113 53.0802 37.6861 52.5558C37.161 52.0314 36.4492 51.7368 35.707 51.7368V51.7368ZM35.707 55.6431C35.4623 55.6423 35.2233 55.569 35.0202 55.4325C34.817 55.296 34.6589 55.1023 34.5658 54.876C34.4727 54.6496 34.4487 54.4008 34.4969 54.1608C34.5452 53.9209 34.6634 53.7006 34.8367 53.5278C35.0101 53.355 35.2307 53.2375 35.4708 53.19C35.7109 53.1426 35.9597 53.1673 36.1857 53.2612C36.4118 53.355 36.6049 53.5137 36.7408 53.7173C36.8767 53.9208 36.9492 54.1601 36.9492 54.4048C36.9492 54.5676 36.9171 54.7287 36.8545 54.879C36.792 55.0293 36.7004 55.1657 36.5849 55.2804C36.4695 55.3951 36.3325 55.4859 36.1818 55.5475C36.0312 55.609 35.8698 55.6402 35.707 55.6392V55.6431Z" fill="#6BD5E1"/>
<path d="M35.7071 60.0024C35.6487 60.0026 35.591 59.9897 35.5383 59.9647C35.4856 59.9397 35.4391 59.9032 35.4024 59.8579C35.1055 59.4673 32.5195 56.1665 32.5195 54.5336C32.5485 53.7071 32.8972 52.924 33.4921 52.3495C34.0871 51.775 34.8819 51.4539 35.709 51.4539C36.5361 51.4539 37.3309 51.775 37.9259 52.3495C38.5208 52.924 38.8695 53.7071 38.8985 54.5336C38.8985 56.1665 36.3086 59.4829 36.0156 59.8579C35.9785 59.9037 35.9314 59.9406 35.8779 59.9656C35.8245 59.9906 35.7661 60.0032 35.7071 60.0024V60.0024ZM35.7071 52.1274C35.0695 52.1294 34.4587 52.3836 34.0078 52.8344C33.557 53.2853 33.3028 53.8961 33.3008 54.5336C33.3008 55.5532 34.832 57.8071 35.7071 58.9712C36.586 57.7993 38.1172 55.5532 38.1172 54.5336C38.1152 53.8954 37.8604 53.284 37.4088 52.8331C36.9571 52.3821 36.3453 52.1284 35.7071 52.1274ZM35.7071 56.0337C35.385 56.0329 35.0705 55.9367 34.8031 55.7572C34.5358 55.5778 34.3276 55.3231 34.2049 55.0254C34.0822 54.7277 34.0505 54.4003 34.1138 54.0846C34.1771 53.7688 34.3326 53.479 34.5605 53.2515C34.7885 53.0241 35.0787 52.8694 35.3946 52.8068C35.7105 52.7443 36.0378 52.7768 36.3352 52.9002C36.6326 53.0236 36.8868 53.2324 37.0656 53.5002C37.2444 53.768 37.3399 54.0827 37.3399 54.4047C37.3394 54.6187 37.2967 54.8304 37.2144 55.0278C37.132 55.2252 37.0116 55.4045 36.86 55.5554C36.7084 55.7063 36.5285 55.8259 36.3307 55.9072C36.1329 55.9886 35.921 56.0303 35.7071 56.0298V56.0337ZM35.7071 53.5571C35.5396 53.5579 35.3761 53.6082 35.2372 53.7018C35.0983 53.7954 34.9903 53.9281 34.9267 54.0831C34.8631 54.238 34.8469 54.4083 34.8801 54.5725C34.9132 54.7367 34.9942 54.8873 35.113 55.0055C35.2317 55.1236 35.3827 55.204 35.547 55.2364C35.7113 55.2688 35.8816 55.2518 36.0362 55.1875C36.1909 55.1232 36.3231 55.0146 36.416 54.8753C36.509 54.736 36.5586 54.5722 36.5586 54.4047C36.5591 54.2928 36.5375 54.1818 36.4949 54.0782C36.4522 53.9747 36.3895 53.8806 36.3104 53.8014C36.2312 53.7223 36.1371 53.6596 36.0335 53.6169C35.93 53.5743 35.819 53.5527 35.7071 53.5532V53.5571Z" fill="#093F68"/>
<path d="M36.0234 65.1198L37.0586 67.2135L39.3711 67.5495C39.4383 67.5593 39.5014 67.5878 39.5532 67.6318C39.605 67.6757 39.6435 67.7333 39.6642 67.7979C39.685 67.8626 39.6872 67.9318 39.6706 67.9977C39.654 68.0635 39.6192 68.1234 39.5703 68.1706L37.8984 69.7995L38.2891 72.1042C38.3023 72.1716 38.2962 72.2414 38.2713 72.3055C38.2465 72.3695 38.204 72.4252 38.1488 72.4661C38.0936 72.507 38.0279 72.5314 37.9594 72.5365C37.8909 72.5416 37.8223 72.5271 37.7617 72.4948L35.6914 71.4089L33.625 72.4948C33.5643 72.5271 33.4958 72.5416 33.4273 72.5365C33.3587 72.5314 33.2931 72.507 33.2378 72.4661C33.1826 72.4252 33.1402 72.3695 33.1153 72.3055C33.0905 72.2414 33.0844 72.1716 33.0976 72.1042L33.4882 69.7995L31.8164 68.1706C31.7674 68.1234 31.7327 68.0635 31.7161 67.9977C31.6995 67.9318 31.7017 67.8626 31.7224 67.7979C31.7432 67.7333 31.7816 67.6757 31.8335 67.6318C31.8853 67.5878 31.9484 67.5593 32.0156 67.5495L34.3281 67.2135L35.3633 65.1198C35.3923 65.0566 35.4388 65.0031 35.4973 64.9656C35.5558 64.9281 35.6238 64.9082 35.6933 64.9082C35.7628 64.9082 35.8309 64.9281 35.8894 64.9656C35.9479 65.0031 35.9944 65.0566 36.0234 65.1198Z" fill="#6BD5E1"/>
<path d="M37.945 72.9206C37.8238 72.9209 37.7044 72.8914 37.5973 72.8346L35.7067 71.8424L33.8199 72.8346C33.6969 72.8974 33.5589 72.9251 33.4211 72.9148C33.2833 72.9045 33.151 72.8565 33.0387 72.776C32.9246 72.6935 32.8361 72.5804 32.7836 72.4498C32.7311 72.3191 32.7166 72.1763 32.7418 72.0378L33.1012 69.9362L31.5738 68.4479C31.4702 68.3498 31.3971 68.224 31.3631 68.0855C31.3292 67.9469 31.3359 67.8015 31.3824 67.6666C31.4256 67.5323 31.5055 67.4127 31.6133 67.3216C31.721 67.2304 31.8521 67.1713 31.9918 67.151L34.1012 66.8463L35.0426 64.9323C35.1052 64.8066 35.2016 64.7009 35.321 64.627C35.4404 64.5532 35.578 64.5141 35.7184 64.5143C35.8583 64.5139 35.9955 64.553 36.1143 64.6269C36.2331 64.7008 36.3287 64.8066 36.3903 64.9323L37.3356 66.8463L39.445 67.151C39.5846 67.1713 39.7158 67.2304 39.8235 67.3216C39.9312 67.4127 40.0112 67.5323 40.0544 67.6666C40.1009 67.8015 40.1076 67.9469 40.0737 68.0855C40.0397 68.224 39.9666 68.3498 39.8629 68.4479L38.3356 69.9362L38.695 72.0378C38.7145 72.1461 38.7099 72.2574 38.6815 72.3638C38.6532 72.4701 38.6017 72.569 38.5309 72.6532C38.4601 72.7375 38.3715 72.8051 38.2716 72.8513C38.1717 72.8975 38.0629 72.9212 37.9528 72.9206H37.945ZM35.7067 71.026C35.7705 71.0252 35.8335 71.0399 35.8903 71.069L37.9098 72.1315L37.5192 69.8815C37.5089 69.8193 37.5139 69.7556 37.5336 69.6957C37.5533 69.6359 37.5872 69.5817 37.6325 69.5378L39.2653 67.944L37.0075 67.6159C36.9453 67.6069 36.8861 67.583 36.8351 67.5463C36.7841 67.5095 36.7428 67.4611 36.7145 67.4049L35.695 65.3424L34.6949 67.4049C34.6667 67.4611 34.6253 67.5095 34.5743 67.5463C34.5233 67.583 34.4642 67.6069 34.402 67.6159L32.1442 67.944L33.777 69.5378C33.8222 69.5817 33.8561 69.6359 33.8758 69.6957C33.8956 69.7556 33.9005 69.8193 33.8902 69.8815L33.4996 72.1315L35.5192 71.069C35.5766 71.0379 35.6414 71.0231 35.7067 71.026V71.026ZM36.0348 65.1354L35.6832 65.3073L36.0348 65.1354Z" fill="#093F68"/>
<path d="M55.8477 60.3619C55.7441 60.3619 55.6447 60.3207 55.5714 60.2475C55.4982 60.1742 55.457 60.0748 55.457 59.9712V52.1782C55.457 52.0746 55.4982 51.9753 55.5714 51.902C55.6447 51.8288 55.7441 51.7876 55.8477 51.7876C55.9513 51.7876 56.0506 51.8288 56.1239 51.902C56.1971 51.9753 56.2383 52.0746 56.2383 52.1782V59.9712C56.2383 60.0748 56.1971 60.1742 56.1239 60.2475C56.0506 60.3207 55.9513 60.3619 55.8477 60.3619Z" fill="#093F68"/>
<path d="M62.8516 56.6704H55.8477V52.897H62.8516L61.375 54.7837L62.8516 56.6704Z" fill="#6BD5E1"/>
<path d="M62.8516 57.065H55.8477C55.7441 57.065 55.6447 57.0238 55.5714 56.9506C55.4982 56.8773 55.457 56.7779 55.457 56.6743V52.897C55.457 52.7934 55.4982 52.694 55.5714 52.6208C55.6447 52.5475 55.7441 52.5063 55.8477 52.5063H62.8516C62.9241 52.5069 62.9951 52.5277 63.0565 52.5663C63.1179 52.605 63.1673 52.6599 63.1993 52.7251C63.2319 52.7911 63.2451 52.8651 63.2375 52.9383C63.2299 53.0116 63.2018 53.0812 63.1563 53.1392L61.8711 54.7837L63.1563 56.4322C63.2017 56.4896 63.23 56.5587 63.2381 56.6315C63.2461 56.7042 63.2335 56.7778 63.2018 56.8438C63.17 56.9098 63.1203 56.9655 63.0584 57.0046C62.9965 57.0437 62.9248 57.0646 62.8516 57.065V57.065ZM56.2383 56.2837H62.0469L61.0664 55.0103C61.0129 54.9416 60.9838 54.8571 60.9838 54.77C60.9838 54.683 61.0129 54.5984 61.0664 54.5298L62.0469 53.272H56.2383V56.2837Z" fill="#093F68"/>
<path d="M63.5821 67.1393H55.2188V72.4557H63.5821V67.1393Z" fill="#6BD5E1"/>
<path d="M63.5821 72.8463H55.2188C55.1152 72.8463 55.0158 72.8052 54.9425 72.7319C54.8693 72.6587 54.8281 72.5593 54.8281 72.4557V67.1393C54.8281 67.0357 54.8693 66.9363 54.9425 66.8631C55.0158 66.7898 55.1152 66.7487 55.2188 66.7487H63.5821C63.6857 66.7487 63.785 66.7898 63.8583 66.8631C63.9316 66.9363 63.9727 67.0357 63.9727 67.1393V72.4557C63.9727 72.5593 63.9316 72.6587 63.8583 72.7319C63.785 72.8052 63.6857 72.8463 63.5821 72.8463V72.8463ZM55.6094 72.0651H63.1915V67.5299H55.6094V72.0651Z" fill="#093F68"/>
<path d="M55.4414 67.1393H63.5821V67.6354C63.5821 68.0684 63.41 68.4837 63.1038 68.79C62.7976 69.0962 62.3823 69.2682 61.9493 69.2682H57.0742C56.6412 69.2682 56.2259 69.0962 55.9196 68.79C55.6134 68.4837 55.4414 68.0684 55.4414 67.6354V67.1393V67.1393Z" fill="#6BD5E1"/>
<path d="M61.9493 69.6588H57.0742C56.5376 69.6588 56.0229 69.4456 55.6434 69.0662C55.264 68.6867 55.0508 68.172 55.0508 67.6354V67.1393C55.0508 67.0357 55.0919 66.9363 55.1652 66.8631C55.2384 66.7898 55.3378 66.7487 55.4414 66.7487H63.5821C63.6857 66.7487 63.785 66.7898 63.8583 66.8631C63.9316 66.9363 63.9727 67.0357 63.9727 67.1393V67.6354C63.9727 68.172 63.7595 68.6867 63.38 69.0662C63.0006 69.4456 62.4859 69.6588 61.9493 69.6588V69.6588ZM55.832 67.5299V67.6354C55.832 67.9648 55.9629 68.2808 56.1959 68.5137C56.4288 68.7467 56.7448 68.8776 57.0742 68.8776H61.9493C62.2787 68.8776 62.5947 68.7467 62.8276 68.5137C63.0606 68.2808 63.1915 67.9648 63.1915 67.6354V67.5299H55.832Z" fill="#093F68"/>
<path d="M61.2461 67.5299H58.0117C57.9081 67.5299 57.8088 67.4888 57.7355 67.4155C57.6622 67.3423 57.6211 67.2429 57.6211 67.1393V66.4205C57.6221 66.0928 57.753 65.7788 57.9852 65.5475C58.2173 65.3161 58.5316 65.1862 58.8594 65.1862H60.4024C60.7297 65.1862 61.0437 65.3162 61.2752 65.5477C61.5067 65.7792 61.6367 66.0932 61.6367 66.4205V67.1393C61.6367 67.2429 61.5956 67.3423 61.5223 67.4155C61.4491 67.4888 61.3497 67.5299 61.2461 67.5299ZM58.4023 66.7487H60.8555V66.4205C60.8555 66.3004 60.8077 66.1851 60.7228 66.1001C60.6378 66.0152 60.5225 65.9674 60.4024 65.9674H58.8594C58.7388 65.9674 58.6232 66.015 58.5376 66.0999C58.452 66.1848 58.4034 66.3 58.4023 66.4205V66.7487Z" fill="#093F68"/>
<path d="M49.6954 54.7915H42.5078C42.4042 54.7915 42.3049 54.7504 42.2316 54.6771C42.1583 54.6038 42.1172 54.5045 42.1172 54.4009C42.1172 54.2973 42.1583 54.1979 42.2316 54.1247C42.3049 54.0514 42.4042 54.0103 42.5078 54.0103H49.6954C49.799 54.0103 49.8983 54.0514 49.9716 54.1247C50.0448 54.1979 50.086 54.2973 50.086 54.4009C50.086 54.5045 50.0448 54.6038 49.9716 54.6771C49.8983 54.7504 49.799 54.7915 49.6954 54.7915Z" fill="#DFEAEF"/>
<path d="M74.3946 54.7915H67.2188C67.1152 54.7915 67.0158 54.7504 66.9425 54.6771C66.8693 54.6038 66.8281 54.5045 66.8281 54.4009C66.8281 54.2973 66.8693 54.1979 66.9425 54.1247C67.0158 54.0514 67.1152 54.0103 67.2188 54.0103H74.3946C74.4982 54.0103 74.5975 54.0514 74.6708 54.1247C74.744 54.1979 74.7852 54.2973 74.7852 54.4009C74.7852 54.5045 74.744 54.6038 74.6708 54.6771C74.5975 54.7504 74.4982 54.7915 74.3946 54.7915Z" fill="#DFEAEF"/>
<path d="M47.6719 57.686H42.5078C42.4042 57.686 42.3049 57.6449 42.2316 57.5716C42.1583 57.4984 42.1172 57.399 42.1172 57.2954C42.1172 57.1918 42.1583 57.0925 42.2316 57.0192C42.3049 56.9459 42.4042 56.9048 42.5078 56.9048H47.6719C47.7755 56.9048 47.8749 56.9459 47.9481 57.0192C48.0214 57.0925 48.0625 57.1918 48.0625 57.2954C48.0625 57.399 48.0214 57.4984 47.9481 57.5716C47.8749 57.6449 47.7755 57.686 47.6719 57.686Z" fill="#DFEAEF"/>
<path d="M71.7149 57.686H67.2188C67.1152 57.686 67.0158 57.6449 66.9425 57.5716C66.8693 57.4984 66.8281 57.399 66.8281 57.2954C66.8281 57.1918 66.8693 57.0925 66.9425 57.0192C67.0158 56.9459 67.1152 56.9048 67.2188 56.9048H71.7149C71.8185 56.9048 71.9178 56.9459 71.9911 57.0192C72.0643 57.0925 72.1055 57.1918 72.1055 57.2954C72.1055 57.399 72.0643 57.4984 71.9911 57.5716C71.9178 57.6449 71.8185 57.686 71.7149 57.686Z" fill="#DFEAEF"/>
<path d="M49.6954 68.2135H42.5078C42.4042 68.2135 42.3049 68.1724 42.2316 68.0991C42.1583 68.0258 42.1172 67.9265 42.1172 67.8229C42.1172 67.7193 42.1583 67.6199 42.2316 67.5467C42.3049 67.4734 42.4042 67.4323 42.5078 67.4323H49.6954C49.799 67.4323 49.8983 67.4734 49.9716 67.5467C50.0448 67.6199 50.086 67.7193 50.086 67.8229C50.086 67.9265 50.0448 68.0258 49.9716 68.0991C49.8983 68.1724 49.799 68.2135 49.6954 68.2135Z" fill="#DFEAEF"/>
<path d="M74.3946 68.2135H67.2188C67.1152 68.2135 67.0158 68.1724 66.9425 68.0991C66.8693 68.0258 66.8281 67.9265 66.8281 67.8229C66.8281 67.7193 66.8693 67.6199 66.9425 67.5467C67.0158 67.4734 67.1152 67.4323 67.2188 67.4323H74.3946C74.4982 67.4323 74.5975 67.4734 74.6708 67.5467C74.744 67.6199 74.7852 67.7193 74.7852 67.8229C74.7852 67.9265 74.744 68.0258 74.6708 68.0991C74.5975 68.1724 74.4982 68.2135 74.3946 68.2135Z" fill="#DFEAEF"/>
<path d="M47.6719 71.108H42.5078C42.4042 71.108 42.3049 71.0669 42.2316 70.9936C42.1583 70.9204 42.1172 70.821 42.1172 70.7174C42.1172 70.6138 42.1583 70.5145 42.2316 70.4412C42.3049 70.3679 42.4042 70.3268 42.5078 70.3268H47.6719C47.7755 70.3268 47.8749 70.3679 47.9481 70.4412C48.0214 70.5145 48.0625 70.6138 48.0625 70.7174C48.0625 70.821 48.0214 70.9204 47.9481 70.9936C47.8749 71.0669 47.7755 71.108 47.6719 71.108Z" fill="#DFEAEF"/>
<path d="M71.7149 71.108H67.2188C67.1152 71.108 67.0158 71.0669 66.9425 70.9936C66.8693 70.9204 66.8281 70.821 66.8281 70.7174C66.8281 70.6138 66.8693 70.5145 66.9425 70.4412C67.0158 70.3679 67.1152 70.3268 67.2188 70.3268H71.7149C71.8185 70.3268 71.9178 70.3679 71.9911 70.4412C72.0643 70.5145 72.1055 70.6138 72.1055 70.7174C72.1055 70.821 72.0643 70.9204 71.9911 70.9936C71.9178 71.0669 71.8185 71.108 71.7149 71.108Z" fill="#DFEAEF"/>
</svg>
