<svg width="512" height="512" xmlns="http://www.w3.org/2000/svg">

 <g>
  <title>background</title>
  <rect fill="none" id="canvas_background" height="402" width="582" y="-1" x="-1"/>
 </g>
 <g>
  <title>Layer 1</title>
  <path fill="#e5e5e5" id="svg_2" d="m210.4,330l0,23.3l91.1,0l0,-23.3c27.1,37.8 84.8,44.9 130.8,55.2c2.3,0.5 4.5,1.2 6.6,1.9c20.8,-33.2 32.8,-72.3 32.8,-114.3c0,-119.2 -96.6,-215.8 -215.7,-215.8c-119.1,0 -215.7,96.6 -215.7,215.8c0,42 12,81.2 32.8,114.3c2.1,-0.8 4.3,-1.4 6.6,-1.9c46,-10.3 103.7,-17.4 130.7,-55.2z" class="st0"/>
  <path fill="#000000" clip-rule="evenodd" fill-rule="evenodd" id="svg_3" d="m203.8,36.5c17.1,-15.9 108.8,-28.1 145.5,31.8c36.7,59.9 17.1,45.2 37.9,83.2c20.8,37.9 20.8,42.8 1.2,69.7c-19.6,26.9 -40.3,47.7 -23.2,66c17.1,18.3 24.5,28.1 7.3,53.8c-17.1,25.7 41.6,55 18.3,86.8c-23.2,31.8 -231.1,41.6 -244.6,4.9c-13.5,-36.7 8.6,-62.4 -4.9,-80.7c-13.5,-18.4 -34.2,-36.7 0,-62.4c19.8,-14.9 -8.9,-28.9 -22.7,-54.7c-15.7,-29.3 -5.8,-66 1.9,-77.3c18.5,-26.9 14.8,-128.4 83.3,-121.1" class="st1"/>
  <path fill="#640014" id="svg_4" d="m301.6,353.3c-0.1,0.1 -0.2,0.2 0,0l-91.1,0c0.1,0.2 0.1,0.1 0,0l21.2,133.8c8,0.9 16.1,1.4 24.3,1.4l0,0c8.2,0 16.3,-0.5 24.3,-1.4l21.3,-133.8z" class="st2"/>
  <path stroke="null" fill="#a58154" id="svg_5" d="m257.257842,339.2c-12.023445,0 -29.08235,-7.5 -46.757842,-20.8l0,11.6l0,23.3c0.308293,0.3 0.616587,0.6 0.822116,1c12.742796,15.2 29.390643,23.2 45.935726,23.3l0,-38.4c0,0 0,0 0,0z" class="st3"/>
  <path stroke="null" fill="#a58154" id="svg_6" d="m255.685541,377.6c16.311716,0.1 32.522741,-7.5 45.008252,-23.3c0.302069,-0.3 0.604138,-0.7 0.906206,-1l0,-23.3l0,-11.6c-17.318612,13.3 -34.033085,20.8 -45.914458,20.8l0,38.4z" class="st4"/>
  <path stroke="null" fill="#a58154" id="svg_7" d="m256.603319,342.344616l0,-145.844616c-23.10166,0 -46.203319,15.432752 -46.203319,46.196052l0,78.390204c17.528891,13.593086 34.34852,21.25836 46.203319,21.25836c0,0 0,0 0,0z" class="st5"/>
  <path stroke="null" fill="#a58154" id="svg_8" d="m254.944193,196.5l0,144.686771c11.970898,0 28.955249,-7.599095 46.655807,-21.074824l0,-77.713413c0,-30.599023 -23.327904,-45.898534 -46.655807,-45.898534z" class="st5"/>
  <path fill="#000000" clip-rule="evenodd" fill-rule="evenodd" id="svg_9" d="m323.6,173.7c19.9,22.6 29.8,42.2 22.2,66.3c-7.7,24.2 -4.6,42.8 22.2,58.2c26.7,15.4 17.1,18.4 10.9,46.3c-3.8,17.4 10.7,33.2 30.2,33.2c3.7,0 -20.1,-8.7 -17,-26.4c5,-28.5 31,-44.3 6.1,-71.3c-24.9,-27 -16.2,-30.8 -8.9,-47.7c7.3,-17 -13.3,-49 -39,-75.8c-157,-163.9 -46.6,-5.4 -26.7,17.2" class="st1"/>
  <path fill="#000000" clip-rule="evenodd" fill-rule="evenodd" id="svg_10" d="m190.7,178.9c-20.9,21.8 -31.6,40.9 -24.9,65.4c6.7,24.5 2.8,43 -24.6,57.2c-27.3,14.2 -17.8,17.6 -12.8,45.8c3.1,17.5 -12.1,32.7 -31.6,31.9c-3.7,-0.2 20.5,-7.9 18.1,-25.7c-3.8,-28.7 -29.1,-45.6 -3.1,-71.5c26,-25.9 17.5,-30.1 10.9,-47.3c-6.6,-17.2 15.3,-48.3 42.1,-74.1c163.7,-157.2 46.8,-3.4 25.9,18.3" class="st1"/>
  <path stroke="null" fill="#b59165" id="svg_12" d="m256.437602,49.1l0,0c-80.222293,0 -118.003752,70.3 -114.255993,131.6c-4.659376,-2.9 -9.521333,-3.7 -13.572964,-2c-9.318751,4 -11.344567,20.1 -4.355503,36.1c6.989063,16 20.156864,25.7 29.576906,21.7c1.31678,-0.6 2.430979,-1.4 3.443886,-2.4c25.322694,50.4 74.144847,83.7 99.163668,83.7l0,0c0.405163,0 0.911617,-0.1 1.31678,-0.1l0,-268.6c-0.405163,0 -0.810326,0 -1.31678,0z" class="st3"/>
  <path stroke="null" fill="#b59165" id="svg_13" d="m383.418908,178.7c-4.846482,-2.1 -10.702649,-0.4 -16.25591,3.9c4.644546,-61.4 -32.612788,-132.7 -112.478781,-133.5l0,268.7c25.545001,-1.1 74.009826,-34.9 98.545144,-85.6c1.312589,1.9 3.029052,3.4 5.048419,4.3c9.289091,4 22.51595,-5.8 29.482768,-21.7c6.86585,-16 4.947451,-32.2 -4.341641,-36.1z" class="st4"/>
  <path fill="#000000" clip-rule="evenodd" fill-rule="evenodd" id="svg_14" d="m208,78.2c7,34.2 43.3,52.3 77.5,57.4c34.2,5 64.4,5 45.3,28.2c-19.1,23.1 -8.1,44.3 10.1,57.4c18.1,13.1 12.1,48.3 -4,70.4c-16.1,22.1 -20.1,41.3 -1,62.4c19.1,21.1 9.1,21.9 -7,48.1c-10,16.3 -2.4,35.2 15.8,39.5c3.4,0.8 -15.5,-13.1 -6,-29.9c15.3,-27 36.5,-36.6 23.5,-68.8c-13.1,-32.2 -5,-33.2 8,-48.3c13.1,-15.1 18.1,-53.3 2,-84.5c-16.1,-31.2 11.1,-21.1 8,-59.4c-3.1,-38.3 -96.7,-179.2 -172.2,-72.5" class="st1"/>
  <path fill="#000000" clip-rule="evenodd" fill-rule="evenodd" id="svg_15" d="m303.4,71.5c22.5,20.1 34.6,39.9 29.9,64.8c-4.8,24.9 0.6,43.1 28.9,55.1c28.3,12.1 19.1,16.2 16.3,44.7c-1.8,17.7 14.6,31.7 33.9,29.3c3.7,-0.4 -21,-6.2 -20,-24.2c1.6,-28.9 25.5,-47.7 -2.4,-71.5c-27.9,-23.9 -30.5,-31.7 -25.3,-49.4c5.3,-17.7 -8.7,-43.6 -37,-67.5c-34.1,-29.1 -46.7,-1.4 -24.3,18.7" class="st1"/>
  <path fill="#000000" clip-rule="evenodd" fill-rule="evenodd" id="svg_16" d="m204.2,71.5c-22.5,20.1 -34.6,39.9 -29.9,64.8c4.8,24.9 -0.6,43.1 -28.9,55.1c-28.4,12.1 -19.1,16.2 -16.3,44.7c1.7,17.7 -14.6,31.7 -33.9,29.3c-3.7,-0.4 21,-6.2 20,-24.2c-1.6,-28.9 -25.5,-47.7 2.4,-71.5c27.9,-23.9 30.5,-31.7 25.3,-49.4c-5.2,-17.7 8.7,-43.6 37,-67.5c34.1,-29.1 46.8,-1.4 24.3,18.7" class="st1"/>
  <path fill="#000000" clip-rule="evenodd" fill-rule="evenodd" id="svg_17" d="m268.4,49.3c-23.6,13.7 -105,92.8 -114.1,120.5c-9.2,27.7 0.4,50.3 5.9,70.6c-19.9,-5 -69.2,-227.1 108.2,-191.1" class="st1"/>
  <path fill="#d43329" id="svg_20" d="m268.5,261.2c0,0 0.5,7.9 -13,7.9c-3.9,0 -12.8,-1.7 -12.8,-7.7c7.9,2 17.3,2.4 25.8,-0.2" class="st6"/>
  <path fill="#ca3029" id="svg_21" d="m260.6,258c3,0.4 8.2,3.1 7.9,3.2c-8.4,2.6 -17.9,2.1 -25.8,0.2c-0.1,0 -0.2,0 -0.2,-0.1c2.7,-1.1 6.2,-3.4 8.8,-3.2c1.4,0.1 3.1,1.2 4.4,1.2c1.8,0.1 3,-1.6 4.9,-1.3" class="st7"/>
  <path fill="#a82623" id="svg_22" d="m238.2,260.2c10.1,4.2 24.3,4.6 34.2,-0.2c0.2,-0.1 0.1,-0.5 -0.2,-0.4c-11.9,3.8 -21.9,3.1 -34,0.6c0,-0.1 0,0 0,0" class="st8"/>
  <path fill="#342214" id="svg_23" d="m208.5,178.8c6.4,0 11.7,5.9 11.7,13.3c0,7.3 -5.2,13.3 -11.7,13.3c-6.5,0 -11.7,-5.9 -11.7,-13.3c0,-7.3 5.3,-13.3 11.7,-13.3" class="st9"/>
  <path fill="#342214" id="svg_24" d="m303.5,178.8c6.4,0 11.7,5.9 11.7,13.3c0,7.3 -5.2,13.3 -11.7,13.3c-6.5,0 -11.7,-5.9 -11.7,-13.3c0,-7.3 5.2,-13.3 11.7,-13.3" class="st9"/>
  <path fill="#c93938" id="svg_25" d="m210.4,353.3l0,0c-0.1,-0.2 0,-0.1 0,0z" class="st10"/>
  <path fill="#c93938" id="svg_26" d="m210.4,353.3l0,0c0.1,0.1 0.2,0.2 0,0z" class="st10"/>
  <path fill="#c93938" id="svg_27" d="m301.6,353.3l0,0c0,-0.1 0.1,-0.2 0,0z" class="st10"/>
  <path fill="#c93938" id="svg_28" d="m301.6,353.3l0,0c-0.2,0.2 -0.1,0.1 0,0z" class="st10"/>
  <path fill="#be1e2d" id="svg_29" d="m301.6,353.3c-0.2,0.2 -0.1,0.1 0,0c0,-0.1 0.1,-0.2 0,0z" class="st11"/>
  <path fill="#be1e2d" id="svg_30" d="m210.4,353.3c0.1,0.1 0.2,0.2 0,0c-0.1,-0.2 0,-0.1 0,0z" class="st11"/>
  <path fill="#c93938" id="svg_31" d="m231.7,487.1l-21.2,-133.8c-0.1,-0.1 -0.1,-0.2 0,0l0,-23.3c-27.1,37.8 -84.8,44.9 -130.8,55.2c-2.3,0.5 -4.5,1.2 -6.6,1.9c34,54.4 91.7,92.5 158.6,100z" class="st10"/>
  <path fill="#c93938" id="svg_32" d="m301.6,330l0,23.3c0.1,-0.2 0.1,-0.1 0,0l-21.2,133.8c66.9,-7.5 124.6,-45.6 158.6,-100c-2.1,-0.8 -4.3,-1.4 -6.6,-1.9c-46.1,-10.3 -103.8,-17.4 -130.8,-55.2z" class="st10"/>
 </g>
</svg>