<svg width="1441" height="1024" viewBox="0 0 1441 1024" fill="none" xmlns="http://www.w3.org/2000/svg">
<g clip-path="url(#clip0)">
<rect width="1440" height="1024" transform="translate(0.957031)" fill="#F4F4F4"/>
<path fill-rule="evenodd" clip-rule="evenodd" d="M0.957031 661.089L30.957 645.349C60.957 629.609 120.957 598.128 180.957 613.869C240.957 629.609 300.957 692.57 360.957 645.349C420.957 598.128 504.219 519.427 564.219 472.207C624.219 424.986 660.957 409.246 720.957 472.207C780.957 535.167 840.957 598.128 900.957 598.128C960.957 598.128 1048.07 564.081 1108.07 516.86C1168.07 469.639 1190.86 598.128 1250.86 613.869C1310.86 629.609 1396.35 559.898 1440.96 544.158V0H1410.96C1380.96 0 1320.96 0 1260.96 0C1200.96 0 1140.96 0 1080.96 0C1020.96 0 960.957 0 900.957 0C840.957 0 780.957 0 720.957 0C660.957 0 600.957 0 540.957 0C480.957 0 420.957 0 360.957 0C300.957 0 240.957 0 180.957 0C120.957 0 60.957 0 30.957 0H0.957031V661.089Z" fill="#FAFAFA"/>
<path fill-rule="evenodd" clip-rule="evenodd" d="M0.957031 255.482L40.957 296.752C80.957 339.988 170.219 387.128 240.957 424.493C316.439 464.364 331.911 485.067 440.311 451.97C530.305 424.493 621.855 365.181 701.855 351.424C781.855 335.702 829.964 351.743 909.964 451.97C989.964 550.232 1120.96 452.007 1200.96 508.999C1280.96 565.991 1360.96 593.504 1400.96 552.234L1440.96 508.999V0H1400.96C1360.96 0 1280.96 0 1200.96 0C1120.96 0 1040.96 0 960.957 0C880.957 0 800.957 0 720.957 0C640.957 0 560.957 0 480.957 0C400.957 0 320.957 0 240.957 0C160.957 0 80.957 0 40.957 0H0.957031V255.482Z" fill="white"/>
<path fill-rule="evenodd" clip-rule="evenodd" d="M0.957031 990.813L40.957 957.625C80.957 923.666 160.957 857.292 240.957 834.91C320.957 812.528 400.957 834.91 480.957 857.292C560.957 879.674 640.957 902.056 720.957 890.479C800.957 879.674 880.957 834.91 960.957 818.702C1040.96 801.723 1120.96 812.528 1200.96 807.125C1280.96 801.723 1360.96 779.34 1400.96 768.535L1440.96 756.958V1024H1400.96C1360.96 1024 1280.96 1024 1200.96 1024C1120.96 1024 1040.96 1024 960.957 1024C880.957 1024 800.957 1024 720.957 1024C640.957 1024 560.957 1024 480.957 1024C400.957 1024 320.957 1024 240.957 1024C160.957 1024 80.957 1024 40.957 1024H0.957031V990.813Z" fill="white"/>
</g>
<defs>
<clipPath id="clip0">
<rect width="1440" height="1024" fill="white" transform="translate(0.957031)"/>
</clipPath>
</defs>
</svg>
