<svg width="101" height="101" viewBox="0 0 101 101" fill="none" xmlns="http://www.w3.org/2000/svg">
<path d="M15.5742 72.8188H84.7545V75.2246C84.7545 76.0865 84.4121 76.9132 83.8026 77.5227C83.1932 78.1322 82.3665 78.4746 81.5045 78.4746H18.8242C17.9623 78.4746 17.1356 78.1322 16.5261 77.5227C15.9166 76.9132 15.5742 76.0865 15.5742 75.2246V72.8188Z" fill="#6BD5E1"/>
<path d="M81.5042 78.8845H18.8239C17.8543 78.8834 16.9246 78.498 16.2386 77.8128C15.5526 77.1276 15.1662 76.1983 15.1641 75.2287V72.8189C15.1641 72.7102 15.2072 72.606 15.2841 72.5291C15.361 72.4522 15.4652 72.4091 15.5739 72.4091H84.7542C84.8629 72.4091 84.9672 72.4522 85.044 72.5291C85.1209 72.606 85.1641 72.7102 85.1641 72.8189V75.2287C85.1619 76.1983 84.7755 77.1276 84.0895 77.8128C83.4035 78.498 82.4738 78.8834 81.5042 78.8845V78.8845ZM15.9837 73.2287V75.2287C15.9848 75.9813 16.2845 76.7026 16.817 77.2344C17.3496 77.7661 18.0714 78.0648 18.8239 78.0648H81.5042C82.2568 78.0648 82.9786 77.7661 83.5111 77.2344C84.0436 76.7026 84.3433 75.9813 84.3444 75.2287V73.2287H15.9837Z" fill="#093F68"/>
<path d="M23.115 33.614H77.2134C77.9742 33.614 78.7039 33.9163 79.2419 34.4543C79.7799 34.9923 80.0822 35.722 80.0822 36.4829V72.8025H20.2461V36.4993C20.244 36.1211 20.3166 35.7463 20.4598 35.3964C20.603 35.0464 20.814 34.7282 21.0806 34.4601C21.3472 34.1919 21.6642 33.9791 22.0133 33.8339C22.3625 33.6888 22.7369 33.614 23.115 33.614V33.614Z" fill="#6BD5E1"/>
<path d="M80.0818 73.2287H20.2458C20.1371 73.2287 20.0328 73.1855 19.956 73.1087C19.8791 73.0318 19.8359 72.9276 19.8359 72.8189V36.4992C19.8359 35.6296 20.1814 34.7957 20.7962 34.1808C21.4111 33.566 22.2451 33.2205 23.1146 33.2205H77.213C78.0826 33.2205 78.9165 33.566 79.5314 34.1808C80.1463 34.7957 80.4917 35.6296 80.4917 36.4992V72.8189C80.4917 72.9276 80.4485 73.0318 80.3716 73.1087C80.2948 73.1855 80.1905 73.2287 80.0818 73.2287ZM20.6556 72.409H79.672V36.4992C79.672 35.847 79.4129 35.2216 78.9518 34.7604C78.4906 34.2993 77.8652 34.0402 77.213 34.0402H23.1146C22.4625 34.0402 21.837 34.2993 21.3758 34.7604C20.9147 35.2216 20.6556 35.847 20.6556 36.4992V72.409Z" fill="#093F68"/>
<path d="M75.6206 38.2328H24.7148V68.4419H75.6206V38.2328Z" fill="white"/>
<path d="M75.6162 68.8476H24.7145C24.6058 68.8476 24.5016 68.8044 24.4247 68.7276C24.3479 68.6507 24.3047 68.5465 24.3047 68.4378V38.2328C24.3047 38.1241 24.3479 38.0199 24.4247 37.943C24.5016 37.8662 24.6058 37.823 24.7145 37.823H75.6162C75.7249 37.823 75.8291 37.8662 75.906 37.943C75.9828 38.0199 76.026 38.1241 76.026 38.2328V68.4378C76.026 68.5465 75.9828 68.6507 75.906 68.7276C75.8291 68.8044 75.7249 68.8476 75.6162 68.8476ZM25.1244 68.0279H75.2063V38.6427H25.1244V68.0279Z" fill="#093F68"/>
<path d="M44.8986 72.8188H55.4355V73.4172C55.4355 73.927 55.233 74.4159 54.8725 74.7764C54.5121 75.1368 54.0232 75.3393 53.5134 75.3393H46.8167C46.3069 75.3393 45.818 75.1368 45.4575 74.7764C45.097 74.4159 44.8945 73.927 44.8945 73.4172V72.8188H44.8986Z" fill="#093F68"/>
<path d="M53.5129 75.7492H46.8162C46.1987 75.7471 45.6073 75.5005 45.171 75.0636C44.7348 74.6266 44.4894 74.0347 44.4883 73.4173V72.8189C44.4883 72.7102 44.5315 72.606 44.6083 72.5291C44.6852 72.4522 44.7894 72.4091 44.8981 72.4091H55.4309C55.5396 72.4091 55.6438 72.4522 55.7207 72.5291C55.7976 72.606 55.8407 72.7102 55.8407 72.8189V73.4173C55.8397 74.0347 55.5942 74.6266 55.158 75.0636C54.7218 75.5005 54.1303 75.7471 53.5129 75.7492V75.7492ZM45.3162 73.2287V73.4173C45.3162 73.8176 45.4749 74.2017 45.7576 74.4852C46.0404 74.7687 46.424 74.9285 46.8244 74.9296H53.5211C53.9214 74.9285 54.305 74.7687 54.5878 74.4852C54.8705 74.2017 55.0293 73.8176 55.0293 73.4173V73.2287H45.3162Z" fill="#093F68"/>
<path d="M50.1634 36.0279C50.3852 36.0279 50.565 35.8481 50.565 35.6263C50.565 35.4044 50.3852 35.2246 50.1634 35.2246C49.9415 35.2246 49.7617 35.4044 49.7617 35.6263C49.7617 35.8481 49.9415 36.0279 50.1634 36.0279Z" fill="#6BD5E1"/>
<path d="M50.1634 36.4377C50.0013 36.4377 49.8428 36.3897 49.708 36.2996C49.5732 36.2095 49.4682 36.0815 49.4061 35.9317C49.3441 35.782 49.3279 35.6172 49.3595 35.4582C49.3911 35.2992 49.4692 35.1531 49.5838 35.0385C49.6985 34.9238 49.8445 34.8458 50.0035 34.8142C50.1625 34.7825 50.3273 34.7988 50.4771 34.8608C50.6269 34.9228 50.7549 35.0279 50.845 35.1627C50.935 35.2975 50.9831 35.456 50.9831 35.6181C50.9831 35.8355 50.8967 36.0439 50.743 36.1977C50.5893 36.3514 50.3808 36.4377 50.1634 36.4377ZM50.1634 35.6181H50.5733H50.1634Z" fill="#093F68"/>
<path d="M70.0131 24.4664H30.3164V68.4377H70.0131V24.4664Z" fill="white"/>
<path d="M70.0128 68.8476H30.3161C30.2074 68.8476 30.1031 68.8044 30.0263 68.7275C29.9494 68.6507 29.9062 68.5464 29.9062 68.4377V24.4869C29.9062 24.3782 29.9494 24.274 30.0263 24.1971C30.1031 24.1203 30.2074 24.0771 30.3161 24.0771H70.0128C70.1215 24.0771 70.2257 24.1203 70.3026 24.1971C70.3795 24.274 70.4226 24.3782 70.4226 24.4869V68.4377C70.4226 68.5464 70.3795 68.6507 70.3026 68.7275C70.2257 68.8044 70.1215 68.8476 70.0128 68.8476ZM30.7259 68.0279H69.603V24.8968H30.7259V68.0279Z" fill="#093F68"/>
<path d="M62.1551 40.95C62.1582 42.0586 62.0065 43.1621 61.7043 44.2287C61.4693 45.0838 61.1365 45.9089 60.7125 46.6877C59.6786 48.5824 58.1533 50.1635 56.2969 51.2648C54.4406 52.366 52.3218 52.9468 50.1633 52.9459C49.8806 52.9459 49.6019 52.9459 49.3437 52.9131C47.2035 52.765 45.1422 52.0453 43.375 50.829C41.6078 49.6127 40.1993 47.9445 39.2966 45.9984C38.3938 44.0522 38.0299 41.8995 38.2427 39.7647C38.4556 37.63 39.2374 35.5915 40.5066 33.8619C41.7758 32.1323 43.4859 30.775 45.4585 29.9316C47.4311 29.0882 49.5938 28.7896 51.7212 29.0669C53.8485 29.3443 55.8624 30.1875 57.5528 31.5084C59.2432 32.8294 60.5481 34.5798 61.3314 36.5771C61.8795 37.9697 62.159 39.4534 62.1551 40.95Z" fill="#70CC40"/>
<path d="M50.1641 53.3558C49.828 53.3558 49.5534 53.3558 49.2912 53.323C47.0784 53.1677 44.9479 52.4215 43.1218 51.1624C41.2956 49.9033 39.8408 48.1772 38.9089 46.1643C37.977 44.1514 37.6022 41.9253 37.8237 39.7182C38.0451 37.5112 38.8546 35.4039 40.1678 33.6162C41.4811 31.8286 43.2498 30.426 45.2897 29.5547C47.3296 28.6835 49.5659 28.3755 51.7654 28.6628C53.9648 28.9502 56.0469 29.8224 57.7945 31.1885C59.5421 32.5546 60.8911 34.3645 61.701 36.4296C62.2661 37.8653 62.5553 39.3948 62.5534 40.9378C62.5554 42.0794 62.3995 43.2158 62.0903 44.3148C61.8473 45.197 61.5035 46.0482 61.0657 46.8517C60.0011 48.8157 58.4266 50.4563 56.5081 51.6009C54.5897 52.7455 52.3981 53.3517 50.1641 53.3558ZM50.1641 29.3763C47.1636 29.375 44.2797 30.5386 42.1203 32.6219C39.9609 34.7052 38.6946 37.5454 38.5884 40.5441C38.4821 43.5427 39.5441 46.4655 41.5506 48.6964C43.5571 50.9274 46.3513 52.2922 49.3444 52.5033C49.6169 52.5282 49.8905 52.5391 50.1641 52.5361C52.2494 52.5327 54.2953 51.9681 56.0873 50.9016C57.8792 49.8351 59.3511 48.3059 60.3485 46.4746C60.7542 45.7236 61.0731 44.9289 61.2993 44.1058C61.7863 42.3843 61.8678 40.5734 61.5373 38.8152C61.2068 37.057 60.4733 35.3992 59.3944 33.9721C58.3155 32.545 56.9206 31.3873 55.3191 30.5899C53.7176 29.7925 51.9531 29.3771 50.1641 29.3763Z" fill="#093F68"/>
<path d="M62.1555 40.95C62.1585 42.0586 62.0068 43.1621 61.7047 44.2287C61.4697 45.0838 61.1369 45.9089 60.7129 46.6877L50.1719 40.95V28.9664C53.3488 28.9708 56.3943 30.2347 58.6408 32.4811C60.8872 34.7276 62.1511 37.7731 62.1555 40.95V40.95Z" fill="#FFBC0E"/>
<path d="M60.7166 47.0812C60.648 47.0816 60.5803 47.0647 60.5199 47.0321L49.9748 41.2943C49.9102 41.259 49.8562 41.2068 49.8187 41.1433C49.7812 41.0798 49.7615 41.0074 49.7617 40.9337V28.9665C49.7617 28.8578 49.8049 28.7535 49.8818 28.6767C49.9586 28.5998 50.0629 28.5566 50.1716 28.5566C52.0864 28.5597 53.9746 29.0059 55.6883 29.8602C57.402 30.7145 58.8948 31.9538 60.0498 33.4811C61.2048 35.0084 61.9907 36.7823 62.346 38.6639C62.7013 40.5455 62.6163 42.4838 62.0978 44.3271C61.8548 45.2093 61.511 46.0605 61.0732 46.864C61.0481 46.9118 61.0138 46.9541 60.9723 46.9885C60.9308 47.023 60.8829 47.0489 60.8314 47.0648C60.7942 47.0763 60.7555 47.0819 60.7166 47.0812V47.0812ZM50.5732 40.7042L60.5363 46.1099C61.3908 44.3758 61.7979 42.4555 61.7207 40.5238C61.6434 38.5922 61.0842 36.7105 60.0939 35.0502C59.1037 33.3899 57.7139 32.0036 56.051 31.0176C54.3881 30.0317 52.505 29.4773 50.5732 29.405V40.7042Z" fill="#093F68"/>
<path d="M62.1555 40.95C62.1585 42.0586 62.0068 43.1621 61.7047 44.2287C61.4697 45.0838 61.1369 45.9089 60.7129 46.6877L50.1719 40.95L61.3235 36.5771C61.8744 37.9691 62.1567 39.4529 62.1555 40.95V40.95Z" fill="#F56132"/>
<path d="M60.7183 47.0812C60.6496 47.0816 60.582 47.0646 60.5215 47.032L49.9764 41.2943C49.9078 41.2572 49.8512 41.2012 49.8133 41.1329C49.7754 41.0646 49.7577 40.987 49.7625 40.909C49.7672 40.8311 49.7941 40.7562 49.84 40.693C49.8859 40.6298 49.9489 40.5811 50.0215 40.5525L61.1773 36.1796C61.2779 36.1405 61.3898 36.1427 61.4888 36.1857C61.5878 36.2287 61.6658 36.3089 61.706 36.4091C62.2735 37.8443 62.5641 39.3739 62.5625 40.9173C62.5644 42.0589 62.4086 43.1953 62.0994 44.2943C61.8564 45.1765 61.5126 46.0277 61.0748 46.8312C61.0497 46.8789 61.0154 46.9213 60.9739 46.9557C60.9324 46.9902 60.8845 47.0161 60.833 47.032C60.7978 47.0548 60.759 47.0715 60.7183 47.0812V47.0812ZM51.1404 41.0115L60.5666 46.1099C61.2511 44.7183 61.6517 43.2044 61.7453 41.6565C61.8389 40.1085 61.6235 38.5574 61.1117 37.0935L51.1404 41.0115Z" fill="#093F68"/>
<path d="M63.319 56.4541H37.0075C36.8988 56.4541 36.7946 56.411 36.7177 56.3341C36.6408 56.2572 36.5977 56.153 36.5977 56.0443C36.5977 55.9356 36.6408 55.8314 36.7177 55.7545C36.7946 55.6776 36.8988 55.6345 37.0075 55.6345H63.319C63.4277 55.6345 63.5319 55.6776 63.6088 55.7545C63.6856 55.8314 63.7288 55.9356 63.7288 56.0443C63.7288 56.153 63.6856 56.2572 63.6088 56.3341C63.5319 56.411 63.4277 56.4541 63.319 56.4541V56.4541Z" fill="#DFEAEF"/>
<path d="M63.319 60.4624H37.0075C36.8988 60.4624 36.7946 60.4192 36.7177 60.3423C36.6408 60.2655 36.5977 60.1612 36.5977 60.0525C36.5977 59.9438 36.6408 59.8396 36.7177 59.7627C36.7946 59.6859 36.8988 59.6427 37.0075 59.6427H63.319C63.4277 59.6427 63.5319 59.6859 63.6088 59.7627C63.6856 59.8396 63.7288 59.9438 63.7288 60.0525C63.7288 60.1612 63.6856 60.2655 63.6088 60.3423C63.5319 60.4192 63.4277 60.4624 63.319 60.4624V60.4624Z" fill="#DFEAEF"/>
<path d="M55.4296 64.4624H37.0075C36.8988 64.4624 36.7946 64.4192 36.7177 64.3423C36.6408 64.2655 36.5977 64.1612 36.5977 64.0525C36.5977 63.9438 36.6408 63.8396 36.7177 63.7627C36.7946 63.6859 36.8988 63.6427 37.0075 63.6427H55.4296C55.5383 63.6427 55.6426 63.6859 55.7194 63.7627C55.7963 63.8396 55.8395 63.9438 55.8395 64.0525C55.8395 64.1612 55.7963 64.2655 55.7194 64.3423C55.6426 64.4192 55.5383 64.4624 55.4296 64.4624V64.4624Z" fill="#DFEAEF"/>
<path d="M83.7418 49.5894H67.4713C66.9122 49.5894 66.459 50.0426 66.459 50.6017V63.0402C66.459 63.5993 66.9122 64.0525 67.4713 64.0525H83.7418C84.3008 64.0525 84.7541 63.5993 84.7541 63.0402V50.6017C84.7541 50.0426 84.3008 49.5894 83.7418 49.5894Z" fill="white"/>
<path d="M83.7434 64.4624H67.4729C67.0957 64.4624 66.734 64.3125 66.4673 64.0458C66.2006 63.7791 66.0508 63.4174 66.0508 63.0402V50.6017C66.0508 50.2245 66.2006 49.8628 66.4673 49.5961C66.734 49.3294 67.0957 49.1796 67.4729 49.1796H83.7434C84.1202 49.1806 84.4813 49.3308 84.7478 49.5973C85.0143 49.8638 85.1645 50.2249 85.1655 50.6017V63.0402C85.1645 63.4171 85.0143 63.7782 84.7478 64.0446C84.4813 64.3111 84.1202 64.4613 83.7434 64.4624V64.4624ZM67.4729 49.9992C67.3131 49.9992 67.1599 50.0627 67.0469 50.1757C66.9339 50.2887 66.8705 50.4419 66.8705 50.6017V63.0402C66.8705 63.2 66.9339 63.3532 67.0469 63.4662C67.1599 63.5792 67.3131 63.6427 67.4729 63.6427H83.7434C83.9032 63.6427 84.0564 63.5792 84.1694 63.4662C84.2824 63.3532 84.3459 63.2 84.3459 63.0402V50.6017C84.3459 50.4419 84.2824 50.2887 84.1694 50.1757C84.0564 50.0627 83.9032 49.9992 83.7434 49.9992H67.4729Z" fill="#093F68"/>
<path d="M70.0131 21.3189H30.3164V24.4705H70.0131V21.3189Z" fill="white"/>
<path d="M70.0128 24.8968H30.3161C30.2074 24.8968 30.1031 24.8536 30.0263 24.7767C29.9494 24.6999 29.9062 24.5956 29.9062 24.4869V21.3189C29.9062 21.2102 29.9494 21.106 30.0263 21.0291C30.1031 20.9522 30.2074 20.9091 30.3161 20.9091H70.0128C70.1215 20.9091 70.2257 20.9522 70.3026 21.0291C70.3795 21.106 70.4226 21.2102 70.4226 21.3189V24.4869C70.4226 24.5956 70.3795 24.6999 70.3026 24.7767C70.2257 24.8536 70.1215 24.8968 70.0128 24.8968ZM30.7259 24.0771H69.603V21.7287H30.7259V24.0771Z" fill="#093F68"/>
<path d="M32.6853 23.3148C32.9818 23.3148 33.2222 23.0744 33.2222 22.7779C33.2222 22.4814 32.9818 22.241 32.6853 22.241C32.3888 22.241 32.1484 22.4814 32.1484 22.7779C32.1484 23.0744 32.3888 23.3148 32.6853 23.3148Z" fill="#093F68"/>
<path d="M34.4627 23.3148C34.7592 23.3148 34.9995 23.0744 34.9995 22.7779C34.9995 22.4814 34.7592 22.241 34.4627 22.241C34.1662 22.241 33.9258 22.4814 33.9258 22.7779C33.9258 23.0744 34.1662 23.3148 34.4627 23.3148Z" fill="#DFEAEF"/>
<path d="M36.2478 23.3148C36.5443 23.3148 36.7847 23.0744 36.7847 22.7779C36.7847 22.4814 36.5443 22.241 36.2478 22.241C35.9513 22.241 35.7109 22.4814 35.7109 22.7779C35.7109 23.0744 35.9513 23.3148 36.2478 23.3148Z" fill="#DFEAEF"/>
<path d="M82.768 61.4459H69.4606C69.3519 61.4459 69.2477 61.4027 69.1708 61.3259C69.094 61.249 69.0508 61.1448 69.0508 61.0361V52.6058C69.0508 52.4971 69.094 52.3928 69.1708 52.316C69.2477 52.2391 69.3519 52.1959 69.4606 52.1959C69.5693 52.1959 69.6736 52.2391 69.7504 52.316C69.8273 52.3928 69.8705 52.4971 69.8705 52.6058V60.6262H82.768C82.8767 60.6262 82.9809 60.6694 83.0578 60.7463C83.1347 60.8232 83.1778 60.9274 83.1778 61.0361C83.1778 61.1448 83.1347 61.249 83.0578 61.3259C82.9809 61.4027 82.8767 61.4459 82.768 61.4459Z" fill="#DFEAEF"/>
<path d="M69.4585 61.4459C69.3594 61.4469 69.2633 61.412 69.188 61.3476C69.106 61.2764 69.0556 61.1755 69.0479 61.0671C69.0402 60.9588 69.0759 60.8518 69.147 60.7697L73.4421 55.782C73.5111 55.7029 73.6077 55.6533 73.7122 55.6434C73.8167 55.6335 73.921 55.6641 74.0036 55.7287L76.9052 58.032L80.6429 53.9009C80.6791 53.8605 80.7229 53.8277 80.7718 53.8044C80.8207 53.7811 80.8738 53.7678 80.9279 53.7651C80.982 53.7624 81.0361 53.7705 81.0871 53.7889C81.1381 53.8073 81.1849 53.8356 81.2249 53.8722C81.3052 53.9451 81.3532 54.0469 81.3586 54.1552C81.364 54.2635 81.3262 54.3695 81.2536 54.45L77.2536 58.864C77.1836 58.9407 77.0872 58.988 76.9838 58.9963C76.8803 59.0047 76.7775 58.9735 76.6962 58.9091L73.8027 56.6181L69.7659 61.3025C69.7278 61.347 69.6807 61.3828 69.6277 61.4075C69.5747 61.4323 69.517 61.4454 69.4585 61.4459Z" fill="#DFEAEF"/>
<path d="M28.4993 62.3046L27.3867 60.6083L23.8329 62.9391L24.9455 64.6355L28.4993 62.3046Z" fill="white"/>
<path d="M24.9558 65.0607C24.8876 65.0611 24.8204 65.0444 24.7603 65.0122C24.7002 64.98 24.6491 64.9333 24.6115 64.8763L23.5009 63.1796C23.4405 63.0893 23.4184 62.9788 23.4394 62.8722C23.4617 62.7663 23.5251 62.6734 23.6156 62.614L27.173 60.2821C27.2639 60.2231 27.3743 60.2026 27.4803 60.2248C27.5863 60.2471 27.6791 60.3104 27.7386 60.4009L28.8493 62.0976C28.9082 62.1885 28.9287 62.299 28.9065 62.4049C28.8842 62.5109 28.8209 62.6038 28.7304 62.6632L25.1648 64.9788C25.1041 65.025 25.0318 65.0534 24.9558 65.0607ZM24.4107 63.073L25.0706 64.0853L27.9394 62.2042L27.2796 61.1919L24.4107 63.073Z" fill="#093F68"/>
<path d="M31.5791 60.9305L29.873 58.3294L26.3192 60.6603L28.0252 63.2614L31.5791 60.9305Z" fill="white"/>
<path d="M28.0324 63.6754C27.9642 63.6757 27.897 63.6591 27.8368 63.6268C27.7767 63.5946 27.7256 63.5479 27.6881 63.491L25.9832 60.8885C25.9532 60.8436 25.9323 60.7933 25.9218 60.7403C25.9114 60.6873 25.9115 60.6328 25.9221 60.5798C25.9328 60.5269 25.9538 60.4766 25.984 60.4318C26.0142 60.387 26.0529 60.3486 26.0979 60.3189L29.6512 57.991C29.6961 57.961 29.7465 57.9401 29.7995 57.9297C29.8524 57.9192 29.907 57.9193 29.9599 57.9299C30.0128 57.9406 30.0631 57.9616 30.1079 57.9918C30.1527 58.022 30.1911 58.0607 30.2209 58.1057L31.9258 60.7082C31.9862 60.7985 32.0083 60.909 31.9873 61.0156C31.9635 61.122 31.9006 61.2157 31.811 61.2779L28.2537 63.6057C28.1881 63.6498 28.1113 63.674 28.0324 63.6754ZM26.893 60.782L28.1471 62.6959L31.016 60.8148L29.7578 58.9131L26.893 60.782Z" fill="#093F68"/>
<path d="M25.3559 64.1639L24.4321 62.7554C24.2161 62.4261 23.774 62.3342 23.4447 62.5502L16.4947 67.1086C16.1654 67.3246 16.0735 67.7666 16.2895 68.096L17.2133 69.5045C17.4293 69.8338 17.8714 69.9257 18.2007 69.7097L25.1507 65.1513C25.48 64.9353 25.5719 64.4932 25.3559 64.1639Z" fill="white"/>
<path d="M17.815 70.2369C17.7378 70.237 17.6609 70.2288 17.5855 70.2123C17.44 70.1844 17.3017 70.1271 17.1791 70.0439C17.0565 69.9608 16.9521 69.8535 16.8724 69.7287L15.9502 68.3394C15.8691 68.2162 15.8131 68.0783 15.7855 67.9335C15.7578 67.7886 15.7591 67.6397 15.7892 67.4954C15.8193 67.3511 15.8776 67.2141 15.9608 67.0923C16.044 66.9706 16.1504 66.8665 16.274 66.7861L23.2207 62.1918C23.3438 62.1107 23.4818 62.0547 23.6266 62.027C23.7715 61.9994 23.9203 62.0007 24.0647 62.0307C24.209 62.0608 24.346 62.1192 24.4677 62.2024C24.5895 62.2856 24.6936 62.392 24.774 62.5156L25.7002 63.9254C25.863 64.1744 25.9203 64.4778 25.8596 64.769C25.7989 65.0602 25.6252 65.3155 25.3765 65.4787L18.4092 70.0361C18.2345 70.1585 18.0282 70.2282 17.815 70.2369V70.2369ZM23.8355 62.8598C23.7772 62.8597 23.7201 62.8768 23.6715 62.909L16.7043 67.4664C16.6376 67.5115 16.5907 67.5804 16.5732 67.659C16.5574 67.7385 16.5736 67.821 16.6183 67.8885L17.5445 69.2984C17.5657 69.3316 17.5933 69.3602 17.6257 69.3828C17.658 69.4053 17.6945 69.4212 17.733 69.4295C17.7724 69.4376 17.8129 69.4377 17.8523 69.43C17.8917 69.4223 17.9292 69.4068 17.9625 69.3844L24.9093 64.8271C24.9742 64.7835 25.0199 64.7166 25.0367 64.6403C25.0535 64.5639 25.0401 64.484 24.9994 64.4172L24.0732 63.0074C24.05 62.9627 24.0162 62.9244 23.9748 62.8958C23.9333 62.8672 23.8855 62.8492 23.8355 62.8435V62.8598Z" fill="#093F68"/>
<path d="M41.0084 52.8926C40.2161 51.6812 39.0823 50.7321 37.7504 50.1653C36.4184 49.5985 34.9483 49.4396 33.5261 49.7087C32.1038 49.9777 30.7933 50.6627 29.7605 51.6768C28.7277 52.6909 28.0189 53.9887 27.7239 55.4058C27.4289 56.8229 27.5609 58.2956 28.1032 59.6377C28.6455 60.9797 29.5738 62.1307 30.7705 62.945C31.9672 63.7593 33.3786 64.2002 34.8261 64.2121C36.2735 64.2239 37.6919 63.8061 38.9018 63.0115C40.5206 61.947 41.6514 60.2842 42.0463 58.3874C42.4411 56.4906 42.0679 54.5147 41.0084 52.8926V52.8926ZM33.0657 61.5361C32.1476 61.1774 31.3565 60.5543 30.7928 59.7457C30.2291 58.9371 29.918 57.9794 29.899 56.9938C29.8801 56.0083 30.154 55.0393 30.6862 54.2096C31.2183 53.3799 31.9848 52.7267 32.8884 52.333C33.7921 51.9392 34.7923 51.8225 35.7623 51.9976C36.7324 52.1728 37.6286 52.6319 38.3375 53.3168C39.0464 54.0017 39.5361 54.8816 39.7445 55.845C39.953 56.8084 39.8708 57.812 39.5084 58.7287C39.0241 59.9536 38.0743 60.9367 36.8668 61.4629C35.6593 61.989 34.2926 62.0153 33.0657 61.5361Z" fill="white" stroke="#093F68" stroke-width="2" stroke-linecap="round" stroke-linejoin="round"/>
</svg>
