<svg width="1440" height="1140" viewBox="0 0 1440 1140" fill="none" xmlns="http://www.w3.org/2000/svg">
<rect width="1440" height="1140" fill="#8093FF"/>
<g filter="url(#filter0_d)">
<g clip-path="url(#clip0)">
<rect x="513" y="122" width="414" height="896" rx="35" fill="white"/>
<rect x="513" y="122" width="414" height="896" fill="#171717"/>
<g opacity="0.6">
<path d="M773.663 243.116C778.176 243.116 781.835 239.373 781.835 234.756C781.835 230.138 778.176 226.395 773.663 226.395C769.151 226.395 765.492 230.138 765.492 234.756C765.492 239.373 769.151 243.116 773.663 243.116Z" fill="#536DFE"/>
<path d="M895.414 277.393C898.122 277.393 900.317 275.147 900.317 272.376C900.317 269.606 898.122 267.36 895.414 267.36C892.707 267.36 890.512 269.606 890.512 272.376C890.512 275.147 892.707 277.393 895.414 277.393Z" fill="#E6E6E6"/>
<path d="M517.903 435.401C520.61 435.401 522.806 433.155 522.806 430.385C522.806 427.614 520.61 425.368 517.903 425.368C515.195 425.368 513 427.614 513 430.385C513 433.155 515.195 435.401 517.903 435.401Z" fill="#E6E6E6"/>
<path d="M807.983 570C810.691 570 812.886 567.754 812.886 564.984C812.886 562.214 810.691 559.968 807.983 559.968C805.275 559.968 803.08 562.214 803.08 564.984C803.08 567.754 805.275 570 807.983 570Z" fill="#E6E6E6"/>
<path d="M884.793 421.218L882.347 423.705L879.916 421.201L878.285 422.859L880.715 425.363L878.268 427.849L879.888 429.519L882.335 427.032L884.766 429.536L886.397 427.878L883.966 425.374L886.414 422.888L884.793 421.218Z" fill="#536DFE"/>
<path d="M560.395 503.149L557.948 505.635L555.518 503.131L553.886 504.789L556.316 507.293L553.869 509.779L555.49 511.449L557.936 508.962L560.367 511.466L561.999 509.808L559.568 507.304L562.015 504.817L560.395 503.149Z" fill="#E6E6E6"/>
<path d="M580.006 357.681L577.559 360.167L575.129 357.664L573.497 359.321L575.928 361.825L573.48 364.312L575.101 365.981L577.548 363.494L579.978 365.998L581.61 364.34L579.179 361.837L581.627 359.35L580.006 357.681Z" fill="#E6E6E6"/>
<path d="M814.522 272.406L812.074 274.893L809.644 272.389L808.013 274.047L810.443 276.551L807.996 279.038L809.616 280.707L812.063 278.22L814.494 280.724L816.125 279.066L813.695 276.562L816.142 274.076L814.522 272.406Z" fill="#E6E6E6"/>
<path opacity="0.8" d="M831.493 396.369L856.32 366.631L881.148 336.893L895.164 320.106C895.939 319.177 894.742 317.728 893.967 318.656L869.139 348.394L844.312 378.132L830.296 394.92C829.521 395.848 830.717 397.297 831.493 396.369V396.369Z" fill="url(#paint0_linear)"/>
<path opacity="0.8" d="M787.368 503.379L812.195 473.642L837.023 443.904L851.039 427.116C851.814 426.187 850.617 424.738 849.842 425.667L825.014 455.405L800.187 485.143L786.171 501.93C785.396 502.859 786.592 504.308 787.368 503.379V503.379Z" fill="url(#paint1_linear)"/>
</g>
<g opacity="0.6">
<path d="M616.023 983.53C621.373 983.53 625.71 987.967 625.71 993.441C625.71 998.915 621.373 1003.35 616.023 1003.35C610.673 1003.35 606.336 998.915 606.336 993.441C606.336 987.967 610.673 983.53 616.023 983.53Z" fill="#536DFE"/>
<path d="M875.642 957.761C880.992 957.761 885.33 962.198 885.33 967.672C885.33 973.146 880.992 977.583 875.642 977.583C870.292 977.583 865.955 973.146 865.955 967.672C865.955 962.198 870.292 957.761 875.642 957.761Z" fill="#536DFE"/>
<path d="M760.363 942.894C763.573 942.894 766.176 945.556 766.176 948.841C766.176 952.125 763.573 954.787 760.363 954.787C757.153 954.787 754.551 952.125 754.551 948.841C754.551 945.556 757.153 942.894 760.363 942.894Z" fill="#E6E6E6"/>
<path d="M656.709 596C659.919 596 662.521 598.662 662.521 601.947C662.521 605.231 659.919 607.894 656.709 607.894C653.499 607.894 650.896 605.231 650.896 601.947C650.896 598.662 653.499 596 656.709 596Z" fill="#E6E6E6"/>
<path d="M747.77 772.385L744.869 769.437L741.987 772.405L740.054 770.44L742.935 767.471L740.033 764.524L741.954 762.544L744.856 765.493L747.737 762.524L749.671 764.49L746.789 767.458L749.691 770.406L747.77 772.385Z" fill="#536DFE"/>
<path d="M664.461 948.805L661.56 945.857L658.678 948.825L656.744 946.86L659.625 943.892L656.725 940.944L658.645 938.964L661.546 941.913L664.428 938.944L666.362 940.91L663.481 943.878L666.381 946.826L664.461 948.805Z" fill="#E6E6E6"/>
<path opacity="0.8" d="M684.58 801.845L714.014 837.1L743.447 872.355L760.063 892.257C760.983 893.358 759.564 895.076 758.645 893.974L729.211 858.72L699.777 823.465L683.161 803.563C682.242 802.461 683.66 800.744 684.58 801.845V801.845Z" fill="url(#paint2_linear)"/>
<path opacity="0.8" d="M632.271 674.98L661.705 710.235L691.139 745.49L707.755 765.392C708.674 766.494 707.255 768.211 706.336 767.11L676.902 731.855L647.468 696.6L630.853 676.698C629.933 675.597 631.352 673.879 632.271 674.98V674.98Z" fill="url(#paint3_linear)"/>
</g>
<path d="M571.766 195.296C570.409 195.296 569.114 195.185 567.881 194.963C566.648 194.716 565.488 194.359 564.403 193.89C563.342 193.421 562.405 192.854 561.591 192.188L563.182 188.71C564.514 189.697 565.871 190.412 567.252 190.856C568.633 191.3 570.15 191.522 571.803 191.522C573.628 191.522 575.034 191.201 576.021 190.56C577.032 189.919 577.538 189.018 577.538 187.859C577.538 187.168 577.316 186.601 576.872 186.157C576.428 185.688 575.762 185.294 574.874 184.973C573.986 184.652 572.888 184.344 571.581 184.048C570.027 183.752 568.658 183.394 567.474 182.975C566.29 182.531 565.303 182.013 564.514 181.421C563.725 180.829 563.12 180.126 562.701 179.312C562.306 178.473 562.109 177.487 562.109 176.352C562.109 174.798 562.528 173.417 563.367 172.208C564.206 170.999 565.377 170.062 566.882 169.396C568.411 168.705 570.2 168.36 572.247 168.36C573.48 168.36 574.677 168.483 575.836 168.73C577.02 168.977 578.105 169.334 579.092 169.803C580.079 170.247 580.93 170.802 581.645 171.468L580.017 174.946C578.833 173.984 577.6 173.281 576.317 172.837C575.034 172.368 573.69 172.134 572.284 172.134C570.582 172.134 569.238 172.479 568.251 173.17C567.264 173.861 566.771 174.823 566.771 176.056C566.771 176.771 566.968 177.363 567.363 177.832C567.782 178.301 568.411 178.695 569.25 179.016C570.113 179.337 571.211 179.657 572.543 179.978C574.072 180.299 575.429 180.669 576.613 181.088C577.822 181.507 578.845 182.013 579.684 182.605C580.523 183.172 581.152 183.863 581.571 184.677C582.015 185.466 582.237 186.416 582.237 187.526C582.237 189.105 581.818 190.486 580.979 191.67C580.14 192.829 578.932 193.73 577.353 194.371C575.799 194.988 573.937 195.296 571.766 195.296ZM586.327 202.992V181.606C586.327 180.743 586.302 179.867 586.253 178.979C586.228 178.066 586.154 177.178 586.031 176.315H590.397L590.804 180.015L590.545 180.237C590.939 178.856 591.716 177.783 592.876 177.018C594.035 176.229 595.404 175.834 596.983 175.834C598.611 175.834 600.041 176.253 601.275 177.092C602.533 177.906 603.519 179.053 604.235 180.533C604.95 181.988 605.308 183.703 605.308 185.676C605.308 187.625 604.95 189.327 604.235 190.782C603.519 192.213 602.545 193.323 601.312 194.112C600.078 194.877 598.635 195.259 596.983 195.259C595.404 195.259 594.035 194.889 592.876 194.149C591.716 193.384 590.939 192.311 590.545 190.93L590.952 190.338V202.992H586.327ZM595.799 191.707C597.328 191.707 598.512 191.189 599.351 190.153C600.189 189.092 600.609 187.6 600.609 185.676C600.609 183.703 600.189 182.173 599.351 181.088C598.512 180.003 597.328 179.46 595.799 179.46C594.22 179.46 593.011 179.99 592.173 181.051C591.359 182.087 590.952 183.604 590.952 185.602C590.952 187.551 591.359 189.055 592.173 190.116C593.011 191.177 594.22 191.707 595.799 191.707ZM616.56 195.259C614.932 195.259 613.489 194.877 612.231 194.112C610.973 193.323 609.999 192.213 609.308 190.782C608.642 189.327 608.309 187.625 608.309 185.676C608.309 183.703 608.654 181.988 609.345 180.533C610.036 179.053 610.998 177.906 612.231 177.092C613.489 176.253 614.932 175.834 616.56 175.834C618.139 175.834 619.508 176.229 620.667 177.018C621.851 177.783 622.653 178.856 623.072 180.237L622.628 180.496V176.315H627.179V195H622.628V190.782L623.072 190.93C622.653 192.311 621.851 193.384 620.667 194.149C619.508 194.889 618.139 195.259 616.56 195.259ZM617.818 191.707C619.347 191.707 620.531 191.177 621.37 190.116C622.209 189.055 622.628 187.551 622.628 185.602C622.628 183.604 622.209 182.087 621.37 181.051C620.531 179.99 619.347 179.46 617.818 179.46C616.264 179.46 615.055 180.003 614.192 181.088C613.329 182.173 612.897 183.703 612.897 185.676C612.897 187.6 613.329 189.092 614.192 190.153C615.055 191.189 616.264 191.707 617.818 191.707ZM640.652 195.259C638.704 195.259 637.014 194.877 635.583 194.112C634.177 193.323 633.092 192.213 632.327 190.782C631.587 189.327 631.217 187.625 631.217 185.676C631.217 183.703 631.612 181.976 632.401 180.496C633.191 179.016 634.313 177.869 635.768 177.055C637.224 176.241 638.926 175.834 640.874 175.834C642.182 175.834 643.452 176.044 644.685 176.463C645.943 176.882 646.967 177.462 647.756 178.202L646.424 181.458C645.635 180.817 644.796 180.336 643.908 180.015C643.02 179.67 642.132 179.497 641.244 179.497C639.616 179.497 638.321 180.015 637.359 181.051C636.422 182.087 635.953 183.604 635.953 185.602C635.953 187.575 636.422 189.08 637.359 190.116C638.297 191.152 639.604 191.67 641.281 191.67C642.145 191.67 643.02 191.51 643.908 191.189C644.796 190.844 645.635 190.338 646.424 189.672L647.756 192.928C646.942 193.668 645.894 194.248 644.611 194.667C643.353 195.062 642.034 195.259 640.652 195.259ZM666.882 192.928C665.994 193.668 664.896 194.248 663.589 194.667C662.306 195.062 660.999 195.259 659.667 195.259C657.644 195.259 655.893 194.877 654.413 194.112C652.957 193.347 651.835 192.237 651.046 190.782C650.256 189.327 649.862 187.6 649.862 185.602C649.862 183.678 650.244 181.988 651.009 180.533C651.773 179.053 652.834 177.906 654.191 177.092C655.547 176.253 657.114 175.834 658.89 175.834C660.616 175.834 662.096 176.216 663.33 176.981C664.563 177.721 665.513 178.794 666.179 180.2C666.869 181.606 667.215 183.271 667.215 185.195V185.898H653.932L653.969 183.419H664.477L663.219 184.677C663.243 182.876 662.886 181.507 662.146 180.57C661.43 179.633 660.382 179.164 659.001 179.164C657.521 179.164 656.374 179.694 655.56 180.755C654.746 181.791 654.339 183.283 654.339 185.232C654.339 187.452 654.795 189.092 655.708 190.153C656.62 191.189 658.002 191.707 659.852 191.707C660.863 191.707 661.85 191.547 662.812 191.226C663.798 190.881 664.711 190.387 665.55 189.746L666.882 192.928ZM671.094 195V167.768H675.719V180.755L675.312 180.2C675.707 178.868 676.484 177.807 677.643 177.018C678.803 176.229 680.172 175.834 681.75 175.834C683.403 175.834 684.846 176.229 686.079 177.018C687.313 177.807 688.287 178.93 689.002 180.385C689.718 181.84 690.075 183.542 690.075 185.491C690.075 187.44 689.718 189.154 689.002 190.634C688.287 192.114 687.3 193.261 686.042 194.075C684.809 194.864 683.378 195.259 681.75 195.259C680.172 195.259 678.803 194.889 677.643 194.149C676.484 193.384 675.707 192.311 675.312 190.93L675.719 190.264V195H671.094ZM680.566 191.707C682.096 191.707 683.28 191.164 684.118 190.079C684.957 188.994 685.376 187.464 685.376 185.491C685.376 183.567 684.957 182.087 684.118 181.051C683.28 179.99 682.096 179.46 680.566 179.46C678.988 179.46 677.779 179.99 676.94 181.051C676.126 182.112 675.719 183.616 675.719 185.565C675.719 187.538 676.126 189.055 676.94 190.116C677.779 191.177 678.988 191.707 680.566 191.707ZM702.549 195.259C700.6 195.259 698.91 194.864 697.48 194.075C696.074 193.286 694.988 192.176 694.224 190.745C693.459 189.29 693.077 187.563 693.077 185.565C693.077 183.592 693.459 181.877 694.224 180.422C694.988 178.942 696.074 177.807 697.48 177.018C698.91 176.229 700.6 175.834 702.549 175.834C704.448 175.834 706.101 176.229 707.507 177.018C708.937 177.807 710.035 178.942 710.8 180.422C711.589 181.877 711.984 183.592 711.984 185.565C711.984 187.563 711.589 189.29 710.8 190.745C710.035 192.176 708.937 193.286 707.507 194.075C706.101 194.864 704.448 195.259 702.549 195.259ZM702.549 191.707C704.078 191.707 705.25 191.201 706.064 190.19C706.902 189.154 707.322 187.612 707.322 185.565C707.322 183.542 706.902 182.025 706.064 181.014C705.25 179.978 704.078 179.46 702.549 179.46C700.995 179.46 699.786 179.978 698.923 181.014C698.084 182.025 697.665 183.542 697.665 185.565C697.665 187.612 698.084 189.154 698.923 190.19C699.761 191.201 700.97 191.707 702.549 191.707ZM713.533 179.793V176.315H726.705V179.793H713.533ZM726.705 191.152V194.815C726.211 194.988 725.718 195.099 725.225 195.148C724.756 195.222 724.25 195.259 723.708 195.259C721.611 195.259 719.983 194.667 718.824 193.483C717.689 192.299 717.122 190.597 717.122 188.377V171.764L721.747 170.21V188.155C721.747 188.994 721.882 189.66 722.154 190.153C722.425 190.622 722.783 190.955 723.227 191.152C723.695 191.349 724.213 191.448 724.781 191.448C725.101 191.448 725.41 191.423 725.706 191.374C726.002 191.325 726.335 191.251 726.705 191.152ZM561.95 224H560L564.83 213.32H566.405L571.235 224H569.315L565.385 214.82H565.91L561.95 224ZM562.13 221.495L562.865 219.995H568.31L569.015 221.495H562.13ZM572.39 224V213.32H574.325V224H572.39ZM585.614 224.12C584.554 224.12 583.634 223.9 582.854 223.46C582.074 223.01 581.474 222.375 581.054 221.555C580.644 220.735 580.439 219.765 580.439 218.645C580.439 217.535 580.644 216.575 581.054 215.765C581.474 214.945 582.074 214.315 582.854 213.875C583.634 213.425 584.554 213.2 585.614 213.2C586.334 213.2 587.009 213.31 587.639 213.53C588.279 213.74 588.809 214.05 589.229 214.46L588.599 215.87C588.109 215.48 587.629 215.2 587.159 215.03C586.689 214.85 586.184 214.76 585.644 214.76C584.614 214.76 583.814 215.095 583.244 215.765C582.684 216.425 582.404 217.385 582.404 218.645C582.404 219.905 582.684 220.875 583.244 221.555C583.814 222.225 584.614 222.56 585.644 222.56C586.184 222.56 586.689 222.475 587.159 222.305C587.629 222.125 588.109 221.84 588.599 221.45L589.229 222.86C588.809 223.27 588.279 223.585 587.639 223.805C587.009 224.015 586.334 224.12 585.614 224.12ZM590.873 224V212.96H592.748V217.955L592.523 217.97C592.763 217.4 593.118 216.97 593.588 216.68C594.068 216.38 594.618 216.23 595.238 216.23C597.038 216.23 597.938 217.27 597.938 219.35V224H596.063V219.425C596.063 218.835 595.948 218.405 595.718 218.135C595.488 217.855 595.133 217.715 594.653 217.715C594.073 217.715 593.608 217.9 593.258 218.27C592.918 218.63 592.748 219.11 592.748 219.71V224H590.873ZM602.852 224.105C602.192 224.105 601.607 223.95 601.097 223.64C600.587 223.32 600.192 222.87 599.912 222.29C599.642 221.7 599.507 221.01 599.507 220.22C599.507 219.42 599.647 218.725 599.927 218.135C600.207 217.535 600.597 217.07 601.097 216.74C601.607 216.4 602.192 216.23 602.852 216.23C603.492 216.23 604.047 216.39 604.517 216.71C604.997 217.02 605.322 217.455 605.492 218.015L605.312 218.12V216.425H607.157V224H605.312V222.29L605.492 222.35C605.322 222.91 604.997 223.345 604.517 223.655C604.047 223.955 603.492 224.105 602.852 224.105ZM603.362 222.665C603.982 222.665 604.462 222.45 604.802 222.02C605.142 221.59 605.312 220.98 605.312 220.19C605.312 219.38 605.142 218.765 604.802 218.345C604.462 217.915 603.982 217.7 603.362 217.7C602.732 217.7 602.242 217.92 601.892 218.36C601.542 218.8 601.367 219.42 601.367 220.22C601.367 221 601.542 221.605 601.892 222.035C602.242 222.455 602.732 222.665 603.362 222.665ZM608.254 217.835V216.425H613.594V217.835H608.254ZM613.594 222.44V223.925C613.394 223.995 613.194 224.04 612.994 224.06C612.804 224.09 612.599 224.105 612.379 224.105C611.529 224.105 610.869 223.865 610.399 223.385C609.939 222.905 609.709 222.215 609.709 221.315V214.58L611.584 213.95V221.225C611.584 221.565 611.639 221.835 611.749 222.035C611.859 222.225 612.004 222.36 612.184 222.44C612.374 222.52 612.584 222.56 612.814 222.56C612.944 222.56 613.069 222.55 613.189 222.53C613.309 222.51 613.444 222.48 613.594 222.44ZM614.867 224V212.96H616.742V218.225L616.577 218C616.737 217.46 617.052 217.03 617.522 216.71C617.992 216.39 618.547 216.23 619.187 216.23C619.857 216.23 620.442 216.39 620.942 216.71C621.442 217.03 621.837 217.485 622.127 218.075C622.417 218.665 622.562 219.355 622.562 220.145C622.562 220.935 622.417 221.63 622.127 222.23C621.837 222.83 621.437 223.295 620.927 223.625C620.427 223.945 619.847 224.105 619.187 224.105C618.547 224.105 617.992 223.955 617.522 223.655C617.052 223.345 616.737 222.91 616.577 222.35L616.742 222.08V224H614.867ZM618.707 222.665C619.327 222.665 619.807 222.445 620.147 222.005C620.487 221.565 620.657 220.945 620.657 220.145C620.657 219.365 620.487 218.765 620.147 218.345C619.807 217.915 619.327 217.7 618.707 217.7C618.067 217.7 617.577 217.915 617.237 218.345C616.907 218.775 616.742 219.385 616.742 220.175C616.742 220.975 616.907 221.59 617.237 222.02C617.577 222.45 618.067 222.665 618.707 222.665ZM627.619 224.105C626.829 224.105 626.144 223.945 625.564 223.625C624.994 223.305 624.554 222.855 624.244 222.275C623.934 221.685 623.779 220.985 623.779 220.175C623.779 219.375 623.934 218.68 624.244 218.09C624.554 217.49 624.994 217.03 625.564 216.71C626.144 216.39 626.829 216.23 627.619 216.23C628.389 216.23 629.059 216.39 629.629 216.71C630.209 217.03 630.654 217.49 630.964 218.09C631.284 218.68 631.444 219.375 631.444 220.175C631.444 220.985 631.284 221.685 630.964 222.275C630.654 222.855 630.209 223.305 629.629 223.625C629.059 223.945 628.389 224.105 627.619 224.105ZM627.619 222.665C628.239 222.665 628.714 222.46 629.044 222.05C629.384 221.63 629.554 221.005 629.554 220.175C629.554 219.355 629.384 218.74 629.044 218.33C628.714 217.91 628.239 217.7 627.619 217.7C626.989 217.7 626.499 217.91 626.149 218.33C625.809 218.74 625.639 219.355 625.639 220.175C625.639 221.005 625.809 221.63 626.149 222.05C626.489 222.46 626.979 222.665 627.619 222.665ZM632.072 217.835V216.425H637.412V217.835H632.072ZM637.412 222.44V223.925C637.212 223.995 637.012 224.04 636.812 224.06C636.622 224.09 636.417 224.105 636.197 224.105C635.347 224.105 634.687 223.865 634.217 223.385C633.757 222.905 633.527 222.215 633.527 221.315V214.58L635.402 213.95V221.225C635.402 221.565 635.457 221.835 635.567 222.035C635.677 222.225 635.822 222.36 636.002 222.44C636.192 222.52 636.402 222.56 636.632 222.56C636.762 222.56 636.887 222.55 637.007 222.53C637.127 222.51 637.262 222.48 637.412 222.44Z" fill="white"/>
<path d="M685.826 368.619H750.224V394.587C750.224 399.061 748.49 403.352 745.403 406.516C742.315 409.679 738.128 411.457 733.762 411.457H702.288C697.922 411.457 693.735 409.679 690.648 406.516C687.561 403.352 685.826 399.061 685.826 394.587V368.619H685.826Z" fill="#2F2E41"/>
<path d="M771.69 713.632C757.025 728.858 742.338 728.96 727.629 714.123L716.33 611.749L708.422 714.337C693.722 726.528 680.023 728.17 667.75 714.79C656.041 626.154 649.677 543.809 659.841 480.922L638.375 391.775L686.956 368.619C696.739 393.418 681.309 406.102 716.2 405.678C750.784 405.257 748.201 391.926 746.835 368.619L791.525 386.233C795.331 387.734 798.435 390.665 800.205 394.43C801.974 398.195 802.276 402.509 801.048 406.494L778.469 479.764C787.161 516.752 778.236 619.641 771.69 713.632Z" fill="#CFCFCF"/>
<path d="M703.904 802.779C703.904 802.779 667.837 806.017 663.006 803.978C662.701 803.85 662.404 803.71 662.115 803.558C654.935 799.802 654.716 789.281 661.427 784.702L675.659 774.993L663.231 706.685L711.247 707.264L703.904 802.779Z" fill="#2F2E41"/>
<path d="M731.019 803.358C731.019 803.358 767.085 806.596 771.917 804.557C772.222 804.429 772.519 804.289 772.807 804.137C779.987 800.38 780.206 789.86 773.495 785.281L759.264 775.572L776.775 707.264H726.5L731.019 803.358Z" fill="#2F2E41"/>
<path d="M646.284 559.65L653.433 588.954C654.312 592.556 654.06 596.35 652.715 599.797C651.369 603.243 648.997 606.168 645.936 608.154V608.154C643.463 609.76 640.632 610.693 637.709 610.865C634.787 611.038 631.869 610.445 629.232 609.142C626.596 607.84 624.326 605.87 622.638 603.419C620.95 600.968 619.899 598.117 619.585 595.134L618.04 580.49L612.391 441.302C612.391 429.725 615.74 418.408 622.014 408.781C628.289 399.155 637.207 391.65 647.643 387.216L658.712 382.513L646.284 559.65Z" fill="#CFCFCF"/>
<path d="M825.919 440.146L825.885 440.968L821.321 553.317L820.439 575.025L820.27 579.332L818.722 593.978C818.468 596.385 817.734 598.713 816.565 600.817C815.397 602.921 813.818 604.756 811.928 606.209C810.037 607.661 807.876 608.7 805.577 609.26C803.279 609.82 800.892 609.89 798.566 609.465C796.241 609.04 794.025 608.13 792.057 606.791C790.088 605.451 788.41 603.711 787.126 601.679C785.842 599.646 784.979 597.365 784.592 594.977C784.204 592.588 784.3 590.144 784.874 587.795L792.025 558.492L791.867 556.316L790.918 542.7L779.598 381.355L790.67 386.055C801.099 390.5 810.011 398.007 816.284 407.633C822.556 417.259 825.909 428.571 825.919 440.146V440.146Z" fill="#CFCFCF"/>
<path d="M720.912 567.997C679.873 567.997 654.557 553.412 654.199 553.201L655.328 551.195C655.833 551.494 706.605 580.678 781.198 555.381L781.909 557.579C762.253 564.379 741.658 567.897 720.912 567.997V567.997Z" fill="#2F2E41"/>
<path d="M680.276 674.739C671.244 653.914 671.199 563.401 671.201 559.558L673.461 559.561C673.46 560.497 673.503 653.42 682.341 673.798L680.276 674.739Z" fill="#2F2E41"/>
<path d="M684.973 675.673C676.928 675.673 671.582 673.917 668.097 671.903C661.752 668.236 660.443 663.24 660.391 663.03L662.58 662.455L661.485 662.743L662.578 662.45C662.624 662.625 663.766 666.785 669.307 669.944C675.408 673.42 687.688 676.015 711.535 668.625L712.188 670.841C700.776 674.378 691.88 675.673 684.973 675.673Z" fill="#2F2E41"/>
<path d="M664.793 379.665L662.535 379.778L671.202 561.115L673.459 561.002L664.793 379.665Z" fill="#2F2E41"/>
<path d="M756.905 674.739L754.84 673.798C763.678 653.42 763.721 560.497 763.72 559.561L765.98 559.558C765.982 563.401 765.937 653.914 756.905 674.739Z" fill="#2F2E41"/>
<path d="M752.207 675.673C745.301 675.673 736.407 674.379 724.992 670.841L725.645 668.625C749.492 676.014 761.77 673.421 767.873 669.944C773.414 666.785 774.556 662.625 774.601 662.45L776.789 663.03C776.736 663.24 775.428 668.236 769.083 671.903C765.598 673.917 760.251 675.673 752.207 675.673Z" fill="#2F2E41"/>
<path d="M772.381 379.665L763.732 561.003L765.99 561.116L774.639 379.778L772.381 379.665Z" fill="#2F2E41"/>
<path d="M750.088 406.826L733.276 432.296H697.123L685.035 406.826H690.345L699.383 427.665H729.887L744.575 406.826H750.088Z" fill="#536DFE"/>
<path d="M790.896 419.561L791.19 420.162L790.896 420.718V419.561Z" fill="black"/>
<path d="M828.179 440.146L828.145 440.968L806.713 447.347L793.449 420.163L807.018 394.669C813.63 400.154 818.961 407.084 822.623 414.952C826.284 422.821 828.182 431.429 828.179 440.146V440.146Z" fill="#536DFE"/>
<path d="M611 440.146L611.034 440.968L632.466 447.347L645.73 420.163L632.161 394.669C625.549 400.154 620.217 407.084 616.556 414.952C612.895 422.821 610.997 431.429 611 440.146V440.146Z" fill="#536DFE"/>
<path d="M718.025 387.723C751.095 387.723 777.904 360.25 777.904 326.361C777.904 292.472 751.095 265 718.025 265C684.955 265 658.146 292.472 658.146 326.361C658.146 360.25 684.955 387.723 718.025 387.723Z" fill="#CFCFCF"/>
<path d="M718.025 379.618C742.359 379.618 762.086 359.403 762.086 334.466C762.086 309.529 742.359 289.313 718.025 289.313C693.69 289.313 673.963 309.529 673.963 334.466C673.963 359.403 693.69 379.618 718.025 379.618Z" fill="#2F2E41"/>
<path d="M821.967 553.318L821.049 575.025L792.072 559.072L791.32 556.316L790.332 542.7L821.967 553.318Z" fill="#536DFE"/>
<path d="M615.859 553.318L616.823 575.025L647.281 559.072L648.072 556.316L649.11 542.7L615.859 553.318Z" fill="#536DFE"/>
<path d="M733.879 433.455H696.418L675.677 389.764L674.611 374.049L676.865 373.889L677.901 389.154L697.833 431.138H732.679L758.239 392.419L763.68 375.324L765.83 376.041L760.2 393.582L733.879 433.455Z" fill="#2F2E41"/>
<g filter="url(#filter1_d)">
<rect x="553" y="543" width="333" height="305" rx="12" fill="#F6F6F6"/>
<rect x="591" y="731" width="258" height="56" rx="28" fill="#5182FF"/>
<path d="M692.733 766.778V751.114H695.571V764.446H702.875V766.778H692.733ZM709.82 766.932C708.661 766.932 707.656 766.697 706.806 766.228C705.97 765.758 705.324 765.098 704.87 764.248C704.415 763.382 704.188 762.356 704.188 761.168C704.188 759.994 704.415 758.975 704.87 758.11C705.324 757.23 705.97 756.555 706.806 756.086C707.656 755.616 708.661 755.382 709.82 755.382C710.949 755.382 711.932 755.616 712.768 756.086C713.618 756.555 714.271 757.23 714.726 758.11C715.195 758.975 715.43 759.994 715.43 761.168C715.43 762.356 715.195 763.382 714.726 764.248C714.271 765.098 713.618 765.758 712.768 766.228C711.932 766.697 710.949 766.932 709.82 766.932ZM709.82 764.82C710.729 764.82 711.426 764.519 711.91 763.918C712.408 763.302 712.658 762.385 712.658 761.168C712.658 759.965 712.408 759.063 711.91 758.462C711.426 757.846 710.729 757.538 709.82 757.538C708.896 757.538 708.177 757.846 707.664 758.462C707.165 759.063 706.916 759.965 706.916 761.168C706.916 762.385 707.165 763.302 707.664 763.918C708.162 764.519 708.881 764.82 709.82 764.82ZM722.883 771.684C721.167 771.684 719.664 771.332 718.373 770.628L718.813 768.538C719.488 768.89 720.148 769.146 720.793 769.308C721.453 769.484 722.135 769.572 722.839 769.572C723.822 769.572 724.562 769.33 725.061 768.846C725.56 768.362 725.809 767.628 725.809 766.646V763.896H726.073C725.897 764.365 725.618 764.798 725.237 765.194C724.87 765.575 724.423 765.883 723.895 766.118C723.367 766.338 722.788 766.448 722.157 766.448C721.189 766.448 720.331 766.22 719.583 765.766C718.835 765.311 718.248 764.673 717.823 763.852C717.412 763.016 717.207 762.04 717.207 760.926C717.207 759.811 717.412 758.843 717.823 758.022C718.248 757.186 718.835 756.54 719.583 756.086C720.331 755.616 721.189 755.382 722.157 755.382C723.11 755.382 723.939 755.616 724.643 756.086C725.347 756.555 725.824 757.186 726.073 757.978L725.809 758.022V755.668H728.537V766.426C728.537 768.156 728.06 769.462 727.107 770.342C726.154 771.236 724.746 771.684 722.883 771.684ZM722.905 764.314C723.814 764.314 724.526 764.013 725.039 763.412C725.552 762.81 725.809 761.982 725.809 760.926C725.809 759.87 725.552 759.041 725.039 758.44C724.526 757.838 723.814 757.538 722.905 757.538C721.981 757.538 721.255 757.838 720.727 758.44C720.199 759.041 719.935 759.87 719.935 760.926C719.935 761.982 720.199 762.81 720.727 763.412C721.255 764.013 721.981 764.314 722.905 764.314ZM731.486 766.778V755.668H734.236V766.778H731.486ZM731.354 750.63H734.412V753.336H731.354V750.63ZM737.201 766.778V758.814C737.201 758.286 737.186 757.758 737.157 757.23C737.142 756.702 737.098 756.181 737.025 755.668H739.621L739.863 757.868L739.621 757.934C739.973 757.098 740.494 756.467 741.183 756.042C741.887 755.602 742.694 755.382 743.603 755.382C746.243 755.382 747.563 756.907 747.563 759.958V766.778H744.813V760.068C744.813 759.202 744.644 758.572 744.307 758.176C743.97 757.765 743.449 757.56 742.745 757.56C741.894 757.56 741.212 757.831 740.699 758.374C740.2 758.902 739.951 759.606 739.951 760.486V766.778H737.201Z" fill="white"/>
<path d="M645.695 825V815.032H646.577L652.933 823.502L652.597 823.586V815.032H653.689V825H652.793L646.451 816.544L646.773 816.446V825H645.695ZM658.912 825.098C658.24 825.098 657.652 824.949 657.148 824.65C656.654 824.351 656.266 823.931 655.986 823.39C655.716 822.839 655.58 822.191 655.58 821.444C655.58 820.707 655.716 820.063 655.986 819.512C656.266 818.961 656.654 818.537 657.148 818.238C657.652 817.939 658.24 817.79 658.912 817.79C659.584 817.79 660.168 817.939 660.662 818.238C661.166 818.537 661.554 818.961 661.824 819.512C662.104 820.063 662.244 820.707 662.244 821.444C662.244 822.191 662.104 822.839 661.824 823.39C661.554 823.931 661.166 824.351 660.662 824.65C660.168 824.949 659.584 825.098 658.912 825.098ZM658.912 824.16C659.603 824.16 660.135 823.931 660.508 823.474C660.891 823.007 661.082 822.331 661.082 821.444C661.082 820.576 660.891 819.909 660.508 819.442C660.126 818.975 659.594 818.742 658.912 818.742C658.231 818.742 657.694 818.975 657.302 819.442C656.92 819.909 656.728 820.576 656.728 821.444C656.728 822.331 656.915 823.007 657.288 823.474C657.671 823.931 658.212 824.16 658.912 824.16ZM663.004 818.854V817.958H667.526V818.854H663.004ZM667.498 823.992V824.958C667.34 825.005 667.181 825.037 667.022 825.056C666.873 825.084 666.705 825.098 666.518 825.098C665.865 825.098 665.342 824.911 664.95 824.538C664.568 824.165 664.376 823.605 664.376 822.858V816.152L665.51 815.746V822.704C665.51 823.077 665.562 823.367 665.664 823.572C665.776 823.777 665.926 823.922 666.112 824.006C666.299 824.081 666.509 824.118 666.742 824.118C666.882 824.118 667.008 824.109 667.12 824.09C667.232 824.071 667.358 824.039 667.498 823.992ZM675.245 825.098C674.62 825.098 674.069 824.953 673.593 824.664C673.127 824.365 672.763 823.945 672.501 823.404C672.249 822.853 672.123 822.209 672.123 821.472C672.123 820.735 672.254 820.091 672.515 819.54C672.777 818.989 673.141 818.56 673.607 818.252C674.083 817.944 674.629 817.79 675.245 817.79C675.889 817.79 676.435 817.949 676.883 818.266C677.331 818.583 677.635 819.036 677.793 819.624L677.625 819.736V817.958H678.745V825H677.625V823.18L677.793 823.264C677.635 823.852 677.331 824.305 676.883 824.622C676.435 824.939 675.889 825.098 675.245 825.098ZM675.469 824.16C676.16 824.16 676.692 823.927 677.065 823.46C677.439 822.984 677.625 822.312 677.625 821.444C677.625 820.576 677.434 819.909 677.051 819.442C676.678 818.975 676.151 818.742 675.469 818.742C674.779 818.742 674.237 818.985 673.845 819.47C673.463 819.946 673.271 820.613 673.271 821.472C673.271 822.331 673.463 822.993 673.845 823.46C674.237 823.927 674.779 824.16 675.469 824.16ZM684.588 825V819.932C684.588 819.605 684.579 819.279 684.56 818.952C684.551 818.616 684.523 818.285 684.476 817.958H685.554L685.68 819.414L685.54 819.512C685.708 818.961 685.997 818.537 686.408 818.238C686.828 817.939 687.323 817.79 687.892 817.79C688.573 817.79 689.101 817.958 689.474 818.294C689.857 818.63 690.099 819.143 690.202 819.834L689.866 819.652C690.015 819.083 690.314 818.63 690.762 818.294C691.219 817.958 691.765 817.79 692.4 817.79C693.175 817.79 693.758 818.023 694.15 818.49C694.542 818.947 694.738 819.643 694.738 820.576V825H693.604V820.632C693.604 819.979 693.487 819.503 693.254 819.204C693.021 818.896 692.652 818.742 692.148 818.742C691.56 818.742 691.093 818.943 690.748 819.344C690.412 819.745 690.244 820.291 690.244 820.982V825H689.11V820.632C689.11 819.979 688.989 819.503 688.746 819.204C688.513 818.896 688.144 818.742 687.64 818.742C687.043 818.742 686.571 818.943 686.226 819.344C685.89 819.745 685.722 820.291 685.722 820.982V825H684.588ZM702.661 824.16C702.353 824.449 701.956 824.678 701.471 824.846C700.995 825.014 700.505 825.098 700.001 825.098C699.273 825.098 698.643 824.953 698.111 824.664C697.588 824.375 697.182 823.959 696.893 823.418C696.613 822.867 696.473 822.214 696.473 821.458C696.473 820.73 696.613 820.091 696.893 819.54C697.173 818.989 697.56 818.56 698.055 818.252C698.559 817.944 699.137 817.79 699.791 817.79C700.416 817.79 700.953 817.93 701.401 818.21C701.849 818.481 702.189 818.873 702.423 819.386C702.665 819.899 702.787 820.515 702.787 821.234V821.444H697.467V820.702H702.143L701.779 821.22C701.797 820.399 701.634 819.769 701.289 819.33C700.953 818.891 700.458 818.672 699.805 818.672C699.123 818.672 698.587 818.915 698.195 819.4C697.812 819.876 697.621 820.539 697.621 821.388C697.621 822.303 697.821 822.993 698.223 823.46C698.633 823.927 699.231 824.16 700.015 824.16C700.425 824.16 700.817 824.095 701.191 823.964C701.573 823.824 701.937 823.614 702.283 823.334L702.661 824.16ZM704.508 825V819.932C704.508 819.605 704.499 819.279 704.48 818.952C704.471 818.616 704.443 818.285 704.396 817.958H705.474L705.6 819.414L705.46 819.512C705.628 818.961 705.917 818.537 706.328 818.238C706.748 817.939 707.243 817.79 707.812 817.79C708.493 817.79 709.021 817.958 709.394 818.294C709.777 818.63 710.019 819.143 710.122 819.834L709.786 819.652C709.935 819.083 710.234 818.63 710.682 818.294C711.139 817.958 711.685 817.79 712.32 817.79C713.095 817.79 713.678 818.023 714.07 818.49C714.462 818.947 714.658 819.643 714.658 820.576V825H713.524V820.632C713.524 819.979 713.407 819.503 713.174 819.204C712.941 818.896 712.572 818.742 712.068 818.742C711.48 818.742 711.013 818.943 710.668 819.344C710.332 819.745 710.164 820.291 710.164 820.982V825H709.03V820.632C709.03 819.979 708.909 819.503 708.666 819.204C708.433 818.896 708.064 818.742 707.56 818.742C706.963 818.742 706.491 818.943 706.146 819.344C705.81 819.745 705.642 820.291 705.642 820.982V825H704.508ZM716.813 825V814.696H717.947V819.764L717.793 819.624C717.951 819.045 718.255 818.597 718.703 818.28C719.151 817.953 719.692 817.79 720.327 817.79C720.952 817.79 721.498 817.939 721.965 818.238C722.431 818.537 722.795 818.957 723.057 819.498C723.327 820.039 723.463 820.679 723.463 821.416C723.463 822.153 723.327 822.802 723.057 823.362C722.795 823.913 722.427 824.342 721.951 824.65C721.484 824.949 720.943 825.098 720.327 825.098C719.692 825.098 719.151 824.939 718.703 824.622C718.255 824.305 717.951 823.852 717.793 823.264L717.947 823.11V825H716.813ZM720.117 824.16C720.798 824.16 721.33 823.922 721.713 823.446C722.095 822.961 722.287 822.284 722.287 821.416C722.287 820.567 722.095 819.909 721.713 819.442C721.33 818.975 720.798 818.742 720.117 818.742C719.417 818.742 718.88 818.98 718.507 819.456C718.133 819.923 717.947 820.585 717.947 821.444C717.947 822.312 718.133 822.984 718.507 823.46C718.88 823.927 719.417 824.16 720.117 824.16ZM730.975 824.16C730.667 824.449 730.271 824.678 729.785 824.846C729.309 825.014 728.819 825.098 728.315 825.098C727.587 825.098 726.957 824.953 726.425 824.664C725.903 824.375 725.497 823.959 725.207 823.418C724.927 822.867 724.787 822.214 724.787 821.458C724.787 820.73 724.927 820.091 725.207 819.54C725.487 818.989 725.875 818.56 726.369 818.252C726.873 817.944 727.452 817.79 728.105 817.79C728.731 817.79 729.267 817.93 729.715 818.21C730.163 818.481 730.504 818.873 730.737 819.386C730.98 819.899 731.101 820.515 731.101 821.234V821.444H725.781V820.702H730.457L730.093 821.22C730.112 820.399 729.949 819.769 729.603 819.33C729.267 818.891 728.773 818.672 728.119 818.672C727.438 818.672 726.901 818.915 726.509 819.4C726.127 819.876 725.935 820.539 725.935 821.388C725.935 822.303 726.136 822.993 726.537 823.46C726.948 823.927 727.545 824.16 728.329 824.16C728.74 824.16 729.132 824.095 729.505 823.964C729.888 823.824 730.252 823.614 730.597 823.334L730.975 824.16ZM732.822 825V819.932C732.822 819.605 732.813 819.279 732.794 818.952C732.785 818.616 732.757 818.285 732.71 817.958H733.788L733.942 819.694L733.788 819.652C733.919 819.036 734.199 818.574 734.628 818.266C735.067 817.949 735.557 817.79 736.098 817.79C736.22 817.79 736.332 817.799 736.434 817.818C736.546 817.827 736.649 817.846 736.742 817.874L736.714 818.91C736.5 818.835 736.252 818.798 735.972 818.798C735.487 818.798 735.095 818.905 734.796 819.12C734.507 819.335 734.292 819.61 734.152 819.946C734.022 820.273 733.956 820.618 733.956 820.982V825H732.822ZM738.035 815.438C738.343 815.261 738.669 815.13 739.015 815.046C739.369 814.962 739.705 814.92 740.023 814.92C740.564 814.92 741.035 815.013 741.437 815.2C741.847 815.387 742.165 815.643 742.389 815.97C742.613 816.297 742.725 816.684 742.725 817.132C742.725 817.561 742.641 817.944 742.473 818.28C742.314 818.616 742.109 818.929 741.857 819.218C741.614 819.498 741.362 819.783 741.101 820.072C740.849 820.361 740.629 820.674 740.443 821.01C740.256 821.337 740.144 821.715 740.107 822.144L740.065 822.396H739.393V822.046C739.393 821.561 739.463 821.136 739.603 820.772C739.752 820.408 739.934 820.081 740.149 819.792C740.363 819.503 740.578 819.227 740.793 818.966C741.007 818.695 741.185 818.42 741.325 818.14C741.474 817.86 741.549 817.547 741.549 817.202C741.549 816.801 741.409 816.483 741.129 816.25C740.849 816.017 740.461 815.9 739.967 815.9C739.659 815.9 739.337 815.951 739.001 816.054C738.674 816.147 738.352 816.292 738.035 816.488V815.438ZM739.015 825V823.558H740.457V825H739.015Z" fill="#1D202E"/>
<path d="M751.111 825.112C750.598 825.112 750.117 825.07 749.669 824.986C749.221 824.893 748.806 824.753 748.423 824.566C748.04 824.37 747.695 824.132 747.387 823.852L747.821 822.97C748.325 823.39 748.829 823.689 749.333 823.866C749.846 824.043 750.444 824.132 751.125 824.132C751.918 824.132 752.534 823.978 752.973 823.67C753.412 823.353 753.631 822.909 753.631 822.34C753.631 821.995 753.519 821.719 753.295 821.514C753.08 821.299 752.782 821.131 752.399 821.01C752.026 820.879 751.601 820.758 751.125 820.646C750.649 820.543 750.196 820.427 749.767 820.296C749.338 820.156 748.955 819.983 748.619 819.778C748.292 819.573 748.036 819.311 747.849 818.994C747.662 818.677 747.569 818.28 747.569 817.804C747.569 817.235 747.718 816.735 748.017 816.306C748.316 815.867 748.736 815.527 749.277 815.284C749.818 815.041 750.458 814.92 751.195 814.92C751.652 814.92 752.091 814.971 752.511 815.074C752.931 815.167 753.318 815.307 753.673 815.494C754.037 815.681 754.359 815.909 754.639 816.18L754.191 817.062C753.734 816.661 753.262 816.367 752.777 816.18C752.292 815.993 751.764 815.9 751.195 815.9C750.42 815.9 749.814 816.063 749.375 816.39C748.936 816.717 748.717 817.174 748.717 817.762C748.717 818.126 748.815 818.42 749.011 818.644C749.207 818.868 749.482 819.05 749.837 819.19C750.192 819.321 750.598 819.442 751.055 819.554C751.54 819.666 752.007 819.787 752.455 819.918C752.903 820.049 753.3 820.212 753.645 820.408C754 820.595 754.28 820.842 754.485 821.15C754.69 821.449 754.793 821.831 754.793 822.298C754.793 822.867 754.644 823.362 754.345 823.782C754.046 824.202 753.622 824.529 753.071 824.762C752.52 824.995 751.867 825.112 751.111 825.112ZM756.53 825V817.958H757.664V825H756.53ZM756.418 814.976H757.804V816.264H756.418V814.976ZM762.959 828.122C761.895 828.122 760.971 827.879 760.187 827.394L760.383 826.47C760.822 826.722 761.237 826.904 761.629 827.016C762.021 827.128 762.465 827.184 762.959 827.184C763.631 827.184 764.14 827.002 764.485 826.638C764.84 826.283 765.017 825.751 765.017 825.042V823.138L765.171 822.956C765.059 823.329 764.882 823.656 764.639 823.936C764.406 824.207 764.117 824.417 763.771 824.566C763.426 824.715 763.034 824.79 762.595 824.79C761.97 824.79 761.419 824.645 760.943 824.356C760.477 824.057 760.108 823.647 759.837 823.124C759.576 822.601 759.445 821.99 759.445 821.29C759.445 820.59 759.576 819.979 759.837 819.456C760.108 818.933 760.477 818.527 760.943 818.238C761.419 817.939 761.97 817.79 762.595 817.79C763.249 817.79 763.799 817.953 764.247 818.28C764.705 818.597 765.013 819.045 765.171 819.624L765.003 819.47V817.958H766.137V824.944C766.137 825.999 765.867 826.792 765.325 827.324C764.793 827.856 764.005 828.122 762.959 828.122ZM762.819 823.838C763.501 823.838 764.033 823.614 764.415 823.166C764.807 822.709 765.003 822.083 765.003 821.29C765.003 820.497 764.807 819.876 764.415 819.428C764.033 818.971 763.501 818.742 762.819 818.742C762.129 818.742 761.583 818.971 761.181 819.428C760.789 819.876 760.593 820.497 760.593 821.29C760.593 822.093 760.789 822.718 761.181 823.166C761.583 823.614 762.129 823.838 762.819 823.838ZM768.315 825V819.932C768.315 819.605 768.305 819.279 768.287 818.952C768.277 818.616 768.249 818.285 768.203 817.958H769.281L769.407 819.414L769.267 819.526C769.463 818.957 769.789 818.527 770.247 818.238C770.704 817.939 771.231 817.79 771.829 817.79C773.518 817.79 774.363 818.719 774.363 820.576V825H773.229V820.632C773.229 819.979 773.098 819.503 772.837 819.204C772.575 818.896 772.165 818.742 771.605 818.742C770.951 818.742 770.429 818.943 770.037 819.344C769.645 819.745 769.449 820.287 769.449 820.968V825H768.315ZM782.647 825.098C781.807 825.098 781.172 824.865 780.743 824.398C780.323 823.931 780.113 823.241 780.113 822.326V817.958H781.247V822.298C781.247 822.933 781.377 823.399 781.639 823.698C781.9 823.997 782.297 824.146 782.829 824.146C783.454 824.146 783.958 823.945 784.341 823.544C784.723 823.143 784.915 822.606 784.915 821.934V817.958H786.049V825H784.943V823.474L785.111 823.39C784.924 823.95 784.607 824.375 784.159 824.664C783.72 824.953 783.216 825.098 782.647 825.098ZM788.235 828.024V819.932C788.235 819.605 788.225 819.279 788.207 818.952C788.197 818.616 788.169 818.285 788.123 817.958H789.201L789.327 819.414L789.215 819.624C789.373 819.036 789.677 818.583 790.125 818.266C790.573 817.949 791.114 817.79 791.749 817.79C792.365 817.79 792.906 817.944 793.373 818.252C793.849 818.56 794.217 818.989 794.479 819.54C794.749 820.091 794.885 820.735 794.885 821.472C794.885 822.209 794.749 822.853 794.479 823.404C794.217 823.945 793.853 824.365 793.387 824.664C792.92 824.953 792.374 825.098 791.749 825.098C791.114 825.098 790.573 824.939 790.125 824.622C789.677 824.305 789.373 823.852 789.215 823.264L789.369 823.124V828.024H788.235ZM791.539 824.16C792.22 824.16 792.752 823.927 793.135 823.46C793.517 822.993 793.709 822.331 793.709 821.472C793.709 820.613 793.517 819.946 793.135 819.47C792.752 818.985 792.22 818.742 791.539 818.742C790.839 818.742 790.302 818.975 789.929 819.442C789.555 819.909 789.369 820.576 789.369 821.444C789.369 822.312 789.555 822.984 789.929 823.46C790.302 823.927 790.839 824.16 791.539 824.16Z" fill="#5182FF"/>
<path d="M592.463 612V598.472H601.507V600.391H594.857V604.153H601.127V606.091H594.857V610.081H601.507V612H592.463ZM603.573 612V605.122C603.573 604.679 603.56 604.229 603.535 603.773C603.522 603.304 603.484 602.848 603.421 602.405H605.663L605.872 604.305L605.663 604.324C605.916 603.64 606.321 603.108 606.879 602.728C607.436 602.348 608.095 602.158 608.855 602.158C609.754 602.158 610.457 602.386 610.964 602.842C611.483 603.285 611.819 603.969 611.971 604.894L611.515 604.476C611.768 603.779 612.199 603.222 612.807 602.804C613.415 602.373 614.124 602.158 614.935 602.158C616.011 602.158 616.816 602.487 617.348 603.146C617.88 603.792 618.146 604.78 618.146 606.11V612H615.771V606.186C615.771 605.451 615.644 604.913 615.391 604.571C615.15 604.216 614.745 604.039 614.175 604.039C613.516 604.039 612.997 604.273 612.617 604.742C612.249 605.198 612.066 605.831 612.066 606.642V612H609.691V606.186C609.691 605.451 609.558 604.913 609.292 604.571C609.038 604.216 608.633 604.039 608.076 604.039C607.404 604.039 606.879 604.273 606.499 604.742C606.131 605.198 605.948 605.831 605.948 606.642V612H603.573ZM624.405 612.133C623.569 612.133 622.828 611.937 622.182 611.544C621.536 611.139 621.035 610.569 620.681 609.834C620.339 609.087 620.168 608.213 620.168 607.212C620.168 606.199 620.345 605.318 620.7 604.571C621.054 603.811 621.548 603.222 622.182 602.804C622.828 602.373 623.569 602.158 624.405 602.158C625.215 602.158 625.918 602.361 626.514 602.766C627.122 603.159 627.533 603.71 627.749 604.419L627.521 604.552V602.405H629.858V612H627.521V609.834L627.749 609.91C627.533 610.619 627.122 611.17 626.514 611.563C625.918 611.943 625.215 612.133 624.405 612.133ZM625.051 610.309C625.836 610.309 626.444 610.037 626.875 609.492C627.305 608.947 627.521 608.175 627.521 607.174C627.521 606.148 627.305 605.369 626.875 604.837C626.444 604.292 625.836 604.02 625.051 604.02C624.253 604.02 623.632 604.299 623.189 604.856C622.745 605.413 622.524 606.199 622.524 607.212C622.524 608.2 622.745 608.966 623.189 609.511C623.632 610.043 624.253 610.309 625.051 610.309ZM632.425 612V602.405H634.8V612H632.425ZM632.311 598.054H634.952V600.391H632.311V598.054ZM637.361 612V598.016H639.736V612H637.361ZM592.463 684V670.472H598.334C599.803 670.472 600.937 670.827 601.735 671.536C602.546 672.233 602.951 673.189 602.951 674.405C602.951 675.608 602.539 676.565 601.716 677.274C600.905 677.983 599.778 678.338 598.334 678.338H594.914V684H592.463ZM594.914 676.457H598.049C598.91 676.457 599.55 676.28 599.968 675.925C600.399 675.57 600.614 675.07 600.614 674.424C600.614 673.765 600.405 673.265 599.987 672.923C599.569 672.568 598.923 672.391 598.049 672.391H594.914V676.457ZM608.318 684.133C607.482 684.133 606.741 683.937 606.095 683.544C605.449 683.139 604.948 682.569 604.594 681.834C604.252 681.087 604.081 680.213 604.081 679.212C604.081 678.199 604.258 677.318 604.613 676.571C604.967 675.811 605.461 675.222 606.095 674.804C606.741 674.373 607.482 674.158 608.318 674.158C609.128 674.158 609.831 674.361 610.427 674.766C611.035 675.159 611.446 675.71 611.662 676.419L611.434 676.552V674.405H613.771V684H611.434V681.834L611.662 681.91C611.446 682.619 611.035 683.17 610.427 683.563C609.831 683.943 609.128 684.133 608.318 684.133ZM608.964 682.309C609.749 682.309 610.357 682.037 610.788 681.492C611.218 680.947 611.434 680.175 611.434 679.174C611.434 678.148 611.218 677.369 610.788 676.837C610.357 676.292 609.749 676.02 608.964 676.02C608.166 676.02 607.545 676.299 607.102 676.856C606.658 677.413 606.437 678.199 606.437 679.212C606.437 680.2 606.658 680.966 607.102 681.511C607.545 682.043 608.166 682.309 608.964 682.309ZM619.872 684.133C618.124 684.133 616.744 683.734 615.73 682.936L616.395 681.264C616.902 681.644 617.453 681.929 618.048 682.119C618.644 682.309 619.264 682.404 619.91 682.404C620.493 682.404 620.936 682.309 621.24 682.119C621.544 681.929 621.696 681.663 621.696 681.321C621.696 681.03 621.589 680.802 621.373 680.637C621.158 680.46 620.791 680.308 620.271 680.181L618.675 679.82C617.801 679.63 617.143 679.313 616.699 678.87C616.269 678.414 616.053 677.838 616.053 677.141C616.053 676.558 616.218 676.045 616.547 675.602C616.877 675.146 617.339 674.791 617.934 674.538C618.53 674.285 619.22 674.158 620.005 674.158C620.689 674.158 621.348 674.266 621.981 674.481C622.615 674.684 623.166 674.981 623.634 675.374L622.95 677.008C622.469 676.641 621.975 676.368 621.468 676.191C620.974 676.014 620.48 675.925 619.986 675.925C619.442 675.925 619.017 676.026 618.713 676.229C618.409 676.432 618.257 676.71 618.257 677.065C618.257 677.344 618.346 677.565 618.523 677.73C618.713 677.895 619.036 678.028 619.492 678.129L621.107 678.528C622.057 678.731 622.748 679.06 623.178 679.516C623.622 679.959 623.843 680.548 623.843 681.283C623.843 682.157 623.489 682.854 622.779 683.373C622.07 683.88 621.101 684.133 619.872 684.133ZM629.391 684.133C627.643 684.133 626.262 683.734 625.249 682.936L625.914 681.264C626.421 681.644 626.972 681.929 627.567 682.119C628.162 682.309 628.783 682.404 629.429 682.404C630.012 682.404 630.455 682.309 630.759 682.119C631.063 681.929 631.215 681.663 631.215 681.321C631.215 681.03 631.107 680.802 630.892 680.637C630.677 680.46 630.309 680.308 629.79 680.181L628.194 679.82C627.32 679.63 626.661 679.313 626.218 678.87C625.787 678.414 625.572 677.838 625.572 677.141C625.572 676.558 625.737 676.045 626.066 675.602C626.395 675.146 626.858 674.791 627.453 674.538C628.048 674.285 628.739 674.158 629.524 674.158C630.208 674.158 630.867 674.266 631.5 674.481C632.133 674.684 632.684 674.981 633.153 675.374L632.469 677.008C631.988 676.641 631.494 676.368 630.987 676.191C630.493 676.014 629.999 675.925 629.505 675.925C628.96 675.925 628.536 676.026 628.232 676.229C627.928 676.432 627.776 676.71 627.776 677.065C627.776 677.344 627.865 677.565 628.042 677.73C628.232 677.895 628.555 678.028 629.011 678.129L630.626 678.528C631.576 678.731 632.266 679.06 632.697 679.516C633.14 679.959 633.362 680.548 633.362 681.283C633.362 682.157 633.007 682.854 632.298 683.373C631.589 683.88 630.62 684.133 629.391 684.133ZM637.925 684L634.163 674.405H636.614L639.312 681.834H638.837L641.554 674.405H643.283L645.981 681.834H645.544L648.242 674.405H650.541L646.779 684H644.708L641.782 676.267H642.865L639.996 684H637.925ZM656.241 684.133C655.24 684.133 654.372 683.93 653.638 683.525C652.916 683.12 652.358 682.55 651.966 681.815C651.573 681.068 651.377 680.181 651.377 679.155C651.377 678.142 651.573 677.261 651.966 676.514C652.358 675.754 652.916 675.171 653.638 674.766C654.372 674.361 655.24 674.158 656.241 674.158C657.216 674.158 658.065 674.361 658.787 674.766C659.521 675.171 660.085 675.754 660.478 676.514C660.883 677.261 661.086 678.142 661.086 679.155C661.086 680.181 660.883 681.068 660.478 681.815C660.085 682.55 659.521 683.12 658.787 683.525C658.065 683.93 657.216 684.133 656.241 684.133ZM656.241 682.309C657.026 682.309 657.628 682.049 658.046 681.53C658.476 680.998 658.692 680.206 658.692 679.155C658.692 678.116 658.476 677.337 658.046 676.818C657.628 676.286 657.026 676.02 656.241 676.02C655.443 676.02 654.822 676.286 654.379 676.818C653.948 677.337 653.733 678.116 653.733 679.155C653.733 680.206 653.948 680.998 654.379 681.53C654.809 682.049 655.43 682.309 656.241 682.309ZM663.115 684V677.122C663.115 676.679 663.102 676.229 663.077 675.773C663.064 675.304 663.026 674.848 662.963 674.405H665.205L665.471 676.875L665.205 676.742C665.369 675.893 665.743 675.254 666.326 674.823C666.908 674.392 667.567 674.177 668.302 674.177C668.492 674.177 668.669 674.19 668.834 674.215C668.998 674.24 669.144 674.278 669.271 674.329L669.233 676.495C668.84 676.33 668.422 676.248 667.979 676.248C667.409 676.248 666.94 676.362 666.573 676.59C666.218 676.818 665.946 677.128 665.756 677.521C665.578 677.901 665.49 678.332 665.49 678.813V684H663.115ZM679.566 684H677.229V681.568L677.457 681.91C677.241 682.619 676.83 683.17 676.222 683.563C675.626 683.943 674.923 684.133 674.113 684.133C673.277 684.133 672.536 683.93 671.89 683.525C671.256 683.107 670.762 682.518 670.408 681.758C670.053 680.998 669.876 680.118 669.876 679.117C669.876 678.116 670.047 677.242 670.389 676.495C670.743 675.748 671.244 675.171 671.89 674.766C672.536 674.361 673.277 674.158 674.113 674.158C674.923 674.158 675.626 674.361 676.222 674.766C676.83 675.171 677.241 675.716 677.457 676.4L677.191 676.685V670.016H679.566V684ZM674.759 682.309C675.544 682.309 676.152 682.037 676.583 681.492C677.013 680.947 677.229 680.168 677.229 679.155C677.229 678.154 677.013 677.382 676.583 676.837C676.152 676.292 675.544 676.02 674.759 676.02C673.961 676.02 673.34 676.292 672.897 676.837C672.453 677.369 672.232 678.129 672.232 679.117C672.232 680.13 672.453 680.916 672.897 681.473C673.34 682.03 673.961 682.309 674.759 682.309Z" fill="#C0C0C0"/>
<path d="M591 622H849" stroke="#C0C0C0"/>
<path d="M591 692H849" stroke="#C0C0C0"/>
</g>
</g>
</g>
<defs>
<filter id="filter0_d" x="498" y="107" width="444" height="926" filterUnits="userSpaceOnUse" color-interpolation-filters="sRGB">
<feFlood flood-opacity="0" result="BackgroundImageFix"/>
<feColorMatrix in="SourceAlpha" type="matrix" values="0 0 0 0 0 0 0 0 0 0 0 0 0 0 0 0 0 0 127 0"/>
<feOffset/>
<feGaussianBlur stdDeviation="7.5"/>
<feColorMatrix type="matrix" values="0 0 0 0 0 0 0 0 0 0 0 0 0 0 0 0 0 0 0.3 0"/>
<feBlend mode="normal" in2="BackgroundImageFix" result="effect1_dropShadow"/>
<feBlend mode="normal" in="SourceGraphic" in2="effect1_dropShadow" result="shape"/>
</filter>
<filter id="filter1_d" x="543" y="533" width="353" height="325" filterUnits="userSpaceOnUse" color-interpolation-filters="sRGB">
<feFlood flood-opacity="0" result="BackgroundImageFix"/>
<feColorMatrix in="SourceAlpha" type="matrix" values="0 0 0 0 0 0 0 0 0 0 0 0 0 0 0 0 0 0 127 0"/>
<feOffset/>
<feGaussianBlur stdDeviation="5"/>
<feColorMatrix type="matrix" values="0 0 0 0 0 0 0 0 0 0 0 0 0 0 0 0 0 0 0.25 0"/>
<feBlend mode="normal" in2="BackgroundImageFix" result="effect1_dropShadow"/>
<feBlend mode="normal" in="SourceGraphic" in2="effect1_dropShadow" result="shape"/>
</filter>
<linearGradient id="paint0_linear" x1="830.045" y1="357.513" x2="895.415" y2="357.513" gradientUnits="userSpaceOnUse">
<stop stop-color="white"/>
<stop offset="1" stop-color="white" stop-opacity="0.3"/>
</linearGradient>
<linearGradient id="paint1_linear" x1="42052.2" y1="42356.7" x2="47727" y2="42356.7" gradientUnits="userSpaceOnUse">
<stop stop-color="white"/>
<stop offset="1" stop-color="white" stop-opacity="0.3"/>
</linearGradient>
<linearGradient id="paint2_linear" x1="682.863" y1="847.91" x2="760.361" y2="847.91" gradientUnits="userSpaceOnUse">
<stop stop-color="white"/>
<stop offset="1" stop-color="white" stop-opacity="0.3"/>
</linearGradient>
<linearGradient id="paint3_linear" x1="49552.9" y1="-48943.2" x2="56280.5" y2="-48943.2" gradientUnits="userSpaceOnUse">
<stop stop-color="white"/>
<stop offset="1" stop-color="white" stop-opacity="0.3"/>
</linearGradient>
<clipPath id="clip0">
<rect x="513" y="122" width="414" height="896" rx="35" fill="white"/>
</clipPath>
</defs>
</svg>
